SplineFontDB: 3.2
FontName: Quicksand-Light
FullName: Quicksand Light
FamilyName: Quicksand Light
Weight: Book
Copyright: Copyright 2019 The Quicksand Project Authors (https://github.com/andrew-paglinawan/QuicksandFamily.git), with Reserved Font Name "Quicksand"
Version: 3.006
ItalicAngle: 0
UnderlinePosition: -125
UnderlineWidth: 50
Ascent: 800
Descent: 200
InvalidEm: 0
sfntRevision: 0x00030189
LayerCount: 2
Layer: 0 1 "Back" 1
Layer: 1 1 "Fore" 0
XUID: [1021 933 835020959 5889]
StyleMap: 0x0040
FSType: 0
OS2Version: 4
OS2_WeightWidthSlopeOnly: 0
OS2_UseTypoMetrics: 1
CreationTime: 1560784718
ModificationTime: 1773130366
PfmFamily: 81
TTFWeight: 400
TTFWidth: 5
LineGap: 0
VLineGap: 0
Panose: 0 0 0 0 0 0 0 0 0 0
OS2TypoAscent: 1000
OS2TypoAOffset: 0
OS2TypoDescent: -250
OS2TypoDOffset: 0
OS2TypoLinegap: 0
OS2WinAscent: 1183
OS2WinAOffset: 0
OS2WinDescent: 303
OS2WinDOffset: 0
HheadAscent: 1000
HheadAOffset: 0
HheadDescent: -250
HheadDOffset: 0
OS2SubXSize: 650
OS2SubYSize: 600
OS2SubXOff: 0
OS2SubYOff: 75
OS2SupXSize: 650
OS2SupYSize: 600
OS2SupXOff: 0
OS2SupYOff: 350
OS2StrikeYSize: 50
OS2StrikeYPos: 302
OS2CapHeight: 700
OS2XHeight: 503
OS2Vendor: 'NONE'
OS2CodePages: 20000193.00000000
OS2UnicodeRanges: a00000ff.4000205b.00000000.00000000
Lookup: 1 0 0 "'aalt' Access All Alternates in Latin lookup 0" { "'aalt' Access All Alternates in Latin lookup 0 subtable"  } ['aalt' ('DFLT' <'dflt' > 'latn' <'AZE ' 'CAT ' 'CRT ' 'KAZ ' 'MOL ' 'NLD ' 'ROM ' 'TAT ' 'TRK ' 'dflt' > ) ]
Lookup: 3 0 0 "'aalt' Access All Alternates in Latin lookup 1" { "'aalt' Access All Alternates in Latin lookup 1 subtable"  } ['aalt' ('DFLT' <'dflt' > 'latn' <'AZE ' 'CAT ' 'CRT ' 'KAZ ' 'MOL ' 'NLD ' 'ROM ' 'TAT ' 'TRK ' 'dflt' > ) ]

StartChar: .notdef
Encoding: 65536 -1 0
Width: 584
Flags: W
LayerCount: 2
Fore
SplineSet
40 665 m 2,0,1
 40 700 40 700 75 700 c 2,2,-1
 509 700 l 2,3,4
 544 700 544 700 544 665 c 2,5,-1
 544 35 l 2,6,7
 544 0 544 0 509 0 c 2,8,-1
 75 0 l 2,9,10
 40 0 40 0 40 35 c 2,11,-1
 40 665 l 2,0,1
95 670 m 2,12,13
 88 670 88 670 92 664 c 2,14,-1
 508 65 l 2,15,16
 510 62 510 62 512 62.5 c 128,-1,17
 514 63 514 63 514 67 c 2,18,-1
 514 665 l 2,19,20
 514 670 514 670 509 670 c 2,21,-1
 95 670 l 2,12,13
70 35 m 2,22,23
 70 30 70 30 75 30 c 2,24,-1
 488 30 l 2,25,26
 495 30 495 30 491 36 c 2,27,-1
 76 635 l 2,28,29
 74 638 74 638 72 637.5 c 128,-1,30
 70 637 70 637 70 633 c 2,31,-1
 70 35 l 2,22,23
EndSplineSet
EndChar

StartChar: A
Encoding: 65 65 1
Width: 647
GlyphClass: 2
Flags: W
AnchorPoint: "Anchor-3" 583 10 basechar 0
AnchorPoint: "Anchor-2" 324 0 basechar 0
AnchorPoint: "Anchor-0" 324 700 basechar 0
LayerCount: 2
Fore
SplineSet
328 623 m 1,0,-1
 85 19 l 2,1,2
 81 9 81 9 74 4 c 128,-1,3
 67 -1 67 -1 58 -1 c 0,4,5
 44 -1 44 -1 37 6.5 c 128,-1,6
 30 14 30 14 29 25 c 0,7,8
 28 30 28 30 30 37 c 2,9,-1
 294 683 l 2,10,11
 299 694 299 694 306.5 698.5 c 128,-1,12
 314 703 314 703 324 703 c 256,13,14
 334 703 334 703 341.5 697.5 c 128,-1,15
 349 692 349 692 353 683 c 2,16,-1
 616 40 l 2,17,18
 618 34 618 34 618 28 c 0,19,20
 618 14 618 14 609 6.5 c 128,-1,21
 600 -1 600 -1 588 -1 c 0,22,23
 578 -1 578 -1 570.5 4.5 c 128,-1,24
 563 10 563 10 559 19 c 2,25,-1
 310 627 l 1,26,-1
 328 623 l 1,0,-1
143 202 m 1,27,-1
 168 261 l 1,28,-1
 478 261 l 1,29,-1
 490 202 l 1,30,-1
 143 202 l 1,27,-1
EndSplineSet
Substitution2: "Single Substitution lookup 33 subtable" ordfeminine
Substitution2: "'aalt' Access All Alternates in Latin lookup 0 subtable" ordfeminine
EndChar

StartChar: Aogonek
Encoding: 260 260 23
Width: 648
GlyphClass: 2
Flags: W
AnchorPoint: "Anchor-3" 583 10 basechar 0
AnchorPoint: "Anchor-2" 324 0 basechar 0
AnchorPoint: "Anchor-0" 324 700 basechar 0
LayerCount: 2
Fore
SplineSet
562 -190 m 0,0,1
 525 -190 525 -190 495.5 -165 c 128,-1,2
 466 -140 466 -140 466 -95 c 0,3,4
 466 -67 466 -67 476 -46 c 128,-1,5
 486 -25 486 -25 502.5 -9 c 128,-1,6
 519 7 519 7 538.5 17 c 128,-1,7
 558 27 558 27 576 33 c 1,8,-1
 583 20 l 1,9,-1
 562 12 l 1,10,-1
 310 627 l 1,11,-1
 328 623 l 1,12,-1
 85 19 l 2,13,14
 81 9 81 9 74 4 c 128,-1,15
 67 -1 67 -1 58 -1 c 0,16,17
 43 -1 43 -1 36.5 6 c 128,-1,18
 30 13 30 13 29 24 c 0,19,20
 28 30 28 30 31 38 c 2,21,-1
 294 683 l 2,22,23
 299 694 299 694 306.5 698.5 c 128,-1,24
 314 703 314 703 324 703 c 256,25,26
 334 703 334 703 341.5 697.5 c 128,-1,27
 349 692 349 692 353 683 c 2,28,-1
 619 33 l 2,29,30
 621 27 621 27 621 22 c 0,31,32
 621 13 621 13 615.5 7.5 c 128,-1,33
 610 2 610 2 599 0 c 0,34,35
 568 -7 568 -7 544 -31 c 128,-1,36
 520 -55 520 -55 520 -83 c 256,37,38
 520 -111 520 -111 535 -125 c 128,-1,39
 550 -139 550 -139 568 -139 c 0,40,41
 590 -139 590 -139 598 -127 c 0,42,43
 603 -120 603 -120 609 -116 c 128,-1,44
 615 -112 615 -112 622 -112 c 0,45,46
 632 -112 632 -112 638.5 -118.5 c 128,-1,47
 645 -125 645 -125 645 -135 c 0,48,49
 645 -149 645 -149 633 -162 c 128,-1,50
 621 -175 621 -175 602 -182.5 c 128,-1,51
 583 -190 583 -190 562 -190 c 0,0,1
148 202 m 1,52,-1
 168 261 l 1,53,-1
 478 261 l 1,54,-1
 490 202 l 1,55,-1
 148 202 l 1,52,-1
EndSplineSet
EndChar

StartChar: Aring
Encoding: 197 197 24
Width: 648
GlyphClass: 2
Flags: W
AnchorPoint: "Anchor-3" 583 10 basechar 0
AnchorPoint: "Anchor-2" 324 0 basechar 0
AnchorPoint: "Anchor-0" 324 857 basechar 0
LayerCount: 2
Fore
SplineSet
324 662 m 256,0,1
 297 662 297 662 274 675 c 128,-1,2
 251 688 251 688 236.5 710.5 c 128,-1,3
 222 733 222 733 222 760 c 256,4,5
 222 787 222 787 236.5 809.5 c 128,-1,6
 251 832 251 832 274 845 c 128,-1,7
 297 858 297 858 324 858 c 256,8,9
 351 858 351 858 374.5 845 c 128,-1,10
 398 832 398 832 412 809.5 c 128,-1,11
 426 787 426 787 426 760 c 256,12,13
 426 733 426 733 412 710.5 c 128,-1,14
 398 688 398 688 374.5 675 c 128,-1,15
 351 662 351 662 324 662 c 256,0,1
324 704 m 0,16,17
 349 704 349 704 365.5 720.5 c 128,-1,18
 382 737 382 737 382 760 c 0,19,20
 382 785 382 785 365 801 c 128,-1,21
 348 817 348 817 324 817 c 0,22,23
 301 817 301 817 284 800.5 c 128,-1,24
 267 784 267 784 267 760 c 0,25,26
 267 737 267 737 284 720.5 c 128,-1,27
 301 704 301 704 324 704 c 0,16,17
328 623 m 1,28,-1
 85 19 l 2,29,30
 81 9 81 9 74 4 c 128,-1,31
 67 -1 67 -1 58 -1 c 0,32,33
 44 -1 44 -1 37 6.5 c 128,-1,34
 30 14 30 14 29 25 c 0,35,36
 28 30 28 30 30 37 c 2,37,-1
 294 683 l 2,38,39
 299 694 299 694 306.5 698.5 c 128,-1,40
 314 703 314 703 324 703 c 256,41,42
 334 703 334 703 341.5 697.5 c 128,-1,43
 349 692 349 692 353 683 c 2,44,-1
 616 40 l 2,45,46
 618 34 618 34 618 28 c 0,47,48
 618 14 618 14 609 6.5 c 128,-1,49
 600 -1 600 -1 588 -1 c 0,50,51
 578 -1 578 -1 570.5 4.5 c 128,-1,52
 563 10 563 10 559 19 c 2,53,-1
 310 627 l 1,54,-1
 328 623 l 1,28,-1
143 202 m 1,55,-1
 168 261 l 1,56,-1
 478 261 l 1,57,-1
 490 202 l 1,58,-1
 143 202 l 1,55,-1
EndSplineSet
EndChar

StartChar: AE
Encoding: 198 198 27
Width: 919
GlyphClass: 2
Flags: W
AnchorPoint: "Anchor-2" 463 0 basechar 0
AnchorPoint: "Anchor-0" 624 700 basechar 0
LayerCount: 2
Fore
SplineSet
175 227 m 1,0,-1
 475 227 l 1,1,-1
 457 205 l 1,2,-1
 457 623 l 1,3,-1
 472 605 l 1,4,-1
 60 11 l 2,5,6
 51 -2 51 -2 36 -2 c 0,7,8
 26 -2 26 -2 17 6 c 128,-1,9
 8 14 8 14 8 27 c 0,10,11
 8 37 8 37 13 46 c 2,12,-1
 462 687 l 2,13,14
 468 694 468 694 475 697 c 128,-1,15
 482 700 482 700 489 700 c 2,16,-1
 842 700 l 2,17,18
 854 700 854 700 863 691.5 c 128,-1,19
 872 683 872 683 872 670 c 256,20,21
 872 657 872 657 863 649 c 128,-1,22
 854 641 854 641 842 641 c 2,23,-1
 511 641 l 1,24,-1
 519 651 l 1,25,-1
 519 376 l 1,26,-1
 512 388 l 1,27,-1
 797 388 l 2,28,29
 809 388 809 388 818 379.5 c 128,-1,30
 827 371 827 371 827 359 c 0,31,32
 827 346 827 346 818 338 c 128,-1,33
 809 330 809 330 797 330 c 2,34,-1
 510 330 l 1,35,-1
 519 340 l 1,36,-1
 519 45 l 1,37,-1
 512 59 l 1,38,-1
 842 59 l 2,39,40
 854 59 854 59 863 50 c 128,-1,41
 872 41 872 41 872 29 c 0,42,43
 872 16 872 16 863 8 c 128,-1,44
 854 0 854 0 842 0 c 2,45,-1
 488 0 l 2,46,47
 475 0 475 0 466 9 c 128,-1,48
 457 18 457 18 457 30 c 2,49,-1
 457 182 l 1,50,-1
 476 169 l 1,51,-1
 131 169 l 1,52,-1
 175 227 l 1,0,-1
EndSplineSet
EndChar

StartChar: B
Encoding: 66 66 29
Width: 651
GlyphClass: 2
Flags: W
AnchorPoint: "Anchor-2" 326 0 basechar 0
AnchorPoint: "Anchor-0" 326 700 basechar 0
LayerCount: 2
Fore
SplineSet
389 700 m 2,0,1
 473 700 473 700 520.5 654.5 c 128,-1,2
 568 609 568 609 568 528 c 0,3,4
 568 486 568 486 550 448 c 128,-1,5
 532 410 532 410 497 386.5 c 128,-1,6
 462 363 462 363 410 360 c 1,7,-1
 406 380 l 1,8,9
 443 380 443 380 478.5 369.5 c 128,-1,10
 514 359 514 359 542 336 c 128,-1,11
 570 313 570 313 587 278.5 c 128,-1,12
 604 244 604 244 604 195 c 0,13,14
 604 143 604 143 586.5 105.5 c 128,-1,15
 569 68 569 68 539.5 45 c 128,-1,16
 510 22 510 22 472 11 c 128,-1,17
 434 0 434 0 393 0 c 2,18,-1
 124 0 l 2,19,20
 112 0 112 0 103 9 c 128,-1,21
 94 18 94 18 94 30 c 2,22,-1
 94 670 l 2,23,24
 94 682 94 682 103 691 c 128,-1,25
 112 700 112 700 124 700 c 2,26,-1
 389 700 l 2,0,1
381 641 m 2,27,-1
 146 641 l 1,28,-1
 158 659 l 1,29,-1
 158 376 l 1,30,-1
 147 391 l 1,31,-1
 381 391 l 2,32,33
 433 392 433 392 468.5 425 c 128,-1,34
 504 458 504 458 504 523 c 0,35,36
 504 578 504 578 472 609.5 c 128,-1,37
 440 641 440 641 381 641 c 2,27,-1
388 331 m 2,38,-1
 153 331 l 1,39,-1
 158 337 l 1,40,-1
 158 50 l 1,41,-1
 152 59 l 1,42,-1
 390 59 l 2,43,44
 454 59 454 59 497 91.5 c 128,-1,45
 540 124 540 124 540 195 c 0,46,47
 540 245 540 245 519 275 c 128,-1,48
 498 305 498 305 463 318 c 128,-1,49
 428 331 428 331 388 331 c 2,38,-1
EndSplineSet
EndChar

StartChar: C
Encoding: 67 67 30
Width: 653
GlyphClass: 2
Flags: W
AnchorPoint: "Anchor-2" 404 0 basechar 0
AnchorPoint: "Anchor-0" 390 700 basechar 0
LayerCount: 2
Fore
SplineSet
605 648 m 0,0,1
 617 640 617 640 619 627.5 c 128,-1,2
 621 615 621 615 613 603 c 0,3,4
 606 594 606 594 595 593 c 128,-1,5
 584 592 584 592 574 597 c 0,6,7
 536 622 536 622 492.5 636 c 128,-1,8
 449 650 449 650 399 650 c 0,9,10
 338 650 338 650 285.5 628.5 c 128,-1,11
 233 607 233 607 194 566.5 c 128,-1,12
 155 526 155 526 133.5 471 c 128,-1,13
 112 416 112 416 112 350 c 0,14,15
 112 282 112 282 134 226.5 c 128,-1,16
 156 171 156 171 195.5 131 c 128,-1,17
 235 91 235 91 287 70 c 128,-1,18
 339 49 339 49 399 49 c 0,19,20
 448 49 448 49 491.5 63 c 128,-1,21
 535 77 535 77 573 101 c 0,22,23
 583 107 583 107 594.5 105.5 c 128,-1,24
 606 104 606 104 613 94 c 0,25,26
 622 83 622 83 619.5 70.5 c 128,-1,27
 617 58 617 58 606 51 c 0,28,29
 581 35 581 35 547 21 c 128,-1,30
 513 7 513 7 475 -1.5 c 128,-1,31
 437 -10 437 -10 399 -10 c 0,32,33
 327 -10 327 -10 264 16 c 128,-1,34
 201 42 201 42 152 89.5 c 128,-1,35
 103 137 103 137 75.5 203 c 128,-1,36
 48 269 48 269 48 350 c 0,37,38
 48 428 48 428 75 493.5 c 128,-1,39
 102 559 102 559 150 607 c 128,-1,40
 198 655 198 655 262 682 c 128,-1,41
 326 709 326 709 399 709 c 0,42,43
 456 709 456 709 509 693 c 128,-1,44
 562 677 562 677 605 648 c 0,0,1
EndSplineSet
EndChar

StartChar: D
Encoding: 68 68 37
Width: 719
GlyphClass: 2
Flags: W
AnchorPoint: "Anchor-4" 127 350 basechar 0
AnchorPoint: "Anchor-2" 308 0 basechar 0
AnchorPoint: "Anchor-0" 312 700 basechar 0
LayerCount: 2
Fore
SplineSet
379 700 m 2,0,1
 453 700 453 700 508.5 672 c 128,-1,2
 564 644 564 644 600 594.5 c 128,-1,3
 636 545 636 545 653.5 482 c 128,-1,4
 671 419 671 419 671 350 c 0,5,6
 671 254 671 254 639.5 174.5 c 128,-1,7
 608 95 608 95 543.5 47.5 c 128,-1,8
 479 0 479 0 379 0 c 2,9,-1
 124 0 l 2,10,11
 112 0 112 0 103 9 c 128,-1,12
 94 18 94 18 94 30 c 2,13,-1
 94 670 l 2,14,15
 94 682 94 682 103 691 c 128,-1,16
 112 700 112 700 124 700 c 2,17,-1
 379 700 l 2,0,1
369 59 m 2,18,19
 454 59 454 59 506 98 c 128,-1,20
 558 137 558 137 582.5 203.5 c 128,-1,21
 607 270 607 270 607 350 c 0,22,23
 607 408 607 408 593.5 460.5 c 128,-1,24
 580 513 580 513 551.5 553.5 c 128,-1,25
 523 594 523 594 477.5 617.5 c 128,-1,26
 432 641 432 641 369 641 c 2,27,-1
 150 641 l 1,28,-1
 157 650 l 1,29,-1
 157 49 l 1,30,-1
 151 59 l 1,31,-1
 369 59 l 2,18,19
EndSplineSet
EndChar

StartChar: E
Encoding: 69 69 47
Width: 568
GlyphClass: 2
Flags: W
AnchorPoint: "Anchor-3" 489 10 basechar 0
AnchorPoint: "Anchor-2" 312 0 basechar 0
AnchorPoint: "Anchor-0" 318 700 basechar 0
LayerCount: 2
Fore
SplineSet
124 700 m 2,0,-1
 491 700 l 2,1,2
 503 700 503 700 512 691.5 c 128,-1,3
 521 683 521 683 521 670 c 256,4,5
 521 657 521 657 512 649 c 128,-1,6
 503 641 503 641 491 641 c 2,7,-1
 147 641 l 1,8,-1
 157 658 l 1,9,-1
 157 377 l 1,10,-1
 146 390 l 1,11,-1
 446 390 l 2,12,13
 458 390 458 390 467 381 c 128,-1,14
 476 372 476 372 476 360 c 0,15,16
 476 347 476 347 467 339 c 128,-1,17
 458 331 458 331 446 331 c 2,18,-1
 148 331 l 1,19,-1
 157 341 l 1,20,-1
 157 53 l 1,21,-1
 152 59 l 1,22,-1
 491 59 l 2,23,24
 503 59 503 59 512 50 c 128,-1,25
 521 41 521 41 521 29 c 0,26,27
 521 16 521 16 512 8 c 128,-1,28
 503 0 503 0 491 0 c 2,29,-1
 124 0 l 2,30,31
 112 0 112 0 103 9 c 128,-1,32
 94 18 94 18 94 30 c 2,33,-1
 94 670 l 2,34,35
 94 682 94 682 103 691 c 128,-1,36
 112 700 112 700 124 700 c 2,0,-1
EndSplineSet
EndChar

StartChar: Eogonek
Encoding: 280 280 68
Width: 579
GlyphClass: 2
Flags: W
AnchorPoint: "Anchor-3" 489 10 basechar 0
AnchorPoint: "Anchor-2" 312 0 basechar 0
AnchorPoint: "Anchor-0" 300 700 basechar 0
LayerCount: 2
Fore
SplineSet
442 -190 m 0,0,1
 405 -190 405 -190 375.5 -165 c 128,-1,2
 346 -140 346 -140 346 -95 c 0,3,4
 346 -69 346 -69 356.5 -48.5 c 128,-1,5
 367 -28 367 -28 383.5 -13.5 c 128,-1,6
 400 1 400 1 420 11 c 128,-1,7
 440 21 440 21 459 27 c 1,8,-1
 463 0 l 1,9,-1
 124 0 l 2,10,11
 112 0 112 0 103 9 c 128,-1,12
 94 18 94 18 94 30 c 2,13,-1
 94 670 l 2,14,15
 94 682 94 682 103 691 c 128,-1,16
 112 700 112 700 124 700 c 2,17,-1
 491 700 l 2,18,19
 503 700 503 700 512 691.5 c 128,-1,20
 521 683 521 683 521 670 c 0,21,22
 521 658 521 658 512 650 c 128,-1,23
 503 642 503 642 491 642 c 2,24,-1
 147 642 l 1,25,-1
 157 659 l 1,26,-1
 157 377 l 1,27,-1
 146 390 l 1,28,-1
 446 390 l 2,29,30
 458 390 458 390 467 381 c 128,-1,31
 476 372 476 372 476 360 c 256,32,33
 476 348 476 348 467 339.5 c 128,-1,34
 458 331 458 331 446 331 c 2,35,-1
 148 331 l 1,36,-1
 157 341 l 1,37,-1
 157 53 l 1,38,-1
 152 59 l 1,39,-1
 491 59 l 2,40,41
 503 59 503 59 512 50.5 c 128,-1,42
 521 42 521 42 521 29 c 256,43,44
 521 16 521 16 512 9 c 128,-1,45
 503 2 503 2 487 -1 c 0,46,47
 466 -3 466 -3 446 -14.5 c 128,-1,48
 426 -26 426 -26 413 -44 c 128,-1,49
 400 -62 400 -62 400 -83 c 0,50,51
 400 -110 400 -110 415 -124.5 c 128,-1,52
 430 -139 430 -139 449 -139 c 0,53,54
 472 -139 472 -139 478 -128 c 0,55,56
 483 -120 483 -120 490 -116 c 128,-1,57
 497 -112 497 -112 504 -112 c 0,58,59
 514 -112 514 -112 519.5 -118.5 c 128,-1,60
 525 -125 525 -125 525 -135 c 0,61,62
 525 -149 525 -149 514 -162 c 128,-1,63
 503 -175 503 -175 484.5 -182.5 c 128,-1,64
 466 -190 466 -190 442 -190 c 0,0,1
EndSplineSet
EndChar

StartChar: F
Encoding: 70 70 70
Width: 566
GlyphClass: 2
Flags: W
AnchorPoint: "Anchor-4" 128 207 basechar 0
AnchorPoint: "Anchor-2" 283 0 basechar 0
AnchorPoint: "Anchor-0" 283 700 basechar 0
LayerCount: 2
Fore
SplineSet
125 0 m 0,0,1
 111 0 111 0 102.5 9 c 128,-1,2
 94 18 94 18 94 30 c 2,3,-1
 94 670 l 2,4,5
 94 682 94 682 103 691 c 128,-1,6
 112 700 112 700 124 700 c 2,7,-1
 488 700 l 2,8,9
 501 700 501 700 509.5 691.5 c 128,-1,10
 518 683 518 683 518 670 c 0,11,12
 518 658 518 658 509.5 649.5 c 128,-1,13
 501 641 501 641 488 641 c 2,14,-1
 151 641 l 1,15,-1
 155 647 l 1,16,-1
 155 381 l 1,17,-1
 150 390 l 1,18,-1
 443 390 l 2,19,20
 456 390 456 390 464.5 381.5 c 128,-1,21
 473 373 473 373 473 361 c 0,22,23
 473 348 473 348 464.5 340 c 128,-1,24
 456 332 456 332 443 332 c 2,25,-1
 148 332 l 1,26,-1
 155 340 l 1,27,-1
 155 30 l 2,28,29
 155 18 155 18 146.5 9 c 128,-1,30
 138 0 138 0 125 0 c 0,0,1
EndSplineSet
EndChar

StartChar: G
Encoding: 71 71 71
Width: 695
GlyphClass: 2
Flags: W
AnchorPoint: "Anchor-2" 392 0 basechar 0
AnchorPoint: "Anchor-0" 380 700 basechar 0
LayerCount: 2
Fore
SplineSet
408 -10 m 0,0,1
 331 -10 331 -10 265 17 c 128,-1,2
 199 44 199 44 150.5 92.5 c 128,-1,3
 102 141 102 141 75 207 c 128,-1,4
 48 273 48 273 48 350 c 256,5,6
 48 427 48 427 75 493 c 128,-1,7
 102 559 102 559 150.5 607.5 c 128,-1,8
 199 656 199 656 265 683 c 128,-1,9
 331 710 331 710 408 710 c 0,10,11
 461 710 461 710 510.5 697.5 c 128,-1,12
 560 685 560 685 599 660 c 0,13,14
 606 655 606 655 609.5 648.5 c 128,-1,15
 613 642 613 642 613 635 c 0,16,17
 613 621 613 621 604 612.5 c 128,-1,18
 595 604 595 604 585 604 c 0,19,20
 580 604 580 604 575.5 605.5 c 128,-1,21
 571 607 571 607 567 609 c 0,22,23
 533 628 533 628 493 639 c 128,-1,24
 453 650 453 650 408 650 c 0,25,26
 322 650 322 650 255 611 c 128,-1,27
 188 572 188 572 150 504 c 128,-1,28
 112 436 112 436 112 350 c 256,29,30
 112 264 112 264 150 196 c 128,-1,31
 188 128 188 128 255 89 c 128,-1,32
 322 50 322 50 408 50 c 0,33,34
 453 50 453 50 498.5 63 c 128,-1,35
 544 76 544 76 577 98 c 1,36,-1
 572 77 l 1,37,-1
 572 307 l 1,38,-1
 587 293 l 1,39,-1
 414 293 l 2,40,41
 401 293 401 293 392 302 c 128,-1,42
 383 311 383 311 383 323 c 0,43,44
 383 337 383 337 392 345 c 128,-1,45
 401 353 401 353 414 353 c 2,46,-1
 605 353 l 2,47,48
 618 353 618 353 626.5 344.5 c 128,-1,49
 635 336 635 336 635 323 c 2,50,-1
 635 82 l 2,51,52
 635 74 635 74 631 67 c 128,-1,53
 627 60 627 60 620 55 c 0,54,55
 576 25 576 25 521.5 7.5 c 128,-1,56
 467 -10 467 -10 408 -10 c 0,0,1
EndSplineSet
EndChar

StartChar: H
Encoding: 72 72 78
Width: 720
GlyphClass: 2
Flags: W
AnchorPoint: "Anchor-4" 360 350 basechar 0
AnchorPoint: "Anchor-2" 360 0 basechar 0
AnchorPoint: "Anchor-0" 360 700 basechar 0
LayerCount: 2
Fore
SplineSet
126 700 m 0,0,1
 138 700 138 700 147.5 691 c 128,-1,2
 157 682 157 682 157 669 c 2,3,-1
 157 31 l 2,4,5
 156 18 156 18 146.5 9 c 128,-1,6
 137 0 137 0 125 0 c 0,7,8
 111 0 111 0 102.5 9 c 128,-1,9
 94 18 94 18 94 31 c 2,10,-1
 94 669 l 2,11,12
 94 682 94 682 103 691 c 128,-1,13
 112 700 112 700 126 700 c 0,0,1
595 700 m 0,14,15
 609 700 609 700 617.5 691 c 128,-1,16
 626 682 626 682 626 669 c 2,17,-1
 626 31 l 2,18,19
 625 18 625 18 616.5 9 c 128,-1,20
 608 0 608 0 594 0 c 0,21,22
 581 0 581 0 572 9 c 128,-1,23
 563 18 563 18 563 31 c 2,24,-1
 563 669 l 2,25,26
 563 682 563 682 572.5 691 c 128,-1,27
 582 700 582 700 595 700 c 0,14,15
121 387 m 1,28,-1
 596 387 l 1,29,-1
 595 329 l 1,30,-1
 117 329 l 1,31,-1
 121 387 l 1,28,-1
EndSplineSet
EndChar

StartChar: Hbar
Encoding: 294 294 79
Width: 832
GlyphClass: 2
Flags: W
AnchorPoint: "Anchor-4" 416 350 basechar 0
AnchorPoint: "Anchor-2" 416 0 basechar 0
AnchorPoint: "Anchor-0" 416 700 basechar 0
LayerCount: 2
Fore
SplineSet
113 489 m 2,0,1
 101 489 101 489 93 497.5 c 128,-1,2
 85 506 85 506 85 517 c 0,3,4
 85 529 85 529 93 536.5 c 128,-1,5
 101 544 101 544 113 544 c 2,6,-1
 719 544 l 2,7,8
 731 544 731 544 739 536 c 128,-1,9
 747 528 747 528 747 517 c 0,10,11
 747 505 747 505 739 497 c 128,-1,12
 731 489 731 489 719 489 c 2,13,-1
 113 489 l 2,0,1
181 700 m 256,14,15
 194 700 194 700 203 691 c 128,-1,16
 212 682 212 682 212 669 c 2,17,-1
 212 31 l 2,18,19
 212 18 212 18 202.5 9 c 128,-1,20
 193 0 193 0 181 0 c 0,21,22
 166 0 166 0 158 9 c 128,-1,23
 150 18 150 18 150 31 c 2,24,-1
 150 669 l 2,25,26
 150 682 150 682 159 691 c 128,-1,27
 168 700 168 700 181 700 c 256,14,15
651 700 m 256,28,29
 664 700 664 700 673 691 c 128,-1,30
 682 682 682 682 682 669 c 2,31,-1
 682 31 l 2,32,33
 681 18 681 18 672 9 c 128,-1,34
 663 0 663 0 650 0 c 256,35,36
 637 0 637 0 628 9 c 128,-1,37
 619 18 619 18 619 31 c 2,38,-1
 619 669 l 2,39,40
 619 682 619 682 628.5 691 c 128,-1,41
 638 700 638 700 651 700 c 256,28,29
177 387 m 1,42,-1
 652 387 l 1,43,-1
 651 329 l 1,44,-1
 172 329 l 1,45,-1
 177 387 l 1,42,-1
EndSplineSet
EndChar

StartChar: I
Encoding: 73 73 83
Width: 250
GlyphClass: 2
Flags: W
AnchorPoint: "Anchor-3" 227 10 basechar 0
AnchorPoint: "Anchor-2" 126 0 basechar 0
AnchorPoint: "Anchor-0" 126 700 basechar 0
LayerCount: 2
Fore
SplineSet
157 31 m 2,0,1
 156 18 156 18 146.5 9 c 128,-1,2
 137 0 137 0 125 0 c 0,3,4
 111 0 111 0 102.5 9 c 128,-1,5
 94 18 94 18 94 31 c 2,6,-1
 94 669 l 2,7,8
 94 682 94 682 103 691 c 128,-1,9
 112 700 112 700 126 700 c 0,10,11
 138 700 138 700 147.5 691 c 128,-1,12
 157 682 157 682 157 669 c 2,13,-1
 157 31 l 2,0,1
EndSplineSet
EndChar

StartChar: IJ
Encoding: 306 306 84
Width: 599
GlyphClass: 2
Flags: W
AnchorPoint: "Anchor-3" 177 10 basechar 0
AnchorPoint: "Anchor-2" 77 60 basechar 0
AnchorPoint: "Anchor-0" 336 700 basechar 0
LayerCount: 2
Fore
SplineSet
170 267 m 2,0,1
 169 254 169 254 160 245 c 128,-1,2
 151 236 151 236 139 236 c 0,3,4
 124 236 124 236 115.5 245 c 128,-1,5
 107 254 107 254 107 267 c 2,6,-1
 107 669 l 2,7,8
 107 682 107 682 116 691 c 128,-1,9
 125 700 125 700 139 700 c 0,10,11
 152 700 152 700 161 691 c 128,-1,12
 170 682 170 682 170 669 c 2,13,-1
 170 267 l 2,0,1
287 -10 m 0,14,15
 224 -10 224 -10 174.5 25 c 128,-1,16
 125 60 125 60 98 117 c 0,17,18
 94 126 94 126 94 133 c 0,19,20
 94 146 94 146 103.5 153.5 c 128,-1,21
 113 161 113 161 123 161 c 256,22,23
 133 161 133 161 139.5 156 c 128,-1,24
 146 151 146 151 152 144 c 0,25,26
 171 102 171 102 206.5 76 c 128,-1,27
 242 50 242 50 287 50 c 0,28,29
 334 50 334 50 368.5 69.5 c 128,-1,30
 403 89 403 89 423 124 c 128,-1,31
 443 159 443 159 443 204 c 2,32,-1
 443 670 l 2,33,34
 443 682 443 682 452 691 c 128,-1,35
 461 700 461 700 475 700 c 256,36,37
 489 700 489 700 497 691 c 128,-1,38
 505 682 505 682 505 670 c 2,39,-1
 505 204 l 2,40,41
 505 142 505 142 477.5 93.5 c 128,-1,42
 450 45 450 45 400.5 17.5 c 128,-1,43
 351 -10 351 -10 287 -10 c 0,14,15
EndSplineSet
EndChar

StartChar: Iogonek
Encoding: 302 302 98
Width: 235
GlyphClass: 2
Flags: W
AnchorPoint: "Anchor-3" 225 10 basechar 0
AnchorPoint: "Anchor-2" 127 0 basechar 0
AnchorPoint: "Anchor-0" 124 700 basechar 0
LayerCount: 2
Fore
SplineSet
101 -190 m 0,0,1
 64 -190 64 -190 34.5 -165 c 128,-1,2
 5 -140 5 -140 5 -95 c 0,3,4
 5 -67 5 -67 14.5 -46 c 128,-1,5
 24 -25 24 -25 40 -9 c 128,-1,6
 56 7 56 7 75 17 c 128,-1,7
 94 27 94 27 114 33 c 1,8,-1
 113 14 l 1,9,-1
 92 24 l 1,10,-1
 92 669 l 2,11,12
 92 682 92 682 101.5 691 c 128,-1,13
 111 700 111 700 125 700 c 0,14,15
 138 700 138 700 147 691 c 128,-1,16
 156 682 156 682 156 669 c 2,17,-1
 156 31 l 2,18,19
 156 21 156 21 151.5 15 c 128,-1,20
 147 9 147 9 135 4 c 0,21,22
 107 -6 107 -6 82.5 -28.5 c 128,-1,23
 58 -51 58 -51 58 -83 c 0,24,25
 58 -110 58 -110 73 -124.5 c 128,-1,26
 88 -139 88 -139 107 -139 c 0,27,28
 124 -139 124 -139 132 -132.5 c 128,-1,29
 140 -126 140 -126 146.5 -119 c 128,-1,30
 153 -112 153 -112 162 -112 c 0,31,32
 172 -112 172 -112 178 -118.5 c 128,-1,33
 184 -125 184 -125 184 -135 c 0,34,35
 184 -149 184 -149 172.5 -162 c 128,-1,36
 161 -175 161 -175 142.5 -182.5 c 128,-1,37
 124 -190 124 -190 101 -190 c 0,0,1
EndSplineSet
EndChar

StartChar: J
Encoding: 74 74 100
Width: 572
GlyphClass: 2
Flags: W
AnchorPoint: "Anchor-2" 286 0 basechar 0
AnchorPoint: "Anchor-0" 447 700 basechar 0
LayerCount: 2
Fore
SplineSet
260 -10 m 0,0,1
 197 -10 197 -10 147 25 c 128,-1,2
 97 60 97 60 71 117 c 0,3,4
 66 126 66 126 66 133 c 0,5,6
 66 146 66 146 76 153.5 c 128,-1,7
 86 161 86 161 96 161 c 256,8,9
 106 161 106 161 112.5 156 c 128,-1,10
 119 151 119 151 124 144 c 0,11,12
 143 102 143 102 179 76 c 128,-1,13
 215 50 215 50 260 50 c 0,14,15
 306 50 306 50 341 69.5 c 128,-1,16
 376 89 376 89 395.5 124 c 128,-1,17
 415 159 415 159 415 204 c 2,18,-1
 415 670 l 2,19,20
 415 682 415 682 424.5 691 c 128,-1,21
 434 700 434 700 447 700 c 0,22,23
 461 700 461 700 469.5 691 c 128,-1,24
 478 682 478 682 478 670 c 2,25,-1
 478 204 l 2,26,27
 478 142 478 142 450 93.5 c 128,-1,28
 422 45 422 45 373 17.5 c 128,-1,29
 324 -10 324 -10 260 -10 c 0,0,1
EndSplineSet
Substitution2: "Single Substitution lookup 21 subtable" uni004A0301
Substitution2: "'aalt' Access All Alternates in Latin lookup 0 subtable" uni004A0301
EndChar

StartChar: K
Encoding: 75 75 103
Width: 675
GlyphClass: 2
Flags: W
AnchorPoint: "Anchor-2" 307 0 basechar 0
AnchorPoint: "Anchor-0" 338 700 basechar 0
LayerCount: 2
Fore
SplineSet
594 -4 m 0,0,1
 581 -4 581 -4 572 7 c 2,2,-1
 288 364 l 1,3,-1
 335 411 l 1,4,-1
 621 49 l 2,5,6
 628 39 628 39 628 28 c 0,7,8
 628 12 628 12 616.5 4 c 128,-1,9
 605 -4 605 -4 594 -4 c 0,0,1
583 698 m 256,10,11
 595 698 595 698 603.5 689 c 128,-1,12
 612 680 612 680 612 669 c 0,13,14
 612 657 612 657 603 648 c 2,15,-1
 149 223 l 1,16,-1
 141 291 l 1,17,-1
 561 688 l 2,18,19
 571 698 571 698 583 698 c 256,10,11
125 0 m 0,20,21
 111 0 111 0 102.5 9 c 128,-1,22
 94 18 94 18 94 31 c 2,23,-1
 94 669 l 2,24,25
 94 682 94 682 103 691 c 128,-1,26
 112 700 112 700 126 700 c 0,27,28
 139 700 139 700 148 691 c 128,-1,29
 157 682 157 682 157 669 c 2,30,-1
 157 31 l 2,31,32
 156 18 156 18 147 9 c 128,-1,33
 138 0 138 0 125 0 c 0,20,21
EndSplineSet
EndChar

StartChar: L
Encoding: 76 76 105
Width: 532
GlyphClass: 2
Flags: W
AnchorPoint: "Anchor-4" 266 350 basechar 0
AnchorPoint: "Anchor-2" 285 0 basechar 0
AnchorPoint: "Anchor-1" 512 700 basechar 0
AnchorPoint: "Anchor-0" 116 700 basechar 0
LayerCount: 2
Fore
SplineSet
481 59 m 2,0,1
 493 59 493 59 502 50.5 c 128,-1,2
 511 42 511 42 511 30 c 0,3,4
 511 17 511 17 502 8.5 c 128,-1,5
 493 0 493 0 481 0 c 2,6,-1
 124 0 l 2,7,8
 111 0 111 0 102.5 9 c 128,-1,9
 94 18 94 18 94 30 c 2,10,-1
 94 670 l 2,11,12
 94 682 94 682 103 691 c 128,-1,13
 112 700 112 700 126 700 c 0,14,15
 138 700 138 700 147.5 691 c 128,-1,16
 157 682 157 682 157 670 c 2,17,-1
 157 42 l 1,18,-1
 138 59 l 1,19,-1
 481 59 l 2,0,1
EndSplineSet
EndChar

StartChar: Lslash
Encoding: 321 321 115
Width: 579
Flags: W
LayerCount: 2
Fore
SplineSet
73 329 m 0,0,1
 59 329 59 329 52.5 337.5 c 128,-1,2
 46 346 46 346 46 356 c 0,3,4
 46 373 46 373 63 381 c 2,5,-1
 287 480 l 2,6,7
 294 483 294 483 301 483 c 0,8,9
 315 483 315 483 321 473 c 128,-1,10
 327 463 327 463 327 455 c 0,11,12
 327 438 327 438 309 430 c 2,13,-1
 85 331 l 2,14,15
 83 330 83 330 79 329.5 c 128,-1,16
 75 329 75 329 73 329 c 0,0,1
201 51 m 1,17,-1
 194 60 l 1,18,-1
 528 60 l 2,19,20
 540 60 540 60 549 51 c 128,-1,21
 558 42 558 42 558 30 c 0,22,23
 558 17 558 17 549 8.5 c 128,-1,24
 540 0 540 0 528 0 c 2,25,-1
 171 0 l 2,26,27
 158 0 158 0 149.5 9 c 128,-1,28
 141 18 141 18 141 30 c 2,29,-1
 141 670 l 2,30,31
 141 682 141 682 150 691 c 128,-1,32
 159 700 159 700 171 700 c 0,33,34
 184 700 184 700 192.5 691 c 128,-1,35
 201 682 201 682 201 670 c 2,36,-1
 201 51 l 1,17,-1
EndSplineSet
EndChar

StartChar: M
Encoding: 77 77 116
Width: 827
GlyphClass: 2
Flags: W
AnchorPoint: "Anchor-2" 414 0 basechar 0
AnchorPoint: "Anchor-0" 414 700 basechar 0
LayerCount: 2
Fore
SplineSet
124 700 m 0,0,1
 131 700 131 700 138.5 697 c 128,-1,2
 146 694 146 694 151 687 c 2,3,-1
 427 273 l 1,4,-1
 400 274 l 1,5,-1
 677 687 l 2,6,7
 688 702 688 702 704 700 c 0,8,9
 716 700 716 700 724.5 691.5 c 128,-1,10
 733 683 733 683 733 670 c 2,11,-1
 733 30 l 2,12,13
 733 18 733 18 724 9 c 128,-1,14
 715 0 715 0 702 0 c 0,15,16
 688 0 688 0 679 9 c 128,-1,17
 670 18 670 18 670 30 c 2,18,-1
 670 609 l 1,19,-1
 688 607 l 1,20,-1
 435 224 l 2,21,22
 432 218 432 218 426 214.5 c 128,-1,23
 420 211 420 211 412 212 c 0,24,25
 405 211 405 211 398.5 214.5 c 128,-1,26
 392 218 392 218 388 224 c 2,27,-1
 134 611 l 1,28,-1
 153 624 l 1,29,-1
 153 30 l 2,30,31
 153 18 153 18 144.5 9 c 128,-1,32
 136 0 136 0 123 0 c 256,33,34
 110 0 110 0 102 9 c 128,-1,35
 94 18 94 18 94 30 c 2,36,-1
 94 670 l 2,37,38
 94 682 94 682 102.5 691 c 128,-1,39
 111 700 111 700 124 700 c 0,0,1
EndSplineSet
EndChar

StartChar: N
Encoding: 78 78 118
Width: 728
GlyphClass: 2
Flags: W
AnchorPoint: "Anchor-2" 364 0 basechar 0
AnchorPoint: "Anchor-0" 364 700 basechar 0
LayerCount: 2
Fore
SplineSet
606 700 m 0,0,1
 619 700 619 700 626.5 692 c 128,-1,2
 634 684 634 684 634 672 c 2,3,-1
 634 32 l 2,4,5
 634 17 634 17 624.5 8.5 c 128,-1,6
 615 0 615 0 603 0 c 0,7,8
 597 0 597 0 590 2.5 c 128,-1,9
 583 5 583 5 579 10 c 2,10,-1
 133 611 l 1,11,-1
 150 620 l 1,12,-1
 150 27 l 2,13,14
 150 16 150 16 142 8 c 128,-1,15
 134 0 134 0 122 0 c 0,16,17
 109 0 109 0 101.5 8 c 128,-1,18
 94 16 94 16 94 27 c 2,19,-1
 94 670 l 2,20,21
 94 685 94 685 103 692.5 c 128,-1,22
 112 700 112 700 123 700 c 0,23,24
 129 700 129 700 136 697.5 c 128,-1,25
 143 695 143 695 147 689 c 2,26,-1
 588 95 l 1,27,-1
 578 77 l 1,28,-1
 578 672 l 2,29,30
 578 684 578 684 586.5 692 c 128,-1,31
 595 700 595 700 606 700 c 0,0,1
EndSplineSet
EndChar

StartChar: uni019D
Encoding: 413 413 126
Width: 728
GlyphClass: 2
Flags: W
AnchorPoint: "Anchor-2" 347 0 basechar 0
AnchorPoint: "Anchor-0" 347 700 basechar 0
LayerCount: 2
Fore
SplineSet
11 -198 m 0,0,1
 -3 -198 -3 -198 -11.5 -190 c 128,-1,2
 -20 -182 -20 -182 -20 -170 c 0,3,4
 -20 -155 -20 -155 -12.5 -147.5 c 128,-1,5
 -5 -140 -5 -140 7 -138 c 0,6,7
 29 -133 29 -133 49 -121 c 128,-1,8
 69 -109 69 -109 81.5 -88 c 128,-1,9
 94 -67 94 -67 94 -37 c 2,10,-1
 94 670 l 2,11,12
 94 685 94 685 103 692.5 c 128,-1,13
 112 700 112 700 123 700 c 0,14,15
 129 700 129 700 136 697.5 c 128,-1,16
 143 695 143 695 147 689 c 2,17,-1
 588 95 l 1,18,-1
 577 77 l 1,19,-1
 577 672 l 2,20,21
 577 684 577 684 585.5 692 c 128,-1,22
 594 700 594 700 606 700 c 256,23,24
 618 700 618 700 626 692 c 128,-1,25
 634 684 634 684 634 672 c 2,26,-1
 634 32 l 2,27,28
 634 17 634 17 624.5 8.5 c 128,-1,29
 615 0 615 0 603 0 c 0,30,31
 597 0 597 0 590 2.5 c 128,-1,32
 583 5 583 5 579 10 c 2,33,-1
 133 611 l 1,34,-1
 151 620 l 1,35,-1
 151 -46 l 2,36,37
 151 -79 151 -79 141 -103.5 c 128,-1,38
 131 -128 131 -128 116 -145 c 128,-1,39
 101 -162 101 -162 82 -173 c 128,-1,40
 63 -184 63 -184 44.5 -189.5 c 128,-1,41
 26 -195 26 -195 11 -198 c 0,0,1
EndSplineSet
EndChar

StartChar: Eng
Encoding: 330 330 130
Width: 748
Flags: W
LayerCount: 2
Fore
SplineSet
478 -200 m 0,0,1
 464 -200 464 -200 455 -192.5 c 128,-1,2
 446 -185 446 -185 446 -172 c 256,3,4
 446 -159 446 -159 454.5 -151 c 128,-1,5
 463 -143 463 -143 476 -142 c 0,6,7
 525 -142 525 -142 550 -129 c 128,-1,8
 575 -116 575 -116 584.5 -92.5 c 128,-1,9
 594 -69 594 -69 594 -38 c 2,10,-1
 595 41 l 1,11,-1
 601 10 l 1,12,-1
 149 592 l 1,13,-1
 154 594 l 1,14,-1
 154 30 l 2,15,16
 154 18 154 18 145 9 c 128,-1,17
 136 0 136 0 124 0 c 0,18,19
 111 0 111 0 102.5 9 c 128,-1,20
 94 18 94 18 94 30 c 2,21,-1
 94 670 l 2,22,23
 94 684 94 684 103 692 c 128,-1,24
 112 700 112 700 125 700 c 0,25,26
 132 700 132 700 139 696 c 128,-1,27
 146 692 146 692 149 687 c 2,28,-1
 603 102 l 1,29,-1
 594 94 l 1,30,-1
 594 667 l 2,31,32
 594 679 594 679 603 688 c 128,-1,33
 612 697 612 697 624 697 c 0,34,35
 637 697 637 697 645.5 688 c 128,-1,36
 654 679 654 679 654 667 c 2,37,-1
 654 44 l 1,38,-1
 654 -36 l 2,39,40
 654 -83 654 -83 636.5 -120.5 c 128,-1,41
 619 -158 619 -158 581 -179 c 128,-1,42
 543 -200 543 -200 478 -200 c 0,0,1
EndSplineSet
EndChar

StartChar: O
Encoding: 79 79 131
Width: 766
GlyphClass: 2
Flags: W
AnchorPoint: "Anchor-4" 383 350 basechar 0
AnchorPoint: "Anchor-3" 689 10 basechar 0
AnchorPoint: "Anchor-2" 383 0 basechar 0
AnchorPoint: "Anchor-1" 388 700 basechar 0
AnchorPoint: "Anchor-0" 383 700 basechar 0
LayerCount: 2
Fore
SplineSet
718 350 m 256,0,1
 718 271 718 271 693.5 205.5 c 128,-1,2
 669 140 669 140 624 91.5 c 128,-1,3
 579 43 579 43 517.5 16.5 c 128,-1,4
 456 -10 456 -10 383 -10 c 256,5,6
 310 -10 310 -10 248.5 16.5 c 128,-1,7
 187 43 187 43 142 91.5 c 128,-1,8
 97 140 97 140 72.5 205.5 c 128,-1,9
 48 271 48 271 48 350 c 256,10,11
 48 429 48 429 72.5 494.5 c 128,-1,12
 97 560 97 560 142 608.5 c 128,-1,13
 187 657 187 657 248.5 683.5 c 128,-1,14
 310 710 310 710 383 710 c 256,15,16
 456 710 456 710 517.5 683.5 c 128,-1,17
 579 657 579 657 624 608.5 c 128,-1,18
 669 560 669 560 693.5 494.5 c 128,-1,19
 718 429 718 429 718 350 c 256,0,1
654 350 m 256,20,21
 654 439 654 439 619.5 506.5 c 128,-1,22
 585 574 585 574 524 612 c 128,-1,23
 463 650 463 650 383 650 c 0,24,25
 304 650 304 650 242.5 612 c 128,-1,26
 181 574 181 574 146.5 506.5 c 128,-1,27
 112 439 112 439 112 350 c 256,28,29
 112 261 112 261 146.5 193.5 c 128,-1,30
 181 126 181 126 242.5 88 c 128,-1,31
 304 50 304 50 383 50 c 0,32,33
 463 50 463 50 524 88 c 128,-1,34
 585 126 585 126 619.5 193.5 c 128,-1,35
 654 261 654 261 654 350 c 256,20,21
EndSplineSet
Substitution2: "Single Substitution lookup 33 subtable" ordmasculine
Substitution2: "'aalt' Access All Alternates in Latin lookup 0 subtable" ordmasculine
EndChar

StartChar: uni01EA
Encoding: 490 490 159
Width: 766
GlyphClass: 2
Flags: W
AnchorPoint: "Anchor-4" 383 350 basechar 0
AnchorPoint: "Anchor-3" 689 10 basechar 0
AnchorPoint: "Anchor-2" 383 0 basechar 0
AnchorPoint: "Anchor-1" 388 700 basechar 0
AnchorPoint: "Anchor-0" 383 700 basechar 0
LayerCount: 2
Fore
SplineSet
424 -190 m 0,0,1
 387 -190 387 -190 357.5 -165 c 128,-1,2
 328 -140 328 -140 328 -95 c 0,3,4
 328 -67 328 -67 338 -46 c 128,-1,5
 348 -25 348 -25 364 -10 c 128,-1,6
 380 5 380 5 399.5 15.5 c 128,-1,7
 419 26 419 26 438 32 c 1,8,-1
 477 3 l 1,9,10
 451 1 451 1 429.5 -11.5 c 128,-1,11
 408 -24 408 -24 394.5 -43 c 128,-1,12
 381 -62 381 -62 381 -83 c 0,13,14
 381 -110 381 -110 396 -124.5 c 128,-1,15
 411 -139 411 -139 430 -139 c 0,16,17
 439 -139 439 -139 445.5 -137.5 c 128,-1,18
 452 -136 452 -136 456 -131 c 0,19,20
 462 -122 462 -122 470 -117 c 128,-1,21
 478 -112 478 -112 485 -112 c 0,22,23
 495 -112 495 -112 501 -118.5 c 128,-1,24
 507 -125 507 -125 507 -135 c 0,25,26
 507 -149 507 -149 495.5 -162 c 128,-1,27
 484 -175 484 -175 465.5 -182.5 c 128,-1,28
 447 -190 447 -190 424 -190 c 0,0,1
718 350 m 256,29,30
 718 271 718 271 693.5 205.5 c 128,-1,31
 669 140 669 140 624 91.5 c 128,-1,32
 579 43 579 43 517.5 16.5 c 128,-1,33
 456 -10 456 -10 383 -10 c 256,34,35
 310 -10 310 -10 248.5 16.5 c 128,-1,36
 187 43 187 43 142 91.5 c 128,-1,37
 97 140 97 140 72.5 205.5 c 128,-1,38
 48 271 48 271 48 350 c 256,39,40
 48 429 48 429 72.5 494.5 c 128,-1,41
 97 560 97 560 142 608.5 c 128,-1,42
 187 657 187 657 248.5 683.5 c 128,-1,43
 310 710 310 710 383 710 c 256,44,45
 456 710 456 710 517.5 683.5 c 128,-1,46
 579 657 579 657 624 608.5 c 128,-1,47
 669 560 669 560 693.5 494.5 c 128,-1,48
 718 429 718 429 718 350 c 256,29,30
654 350 m 256,49,50
 654 439 654 439 619.5 506.5 c 128,-1,51
 585 574 585 574 524 612 c 128,-1,52
 463 650 463 650 383 650 c 0,53,54
 304 650 304 650 242.5 612 c 128,-1,55
 181 574 181 574 146.5 506.5 c 128,-1,56
 112 439 112 439 112 350 c 256,57,58
 112 261 112 261 146.5 193.5 c 128,-1,59
 181 126 181 126 242.5 88 c 128,-1,60
 304 50 304 50 383 50 c 0,61,62
 463 50 463 50 524 88 c 128,-1,63
 585 126 585 126 619.5 193.5 c 128,-1,64
 654 261 654 261 654 350 c 256,49,50
EndSplineSet
EndChar

StartChar: Oslash
Encoding: 216 216 160
Width: 726
GlyphClass: 2
Flags: W
AnchorPoint: "Anchor-4" 383 350 basechar 0
AnchorPoint: "Anchor-3" 689 10 basechar 0
AnchorPoint: "Anchor-2" 363 0 basechar 0
AnchorPoint: "Anchor-1" 388 700 basechar 0
AnchorPoint: "Anchor-0" 363 700 basechar 0
LayerCount: 2
Fore
SplineSet
93 -23 m 256,0,1
 83 -23 83 -23 75.5 -15.5 c 128,-1,2
 68 -8 68 -8 68 3 c 0,3,4
 68 12 68 12 74 21 c 2,5,-1
 647 713 l 2,6,7
 653 721 653 721 659 723.5 c 128,-1,8
 665 726 665 726 673 726 c 0,9,10
 683 726 683 726 691 719.5 c 128,-1,11
 699 713 699 713 699 702 c 256,12,13
 699 691 699 691 691 682 c 2,14,-1
 122 -6 l 2,15,16
 117 -13 117 -13 110 -18 c 128,-1,17
 103 -23 103 -23 93 -23 c 256,0,1
718 350 m 256,18,19
 718 271 718 271 693.5 205.5 c 128,-1,20
 669 140 669 140 624 91.5 c 128,-1,21
 579 43 579 43 517.5 16.5 c 128,-1,22
 456 -10 456 -10 383 -10 c 256,23,24
 310 -10 310 -10 248.5 16.5 c 128,-1,25
 187 43 187 43 142 91.5 c 128,-1,26
 97 140 97 140 72.5 205.5 c 128,-1,27
 48 271 48 271 48 350 c 256,28,29
 48 429 48 429 72.5 494.5 c 128,-1,30
 97 560 97 560 142 608.5 c 128,-1,31
 187 657 187 657 248.5 683.5 c 128,-1,32
 310 710 310 710 383 710 c 256,33,34
 456 710 456 710 517.5 683.5 c 128,-1,35
 579 657 579 657 624 608.5 c 128,-1,36
 669 560 669 560 693.5 494.5 c 128,-1,37
 718 429 718 429 718 350 c 256,18,19
654 350 m 256,38,39
 654 439 654 439 619.5 506.5 c 128,-1,40
 585 574 585 574 524 612 c 128,-1,41
 463 650 463 650 383 650 c 0,42,43
 304 650 304 650 242.5 612 c 128,-1,44
 181 574 181 574 146.5 506.5 c 128,-1,45
 112 439 112 439 112 350 c 256,46,47
 112 261 112 261 146.5 193.5 c 128,-1,48
 181 126 181 126 242.5 88 c 128,-1,49
 304 50 304 50 383 50 c 0,50,51
 463 50 463 50 524 88 c 128,-1,52
 585 126 585 126 619.5 193.5 c 128,-1,53
 654 261 654 261 654 350 c 256,38,39
EndSplineSet
EndChar

StartChar: OE
Encoding: 338 338 166
Width: 990
GlyphClass: 2
Flags: W
AnchorPoint: "Anchor-2" 492 0 basechar 0
AnchorPoint: "Anchor-0" 492 700 basechar 0
LayerCount: 2
Fore
SplineSet
913 60 m 2,0,1
 925 60 925 60 934 51 c 128,-1,2
 943 42 943 42 943 30 c 0,3,4
 943 17 943 17 934 8.5 c 128,-1,5
 925 0 925 0 913 0 c 2,6,-1
 340 0 l 2,7,8
 241 0 241 0 176 47.5 c 128,-1,9
 111 95 111 95 79.5 174.5 c 128,-1,10
 48 254 48 254 48 350 c 0,11,12
 48 419 48 419 65.5 482 c 128,-1,13
 83 545 83 545 119 594.5 c 128,-1,14
 155 644 155 644 210.5 672 c 128,-1,15
 266 700 266 700 340 700 c 2,16,-1
 913 700 l 2,17,18
 925 700 925 700 934 691 c 128,-1,19
 943 682 943 682 943 670 c 0,20,21
 943 657 943 657 934 648.5 c 128,-1,22
 925 640 925 640 913 640 c 2,23,-1
 579 640 l 1,24,-1
 586 648 l 1,25,-1
 586 379 l 1,26,-1
 578 391 l 1,27,-1
 868 391 l 2,28,29
 880 391 880 391 889 382 c 128,-1,30
 898 373 898 373 898 360 c 256,31,32
 898 347 898 347 889 339 c 128,-1,33
 880 331 880 331 868 331 c 2,34,-1
 578 331 l 1,35,-1
 586 340 l 1,36,-1
 586 53 l 1,37,-1
 580 60 l 1,38,-1
 913 60 l 2,0,1
534 60 m 1,39,-1
 525 49 l 1,40,-1
 525 649 l 1,41,-1
 531 640 l 1,42,-1
 348 640 l 2,43,44
 284 640 284 640 239 617 c 128,-1,45
 194 594 194 594 164.5 553.5 c 128,-1,46
 135 513 135 513 121.5 460.5 c 128,-1,47
 108 408 108 408 108 350 c 0,48,49
 108 270 108 270 132.5 204 c 128,-1,50
 157 138 157 138 210.5 99 c 128,-1,51
 264 60 264 60 348 60 c 2,52,-1
 534 60 l 1,39,-1
EndSplineSet
EndChar

StartChar: P
Encoding: 80 80 167
Width: 596
GlyphClass: 2
Flags: W
AnchorPoint: "Anchor-4" 128 168 basechar 0
AnchorPoint: "Anchor-2" 298 0 basechar 0
AnchorPoint: "Anchor-0" 298 700 basechar 0
LayerCount: 2
Fore
SplineSet
361 700 m 2,0,1
 417 700 417 700 460 674.5 c 128,-1,2
 503 649 503 649 528 604 c 128,-1,3
 553 559 553 559 553 501 c 256,4,5
 553 443 553 443 528 396.5 c 128,-1,6
 503 350 503 350 460 323 c 128,-1,7
 417 296 417 296 361 296 c 2,8,-1
 149 296 l 1,9,-1
 154 306 l 1,10,-1
 154 30 l 2,11,12
 154 18 154 18 145 9 c 128,-1,13
 136 0 136 0 124 0 c 0,14,15
 110 0 110 0 102 9 c 128,-1,16
 94 18 94 18 94 30 c 2,17,-1
 94 670 l 2,18,19
 94 682 94 682 103 691 c 128,-1,20
 112 700 112 700 124 700 c 2,21,-1
 361 700 l 2,0,1
361 354 m 2,22,23
 400 354 400 354 429 373.5 c 128,-1,24
 458 393 458 393 474.5 426.5 c 128,-1,25
 491 460 491 460 491 501 c 256,26,27
 491 542 491 542 474.5 573.5 c 128,-1,28
 458 605 458 605 429 623 c 128,-1,29
 400 641 400 641 361 641 c 2,30,-1
 149 641 l 1,31,-1
 154 650 l 1,32,-1
 154 348 l 1,33,-1
 148 354 l 1,34,-1
 361 354 l 2,22,23
EndSplineSet
EndChar

StartChar: Thorn
Encoding: 222 222 168
Width: 588
GlyphClass: 2
Flags: W
AnchorPoint: "Anchor-2" 265 0 basechar 0
AnchorPoint: "Anchor-0" 265 700 basechar 0
LayerCount: 2
Fore
SplineSet
154 30 m 2,0,1
 154 18 154 18 145 9 c 128,-1,2
 136 0 136 0 124 0 c 0,3,4
 110 0 110 0 102 9 c 128,-1,5
 94 18 94 18 94 30 c 2,6,-1
 94 710 l 2,7,8
 94 722 94 722 103 731 c 128,-1,9
 112 740 112 740 124 740 c 0,10,11
 137 740 137 740 145.5 731 c 128,-1,12
 154 722 154 722 154 710 c 2,13,-1
 154 30 l 2,0,1
141 249 m 1,14,-1
 353 249 l 2,15,16
 392 249 392 249 421 268 c 128,-1,17
 450 287 450 287 466.5 320 c 128,-1,18
 483 353 483 353 483 393 c 0,19,20
 483 435 483 435 466.5 466 c 128,-1,21
 450 497 450 497 421 515 c 128,-1,22
 392 533 392 533 353 533 c 2,23,-1
 142 533 l 1,24,-1
 116 593 l 1,25,-1
 353 593 l 2,26,27
 409 593 409 593 452 567.5 c 128,-1,28
 495 542 495 542 519.5 497 c 128,-1,29
 544 452 544 452 544 393 c 0,30,31
 544 336 544 336 519.5 289.5 c 128,-1,32
 495 243 495 243 451.5 216 c 128,-1,33
 408 189 408 189 353 189 c 2,34,-1
 126 189 l 1,35,-1
 141 249 l 1,14,-1
EndSplineSet
EndChar

StartChar: Q
Encoding: 81 81 169
Width: 775
GlyphClass: 2
Flags: W
AnchorPoint: "Anchor-2" 388 0 basechar 0
AnchorPoint: "Anchor-0" 388 700 basechar 0
LayerCount: 2
Fore
SplineSet
766 -56 m 0,0,1
 777 -56 777 -56 785 -63.5 c 128,-1,2
 793 -71 793 -71 793 -83 c 0,3,4
 793 -100 793 -100 775.5 -116 c 128,-1,5
 758 -132 758 -132 729.5 -145.5 c 128,-1,6
 701 -159 701 -159 669.5 -166.5 c 128,-1,7
 638 -174 638 -174 610 -174 c 0,8,9
 551 -174 551 -174 511 -161 c 128,-1,10
 471 -148 471 -148 441 -131 c 128,-1,11
 411 -114 411 -114 380 -101 c 128,-1,12
 349 -88 349 -88 306 -88 c 0,13,14
 288 -88 288 -88 274.5 -94 c 128,-1,15
 261 -100 261 -100 249.5 -105.5 c 128,-1,16
 238 -111 238 -111 225 -111 c 0,17,18
 213 -111 213 -111 204.5 -102 c 128,-1,19
 196 -93 196 -93 196 -80 c 0,20,21
 196 -62 196 -62 213 -55 c 2,22,-1
 385 7 l 1,23,-1
 477 4 l 1,24,-1
 318 -50 l 1,25,-1
 331 -36 l 1,26,27
 373 -36 373 -36 406 -48 c 128,-1,28
 439 -60 439 -60 469.5 -76.5 c 128,-1,29
 500 -93 500 -93 534 -105.5 c 128,-1,30
 568 -118 568 -118 612 -118 c 0,31,32
 651 -118 651 -118 676.5 -106.5 c 128,-1,33
 702 -95 702 -95 718 -86 c 0,34,35
 733 -77 733 -77 743.5 -66.5 c 128,-1,36
 754 -56 754 -56 766 -56 c 0,0,1
718 350 m 256,37,38
 718 271 718 271 693.5 205.5 c 128,-1,39
 669 140 669 140 624 91.5 c 128,-1,40
 579 43 579 43 517.5 16.5 c 128,-1,41
 456 -10 456 -10 383 -10 c 256,42,43
 310 -10 310 -10 248.5 16.5 c 128,-1,44
 187 43 187 43 142 91.5 c 128,-1,45
 97 140 97 140 72.5 205.5 c 128,-1,46
 48 271 48 271 48 350 c 256,47,48
 48 429 48 429 72.5 494.5 c 128,-1,49
 97 560 97 560 142 608.5 c 128,-1,50
 187 657 187 657 248.5 683.5 c 128,-1,51
 310 710 310 710 383 710 c 256,52,53
 456 710 456 710 517.5 683.5 c 128,-1,54
 579 657 579 657 624 608.5 c 128,-1,55
 669 560 669 560 693.5 494.5 c 128,-1,56
 718 429 718 429 718 350 c 256,37,38
654 350 m 256,57,58
 654 439 654 439 619.5 506.5 c 128,-1,59
 585 574 585 574 524 612 c 128,-1,60
 463 650 463 650 383 650 c 0,61,62
 304 650 304 650 242.5 612 c 128,-1,63
 181 574 181 574 146.5 506.5 c 128,-1,64
 112 439 112 439 112 350 c 256,65,66
 112 261 112 261 146.5 193.5 c 128,-1,67
 181 126 181 126 242.5 88 c 128,-1,68
 304 50 304 50 383 50 c 0,69,70
 463 50 463 50 524 88 c 128,-1,71
 585 126 585 126 619.5 193.5 c 128,-1,72
 654 261 654 261 654 350 c 256,57,58
EndSplineSet
EndChar

StartChar: R
Encoding: 82 82 170
Width: 670
GlyphClass: 2
Flags: W
AnchorPoint: "Anchor-2" 331 0 basechar 0
AnchorPoint: "Anchor-0" 331 700 basechar 0
LayerCount: 2
Fore
SplineSet
128 0 m 0,0,1
 113 0 113 0 103.5 9 c 128,-1,2
 94 18 94 18 94 30 c 2,3,-1
 94 670 l 2,4,5
 94 682 94 682 103 691 c 128,-1,6
 112 700 112 700 124 700 c 2,7,-1
 394 700 l 2,8,9
 451 700 451 700 496 675.5 c 128,-1,10
 541 651 541 651 566.5 608 c 128,-1,11
 592 565 592 565 592 511 c 0,12,13
 592 467 592 467 576 430 c 128,-1,14
 560 393 560 393 531 367.5 c 128,-1,15
 502 342 502 342 466 330 c 1,16,-1
 431 341 l 1,17,18
 468 338 468 338 500 317.5 c 128,-1,19
 532 297 532 297 551.5 261.5 c 128,-1,20
 571 226 571 226 572 176 c 0,21,22
 573 133 573 133 576.5 109 c 128,-1,23
 580 85 580 85 587 73 c 128,-1,24
 594 61 594 61 605 54 c 0,25,26
 615 48 615 48 618.5 37 c 128,-1,27
 622 26 622 26 616 16 c 0,28,29
 612 8 612 8 604.5 4.5 c 128,-1,30
 597 1 597 1 589 1 c 128,-1,31
 581 1 581 1 573 5 c 0,32,33
 559 13 559 13 544.5 30 c 128,-1,34
 530 47 530 47 520.5 80 c 128,-1,35
 511 113 511 113 511 172 c 0,36,37
 511 211 511 211 498.5 236 c 128,-1,38
 486 261 486 261 466.5 274.5 c 128,-1,39
 447 288 447 288 423.5 293.5 c 128,-1,40
 400 299 400 299 379 299 c 2,41,-1
 146 299 l 1,42,-1
 157 313 l 1,43,-1
 157 30 l 2,44,45
 157 18 157 18 149 9 c 128,-1,46
 141 0 141 0 128 0 c 0,0,1
146 354 m 1,47,-1
 397 354 l 2,48,49
 431 357 431 357 461 376.5 c 128,-1,50
 491 396 491 396 509.5 430 c 128,-1,51
 528 464 528 464 528 509 c 0,52,53
 528 566 528 566 489.5 603.5 c 128,-1,54
 451 641 451 641 389 641 c 2,55,-1
 150 641 l 1,56,-1
 157 655 l 1,57,-1
 157 340 l 1,58,-1
 146 354 l 1,47,-1
EndSplineSet
EndChar

StartChar: S
Encoding: 83 83 178
Width: 562
GlyphClass: 2
Flags: W
AnchorPoint: "Anchor-2" 281 0 basechar 0
AnchorPoint: "Anchor-0" 281 700 basechar 0
LayerCount: 2
Fore
SplineSet
287 -10 m 0,0,1
 211 -11 211 -11 155 14 c 128,-1,2
 99 39 99 39 48 89 c 0,3,4
 43 93 43 93 39.5 99 c 128,-1,5
 36 105 36 105 36 113 c 0,6,7
 36 125 36 125 45.5 135 c 128,-1,8
 55 145 55 145 67 145 c 256,9,10
 79 145 79 145 89 135 c 0,11,12
 128 93 128 93 177.5 71 c 128,-1,13
 227 49 227 49 284 49 c 0,14,15
 332 49 332 49 369.5 64 c 128,-1,16
 407 79 407 79 429 107 c 128,-1,17
 451 135 451 135 451 172 c 0,18,19
 451 218 451 218 426 246.5 c 128,-1,20
 401 275 401 275 360 293.5 c 128,-1,21
 319 312 319 312 269 327 c 0,22,23
 228 339 228 339 191 354.5 c 128,-1,24
 154 370 154 370 125 392.5 c 128,-1,25
 96 415 96 415 80 448 c 128,-1,26
 64 481 64 481 64 528 c 0,27,28
 64 581 64 581 92 622 c 128,-1,29
 120 663 120 663 171.5 686.5 c 128,-1,30
 223 710 223 710 291 710 c 0,31,32
 350 710 350 710 404.5 690 c 128,-1,33
 459 670 459 670 491 631 c 0,34,35
 506 615 506 615 506 602 c 0,36,37
 506 592 506 592 496 582 c 128,-1,38
 486 572 486 572 474 572 c 0,39,40
 464 572 464 572 457 579 c 0,41,42
 440 600 440 600 414 616.5 c 128,-1,43
 388 633 388 633 356.5 642 c 128,-1,44
 325 651 325 651 291 651 c 0,45,46
 244 651 244 651 206.5 636.5 c 128,-1,47
 169 622 169 622 147.5 595 c 128,-1,48
 126 568 126 568 126 530 c 0,49,50
 126 488 126 488 150 461 c 128,-1,51
 174 434 174 434 213 416.5 c 128,-1,52
 252 399 252 399 296 384 c 0,53,54
 339 372 339 372 378.5 356.5 c 128,-1,55
 418 341 418 341 448.5 318 c 128,-1,56
 479 295 479 295 496.5 260 c 128,-1,57
 514 225 514 225 514 172 c 0,58,59
 514 121 514 121 485 80 c 128,-1,60
 456 39 456 39 405.5 15 c 128,-1,61
 355 -9 355 -9 287 -10 c 0,0,1
EndSplineSet
EndChar

StartChar: uni1E9E
Encoding: 7838 7838 189
Width: 706
Flags: W
LayerCount: 2
Fore
SplineSet
461 -10 m 0,0,1
 425 -10 425 -10 393.5 -0.5 c 128,-1,2
 362 9 362 9 335.5 28 c 128,-1,3
 309 47 309 47 287 75 c 0,4,5
 286 77 286 77 282 84.5 c 128,-1,6
 278 92 278 92 278 101 c 0,7,8
 278 113 278 113 287 123 c 128,-1,9
 296 133 296 133 309 133 c 0,10,11
 314 133 314 133 320.5 130.5 c 128,-1,12
 327 128 327 128 332 122 c 0,13,14
 356 90 356 90 389.5 70 c 128,-1,15
 423 50 423 50 457 50 c 0,16,17
 495 50 495 50 525.5 64.5 c 128,-1,18
 556 79 556 79 574.5 105.5 c 128,-1,19
 593 132 593 132 593 167 c 0,20,21
 591 207 591 207 573 233 c 128,-1,22
 555 259 555 259 527.5 277 c 128,-1,23
 500 295 500 295 469 311 c 0,24,25
 437 330 437 330 407 350.5 c 128,-1,26
 377 371 377 371 358 403 c 128,-1,27
 339 435 339 435 339 483 c 0,28,29
 339 520 339 520 354.5 549.5 c 128,-1,30
 370 579 370 579 398 600.5 c 128,-1,31
 426 622 426 622 465 634.5 c 128,-1,32
 504 647 504 647 552 650 c 1,33,-1
 567 620 l 1,34,35
 547 637 547 637 520.5 648.5 c 128,-1,36
 494 660 494 660 463.5 666 c 128,-1,37
 433 672 433 672 396 672 c 0,38,39
 332 672 332 672 286.5 655 c 128,-1,40
 241 638 241 638 212.5 607 c 128,-1,41
 184 576 184 576 171 535.5 c 128,-1,42
 158 495 158 495 158 450 c 2,43,-1
 156 33 l 2,44,45
 156 19 156 19 148 11 c 128,-1,46
 140 3 140 3 125 3 c 256,47,48
 110 3 110 3 102 11 c 128,-1,49
 94 19 94 19 94 33 c 2,50,-1
 96 441 l 2,51,52
 96 495 96 495 111.5 545.5 c 128,-1,53
 127 596 127 596 162.5 637 c 128,-1,54
 198 678 198 678 255 702 c 128,-1,55
 312 726 312 726 393 726 c 0,56,57
 450 726 450 726 501 712 c 128,-1,58
 552 698 552 698 585 676 c 0,59,60
 613 659 613 659 613 638 c 0,61,62
 613 628 613 628 607.5 623 c 128,-1,63
 602 618 602 618 593.5 615.5 c 128,-1,64
 585 613 585 613 574 611 c 0,65,66
 519 603 519 603 481 587 c 128,-1,67
 443 571 443 571 423.5 547.5 c 128,-1,68
 404 524 404 524 404 493 c 0,69,70
 404 460 404 460 418.5 438 c 128,-1,71
 433 416 433 416 457 400 c 128,-1,72
 481 384 481 384 508 370 c 0,73,74
 534 356 534 356 560 340.5 c 128,-1,75
 586 325 586 325 608.5 303 c 128,-1,76
 631 281 631 281 644 249 c 128,-1,77
 657 217 657 217 657 170 c 0,78,79
 657 122 657 122 632 81.5 c 128,-1,80
 607 41 607 41 563 16 c 128,-1,81
 519 -9 519 -9 461 -10 c 0,0,1
EndSplineSet
EndChar

StartChar: uni018F
Encoding: 399 399 190
Width: 759
Flags: W
LayerCount: 2
Fore
SplineSet
379 -10 m 0,0,1
 315 -10 315 -10 256 15.5 c 128,-1,2
 197 41 197 41 151 86.5 c 128,-1,3
 105 132 105 132 77.5 193 c 128,-1,4
 50 254 50 254 48 326 c 2,5,-1
 48 345 l 2,6,7
 48 360 48 360 58 368 c 128,-1,8
 68 376 68 376 81 376 c 2,9,-1
 677 376 l 1,10,-1
 682 316 l 1,11,-1
 111 316 l 1,12,13
 115 261 115 261 138 212.5 c 128,-1,14
 161 164 161 164 198 127.5 c 128,-1,15
 235 91 235 91 281 70.5 c 128,-1,16
 327 50 327 50 379 50 c 0,17,18
 433 50 433 50 481.5 72 c 128,-1,19
 530 94 530 94 567 134 c 128,-1,20
 604 174 604 174 625.5 228.5 c 128,-1,21
 647 283 647 283 647 349 c 0,22,23
 647 416 647 416 625.5 471 c 128,-1,24
 604 526 604 526 567 566 c 128,-1,25
 530 606 530 606 481.5 628 c 128,-1,26
 433 650 433 650 378 650 c 0,27,28
 303 650 303 650 246 624 c 128,-1,29
 189 598 189 598 143 542 c 0,30,31
 134 534 134 534 123.5 532.5 c 128,-1,32
 113 531 113 531 103 538 c 0,33,34
 92 546 92 546 90.5 559.5 c 128,-1,35
 89 573 89 573 99 583 c 0,36,37
 153 647 153 647 220.5 678.5 c 128,-1,38
 288 710 288 710 378 710 c 0,39,40
 447 710 447 710 507.5 682 c 128,-1,41
 568 654 568 654 613.5 604.5 c 128,-1,42
 659 555 659 555 685 490 c 128,-1,43
 711 425 711 425 711 350 c 256,44,45
 711 275 711 275 685.5 210 c 128,-1,46
 660 145 660 145 614 95.5 c 128,-1,47
 568 46 568 46 508 18 c 128,-1,48
 448 -10 448 -10 379 -10 c 0,0,1
EndSplineSet
EndChar

StartChar: T
Encoding: 84 84 191
Width: 604
GlyphClass: 2
Flags: W
AnchorPoint: "Anchor-4" 302 350 basechar 0
AnchorPoint: "Anchor-2" 302 0 basechar 0
AnchorPoint: "Anchor-0" 302 700 basechar 0
LayerCount: 2
Fore
SplineSet
302 0 m 0,0,1
 288 0 288 0 279.5 9 c 128,-1,2
 271 18 271 18 271 30 c 2,3,-1
 271 667 l 1,4,-1
 333 667 l 1,5,-1
 333 30 l 2,6,7
 333 18 333 18 324 9 c 128,-1,8
 315 0 315 0 302 0 c 0,0,1
64 643 m 2,9,10
 52 643 52 643 43 651 c 128,-1,11
 34 659 34 659 34 672 c 0,12,13
 34 684 34 684 43 692 c 128,-1,14
 52 700 52 700 64 700 c 2,15,-1
 540 700 l 2,16,17
 552 700 552 700 561 692 c 128,-1,18
 570 684 570 684 570 671 c 256,19,20
 570 658 570 658 561 650.5 c 128,-1,21
 552 643 552 643 540 643 c 2,22,-1
 64 643 l 2,9,10
EndSplineSet
EndChar

StartChar: U
Encoding: 85 85 199
Width: 713
GlyphClass: 2
Flags: W
AnchorPoint: "Anchor-3" 641 10 basechar 0
AnchorPoint: "Anchor-2" 357 0 basechar 0
AnchorPoint: "Anchor-1" 512 701 basechar 0
AnchorPoint: "Anchor-0" 357 700 basechar 0
LayerCount: 2
Fore
SplineSet
589 700 m 0,0,1
 603 700 603 700 611 691.5 c 128,-1,2
 619 683 619 683 619 670 c 2,3,-1
 619 256 l 2,4,5
 619 182 619 182 584 122 c 128,-1,6
 549 62 549 62 490 26.5 c 128,-1,7
 431 -9 431 -9 357 -9 c 256,8,9
 283 -9 283 -9 223.5 26.5 c 128,-1,10
 164 62 164 62 129 122 c 128,-1,11
 94 182 94 182 94 256 c 2,12,-1
 94 670 l 2,13,14
 94 683 94 683 102.5 691.5 c 128,-1,15
 111 700 111 700 126 700 c 0,16,17
 138 700 138 700 147 691.5 c 128,-1,18
 156 683 156 683 156 670 c 2,19,-1
 156 256 l 2,20,21
 156 198 156 198 183.5 152 c 128,-1,22
 211 106 211 106 257 78.5 c 128,-1,23
 303 51 303 51 357 51 c 0,24,25
 413 51 413 51 459 78.5 c 128,-1,26
 505 106 505 106 532.5 152 c 128,-1,27
 560 198 560 198 560 256 c 2,28,-1
 560 670 l 2,29,30
 560 683 560 683 568 691.5 c 128,-1,31
 576 700 576 700 589 700 c 0,0,1
EndSplineSet
EndChar

StartChar: Uogonek
Encoding: 370 370 219
Width: 713
GlyphClass: 2
Flags: W
AnchorPoint: "Anchor-3" 641 10 basechar 0
AnchorPoint: "Anchor-2" 357 0 basechar 0
AnchorPoint: "Anchor-1" 693 700 basechar 0
AnchorPoint: "Anchor-0" 357 700 basechar 0
LayerCount: 2
Fore
SplineSet
432 -190 m 0,0,1
 395 -190 395 -190 365.5 -165 c 128,-1,2
 336 -140 336 -140 336 -95 c 0,3,4
 336 -67 336 -67 346.5 -45 c 128,-1,5
 357 -23 357 -23 373.5 -6.5 c 128,-1,6
 390 10 390 10 410 21 c 128,-1,7
 430 32 430 32 449 38 c 1,8,-1
 395 -6 l 1,9,10
 386 -7 386 -7 376.5 -8 c 128,-1,11
 367 -9 367 -9 357 -9 c 0,12,13
 283 -9 283 -9 223.5 26.5 c 128,-1,14
 164 62 164 62 129 122 c 128,-1,15
 94 182 94 182 94 256 c 2,16,-1
 94 670 l 2,17,18
 94 683 94 683 102.5 691.5 c 128,-1,19
 111 700 111 700 126 700 c 0,20,21
 139 700 139 700 147.5 691.5 c 128,-1,22
 156 683 156 683 156 670 c 2,23,-1
 156 256 l 2,24,25
 156 198 156 198 183.5 152 c 128,-1,26
 211 106 211 106 257 78.5 c 128,-1,27
 303 51 303 51 357 51 c 0,28,29
 414 51 414 51 460 78.5 c 128,-1,30
 506 106 506 106 533 152 c 128,-1,31
 560 198 560 198 560 256 c 2,32,-1
 560 670 l 2,33,34
 560 683 560 683 568.5 691.5 c 128,-1,35
 577 700 577 700 589 700 c 0,36,37
 603 700 603 700 611 691.5 c 128,-1,38
 619 683 619 683 619 670 c 2,39,-1
 619 256 l 2,40,41
 619 209 619 209 604 164.5 c 128,-1,42
 589 120 589 120 560 84 c 128,-1,43
 531 48 531 48 489 27 c 0,44,45
 469 16 469 16 445.5 1.5 c 128,-1,46
 422 -13 422 -13 405.5 -33 c 128,-1,47
 389 -53 389 -53 389 -83 c 0,48,49
 389 -110 389 -110 404.5 -124.5 c 128,-1,50
 420 -139 420 -139 438 -139 c 0,51,52
 460 -139 460 -139 467 -129 c 0,53,54
 473 -120 473 -120 479.5 -116 c 128,-1,55
 486 -112 486 -112 493 -112 c 0,56,57
 503 -112 503 -112 509 -118.5 c 128,-1,58
 515 -125 515 -125 515 -135 c 0,59,60
 515 -149 515 -149 504 -162 c 128,-1,61
 493 -175 493 -175 474 -182.5 c 128,-1,62
 455 -190 455 -190 432 -190 c 0,0,1
EndSplineSet
EndChar

StartChar: V
Encoding: 86 86 223
Width: 665
GlyphClass: 2
Flags: W
AnchorPoint: "Anchor-2" 332 0 basechar 0
AnchorPoint: "Anchor-0" 332 700 basechar 0
LayerCount: 2
Fore
SplineSet
600 701 m 0,0,1
 614 701 614 701 622.5 693 c 128,-1,2
 631 685 631 685 631 673 c 0,3,4
 631 666 631 666 628 658 c 2,5,-1
 361 20 l 2,6,7
 356 10 356 10 348 5 c 128,-1,8
 340 0 340 0 332 0 c 0,9,10
 323 0 323 0 315 5 c 128,-1,11
 307 10 307 10 304 19 c 2,12,-1
 38 656 l 2,13,14
 37 659 37 659 36 663 c 128,-1,15
 35 667 35 667 35 672 c 0,16,17
 35 685 35 685 44.5 693 c 128,-1,18
 54 701 54 701 64 701 c 0,19,20
 85 701 85 701 94 679 c 2,21,-1
 344 81 l 1,22,-1
 326 81 l 1,23,-1
 572 681 l 2,24,25
 582 701 582 701 600 701 c 0,0,1
EndSplineSet
EndChar

StartChar: W
Encoding: 87 87 224
Width: 966
GlyphClass: 2
Flags: W
AnchorPoint: "Anchor-2" 483 0 basechar 0
AnchorPoint: "Anchor-0" 483 700 basechar 0
LayerCount: 2
Fore
SplineSet
904 702 m 0,0,1
 917 702 917 702 926.5 694.5 c 128,-1,2
 936 687 936 687 936 672 c 0,3,4
 936 667 936 667 934 659 c 2,5,-1
 713 19 l 2,6,7
 710 10 710 10 702 5 c 128,-1,8
 694 0 694 0 686 0 c 0,9,10
 676 0 676 0 668 4.5 c 128,-1,11
 660 9 660 9 656 19 c 2,12,-1
 479 457 l 1,13,-1
 487 455 l 1,14,-1
 310 19 l 2,15,16
 306 9 306 9 297.5 4.5 c 128,-1,17
 289 0 289 0 280 0 c 0,18,19
 272 0 272 0 264.5 5 c 128,-1,20
 257 10 257 10 254 19 c 2,21,-1
 33 659 l 2,22,23
 30 667 30 667 30 671 c 0,24,25
 30 686 30 686 41 694 c 128,-1,26
 52 702 52 702 63 702 c 0,27,28
 73 702 73 702 81 697 c 128,-1,29
 89 692 89 692 92 683 c 2,30,-1
 293 97 l 1,31,-1
 282 96 l 1,32,-1
 456 530 l 2,33,34
 459 539 459 539 466.5 544.5 c 128,-1,35
 474 550 474 550 484 549 c 0,36,37
 494 550 494 550 501.5 544.5 c 128,-1,38
 509 539 509 539 513 530 c 2,39,-1
 685 98 l 1,40,-1
 674 94 l 1,41,-1
 874 683 l 2,42,43
 877 692 877 692 885 697 c 128,-1,44
 893 702 893 702 904 702 c 0,0,1
EndSplineSet
EndChar

StartChar: X
Encoding: 88 88 229
Width: 606
GlyphClass: 2
Flags: W
AnchorPoint: "Anchor-2" 303 0 basechar 0
AnchorPoint: "Anchor-0" 303 700 basechar 0
LayerCount: 2
Fore
SplineSet
543 703 m 0,0,1
 555 703 555 703 563.5 695.5 c 128,-1,2
 572 688 572 688 572 677 c 0,3,4
 572 667 572 667 565 658 c 2,5,-1
 335 345 l 1,6,-1
 302 394 l 1,7,-1
 519 690 l 2,8,9
 529 703 529 703 543 703 c 0,0,1
65 703 m 0,10,11
 81 703 81 703 90 691 c 2,12,-1
 565 45 l 2,13,14
 572 36 572 36 572 27 c 0,15,16
 572 13 572 13 562 5 c 128,-1,17
 552 -3 552 -3 541 -3 c 0,18,19
 525 -3 525 -3 517 9 c 2,20,-1
 41 655 l 2,21,22
 34 663 34 663 34 673 c 0,23,24
 34 686 34 686 43.5 694.5 c 128,-1,25
 53 703 53 703 65 703 c 0,10,11
62 -3 m 0,26,27
 49 -3 49 -3 42 5.5 c 128,-1,28
 35 14 35 14 35 23 c 256,29,30
 35 32 35 32 42 43 c 2,31,-1
 272 356 l 1,32,-1
 304 306 l 1,33,-1
 86 10 l 2,34,35
 77 -3 77 -3 62 -3 c 0,26,27
EndSplineSet
EndChar

StartChar: Y
Encoding: 89 89 230
Width: 559
GlyphClass: 2
Flags: W
AnchorPoint: "Anchor-2" 281 0 basechar 0
AnchorPoint: "Anchor-0" 280 700 basechar 0
LayerCount: 2
Fore
SplineSet
511 704 m 0,0,1
 524 704 524 704 532.5 694.5 c 128,-1,2
 541 685 541 685 541 674 c 0,3,4
 541 669 541 669 539.5 664.5 c 128,-1,5
 538 660 538 660 535 655 c 2,6,-1
 300 332 l 1,7,-1
 312 371 l 1,8,-1
 312 30 l 2,9,10
 312 18 312 18 303 9 c 128,-1,11
 294 0 294 0 281 0 c 256,12,13
 268 0 268 0 259.5 9 c 128,-1,14
 251 18 251 18 251 30 c 2,15,-1
 251 364 l 1,16,-1
 256 340 l 1,17,-1
 27 653 l 2,18,19
 23 658 23 658 21 663.5 c 128,-1,20
 19 669 19 669 19 674 c 0,21,22
 19 687 19 687 29.5 695.5 c 128,-1,23
 40 704 40 704 51 704 c 0,24,25
 66 704 66 704 76 690 c 2,26,-1
 291 397 l 1,27,-1
 276 399 l 1,28,-1
 485 690 l 2,29,30
 495 704 495 704 511 704 c 0,0,1
EndSplineSet
EndChar

StartChar: Z
Encoding: 90 90 240
Width: 644
GlyphClass: 2
Flags: W
AnchorPoint: "Anchor-2" 323 0 basechar 0
AnchorPoint: "Anchor-0" 323 700 basechar 0
LayerCount: 2
Fore
SplineSet
565 700 m 2,0,1
 580 700 580 700 589 691 c 128,-1,2
 598 682 598 682 598 670 c 0,3,4
 598 660 598 660 592 652 c 2,5,-1
 137 49 l 1,6,-1
 135 57 l 1,7,-1
 564 57 l 2,8,9
 576 57 576 57 585 49 c 128,-1,10
 594 41 594 41 594 29 c 256,11,12
 594 17 594 17 585 8.5 c 128,-1,13
 576 0 576 0 564 0 c 2,14,-1
 85 0 l 2,15,16
 71 0 71 0 62.5 10 c 128,-1,17
 54 20 54 20 54 31 c 0,18,19
 54 41 54 41 60 49 c 2,20,-1
 513 647 l 1,21,-1
 519 643 l 1,22,-1
 110 643 l 2,23,24
 97 643 97 643 88.5 651.5 c 128,-1,25
 80 660 80 660 80 672 c 256,26,27
 80 684 80 684 88.5 692 c 128,-1,28
 97 700 97 700 110 700 c 2,29,-1
 565 700 l 2,0,1
EndSplineSet
EndChar

StartChar: a
Encoding: 97 97 245
Width: 606
GlyphClass: 2
Flags: W
AnchorPoint: "Anchor-3" 545 8 basechar 0
AnchorPoint: "Anchor-2" 291 0 basechar 0
AnchorPoint: "Anchor-0" 296 503 basechar 0
LayerCount: 2
Fore
SplineSet
498 511 m 256,0,1
 511 511 511 511 519.5 502 c 128,-1,2
 528 493 528 493 528 480 c 2,3,-1
 528 30 l 2,4,5
 528 18 528 18 519 9 c 128,-1,6
 510 0 510 0 498 0 c 0,7,8
 485 0 485 0 476.5 9 c 128,-1,9
 468 18 468 18 468 30 c 2,10,-1
 468 149 l 1,11,-1
 485 157 l 1,12,13
 485 129 485 129 469.5 100 c 128,-1,14
 454 71 454 71 427 46 c 128,-1,15
 400 21 400 21 363.5 5.5 c 128,-1,16
 327 -10 327 -10 285 -10 c 0,17,18
 217 -10 217 -10 163.5 25 c 128,-1,19
 110 60 110 60 79.5 121 c 128,-1,20
 49 182 49 182 49 258 c 0,21,22
 49 336 49 336 80 395.5 c 128,-1,23
 111 455 111 455 164 489 c 128,-1,24
 217 523 217 523 284 523 c 0,25,26
 327 523 327 523 364.5 508 c 128,-1,27
 402 493 402 493 430 467 c 128,-1,28
 458 441 458 441 473.5 407.5 c 128,-1,29
 489 374 489 374 489 338 c 1,30,-1
 468 353 l 1,31,-1
 468 480 l 2,32,33
 468 493 468 493 476.5 502 c 128,-1,34
 485 511 485 511 498 511 c 256,0,1
290 46 m 256,35,36
 343 46 343 46 384 73.5 c 128,-1,37
 425 101 425 101 448.5 149.5 c 128,-1,38
 472 198 472 198 472 258 c 0,39,40
 472 317 472 317 448.5 364 c 128,-1,41
 425 411 425 411 384 439 c 128,-1,42
 343 467 343 467 290 467 c 0,43,44
 238 467 238 467 196.5 440 c 128,-1,45
 155 413 155 413 131.5 366 c 128,-1,46
 108 319 108 319 108 258 c 0,47,48
 108 198 108 198 131.5 149.5 c 128,-1,49
 155 101 155 101 196 73.5 c 128,-1,50
 237 46 237 46 290 46 c 256,35,36
EndSplineSet
Substitution2: "'ss01' Style Set 1 in Latin lookup 39 subtable" a.ss01
Substitution2: "Single Substitution lookup 33 subtable" ordfeminine
AlternateSubs2: "'aalt' Access All Alternates in Latin lookup 1 subtable" a.ss01 ordfeminine
EndChar

StartChar: aogonek
Encoding: 261 261 267
Width: 605
GlyphClass: 2
Flags: W
AnchorPoint: "Anchor-3" 545 8 basechar 0
AnchorPoint: "Anchor-2" 306 0 basechar 0
AnchorPoint: "Anchor-0" 306 503 basechar 0
LayerCount: 2
Fore
SplineSet
290 46 m 256,0,1
 343 46 343 46 384 73.5 c 128,-1,2
 425 101 425 101 448.5 149.5 c 128,-1,3
 472 198 472 198 472 258 c 0,4,5
 472 317 472 317 448.5 364 c 128,-1,6
 425 411 425 411 384 439 c 128,-1,7
 343 467 343 467 290 467 c 0,8,9
 238 467 238 467 196.5 440 c 128,-1,10
 155 413 155 413 131.5 366 c 128,-1,11
 108 319 108 319 108 258 c 0,12,13
 108 198 108 198 131.5 149.5 c 128,-1,14
 155 101 155 101 196 73.5 c 128,-1,15
 237 46 237 46 290 46 c 256,0,1
473 -193 m 0,16,17
 436 -193 436 -193 406.5 -167.5 c 128,-1,18
 377 -142 377 -142 377 -97 c 0,19,20
 377 -70 377 -70 387 -49 c 128,-1,21
 397 -28 397 -28 413 -14 c 128,-1,22
 429 0 429 0 448.5 10 c 128,-1,23
 468 20 468 20 487 26 c 1,24,-1
 468 6 l 1,25,-1
 468 149 l 1,26,-1
 485 157 l 1,27,28
 485 129 485 129 469.5 100 c 128,-1,29
 454 71 454 71 427 46 c 128,-1,30
 400 21 400 21 363.5 5.5 c 128,-1,31
 327 -10 327 -10 285 -10 c 0,32,33
 217 -10 217 -10 163.5 25 c 128,-1,34
 110 60 110 60 79.5 121 c 128,-1,35
 49 182 49 182 49 258 c 0,36,37
 49 336 49 336 80 395.5 c 128,-1,38
 111 455 111 455 164 489 c 128,-1,39
 217 523 217 523 284 523 c 0,40,41
 327 523 327 523 364.5 508 c 128,-1,42
 402 493 402 493 430 467 c 128,-1,43
 458 441 458 441 473.5 407.5 c 128,-1,44
 489 374 489 374 489 338 c 1,45,-1
 468 353 l 1,46,-1
 468 480 l 2,47,48
 468 493 468 493 476.5 502 c 128,-1,49
 485 511 485 511 498 511 c 256,50,51
 511 511 511 511 519.5 502 c 128,-1,52
 528 493 528 493 528 480 c 2,53,-1
 528 21 l 2,54,55
 528 14 528 14 522.5 5.5 c 128,-1,56
 517 -3 517 -3 500 -9 c 0,57,58
 471 -18 471 -18 450.5 -39 c 128,-1,59
 430 -60 430 -60 430 -86 c 0,60,61
 430 -113 430 -113 445 -127.5 c 128,-1,62
 460 -142 460 -142 479 -142 c 0,63,64
 489 -142 489 -142 496.5 -139.5 c 128,-1,65
 504 -137 504 -137 508 -130 c 0,66,67
 514 -123 514 -123 520.5 -119 c 128,-1,68
 527 -115 527 -115 534 -115 c 0,69,70
 544 -115 544 -115 550 -121.5 c 128,-1,71
 556 -128 556 -128 556 -137 c 0,72,73
 556 -151 556 -151 544.5 -164 c 128,-1,74
 533 -177 533 -177 514.5 -185 c 128,-1,75
 496 -193 496 -193 473 -193 c 0,16,17
EndSplineSet
Substitution2: "'ss01' Style Set 1 in Latin lookup 39 subtable" aogonek.ss01
Substitution2: "'aalt' Access All Alternates in Latin lookup 0 subtable" aogonek.ss01
EndChar

StartChar: ae
Encoding: 230 230 271
Width: 903
GlyphClass: 2
Flags: W
AnchorPoint: "Anchor-3" 847 10 basechar 0
AnchorPoint: "Anchor-2" 413 0 basechar 0
AnchorPoint: "Anchor-0" 451 515 basechar 0
LayerCount: 2
Fore
SplineSet
271 523 m 0,0,1
 304 523 304 523 335 516 c 128,-1,2
 366 509 366 509 391 493.5 c 128,-1,3
 416 478 416 478 430.5 452 c 128,-1,4
 445 426 445 426 445 388 c 2,5,-1
 445 256 l 1,6,-1
 390 253 l 1,7,-1
 390 365 l 2,8,9
 390 408 390 408 371 429.5 c 128,-1,10
 352 451 352 451 324.5 459 c 128,-1,11
 297 467 297 467 270 467 c 0,12,13
 236 467 236 467 205 454 c 128,-1,14
 174 441 174 441 149 421.5 c 128,-1,15
 124 402 124 402 109 380 c 0,16,17
 99 368 99 368 85 368 c 0,18,19
 75 368 75 368 67.5 375.5 c 128,-1,20
 60 383 60 383 60 394 c 0,21,22
 60 398 60 398 61.5 403 c 128,-1,23
 63 408 63 408 66 413 c 0,24,25
 87 440 87 440 118 465 c 128,-1,26
 149 490 149 490 188.5 506.5 c 128,-1,27
 228 523 228 523 271 523 c 0,0,1
210 -10 m 0,28,29
 172 -10 172 -10 135.5 6.5 c 128,-1,30
 99 23 99 23 74.5 56.5 c 128,-1,31
 50 90 50 90 50 141 c 0,32,33
 50 196 50 196 83.5 233.5 c 128,-1,34
 117 271 117 271 178.5 290.5 c 128,-1,35
 240 310 240 310 323 310 c 2,36,-1
 803 310 l 1,37,-1
 791 298 l 1,38,-1
 791 318 l 1,39,40
 787 365 787 365 761 398 c 128,-1,41
 735 431 735 431 698 448 c 128,-1,42
 661 465 661 465 621 465 c 0,43,44
 591 465 591 465 560 453 c 128,-1,45
 529 441 529 441 503 415.5 c 128,-1,46
 477 390 477 390 461 350.5 c 128,-1,47
 445 311 445 311 445 257 c 0,48,49
 445 198 445 198 469 150 c 128,-1,50
 493 102 493 102 538.5 74 c 128,-1,51
 584 46 584 46 647 46 c 0,52,53
 682 46 682 46 710 56 c 128,-1,54
 738 66 738 66 759.5 82.5 c 128,-1,55
 781 99 781 99 795 117 c 0,56,57
 805 126 805 126 816 126 c 256,58,59
 827 126 827 126 834 118 c 128,-1,60
 841 110 841 110 841 100 c 0,61,62
 841 88 841 88 831 79 c 0,63,64
 802 43 802 43 753.5 16.5 c 128,-1,65
 705 -10 705 -10 649 -10 c 0,66,67
 571 -10 571 -10 512 23 c 128,-1,68
 453 56 453 56 420 115 c 128,-1,69
 387 174 387 174 387 253 c 0,70,71
 387 338 387 338 421 398 c 128,-1,72
 455 458 455 458 508 490.5 c 128,-1,73
 561 523 561 523 621 523 c 0,74,75
 665 523 665 523 706.5 507.5 c 128,-1,76
 748 492 748 492 780.5 461.5 c 128,-1,77
 813 431 813 431 832.5 387 c 128,-1,78
 852 343 852 343 854 285 c 0,79,80
 854 273 854 273 845 264.5 c 128,-1,81
 836 256 836 256 824 256 c 2,82,-1
 321 256 l 2,83,84
 257 256 257 256 209.5 243 c 128,-1,85
 162 230 162 230 136 204 c 128,-1,86
 110 178 110 178 110 141 c 0,87,88
 110 109 110 109 126 88 c 128,-1,89
 142 67 142 67 166.5 56.5 c 128,-1,90
 191 46 191 46 214 46 c 0,91,92
 258 46 258 46 296.5 65.5 c 128,-1,93
 335 85 335 85 363.5 112.5 c 128,-1,94
 392 140 392 140 403 163 c 1,95,-1
 433 119 l 1,96,97
 416 93 416 93 385.5 63 c 128,-1,98
 355 33 355 33 311.5 11.5 c 128,-1,99
 268 -10 268 -10 210 -10 c 0,28,29
EndSplineSet
EndChar

StartChar: b
Encoding: 98 98 273
Width: 606
GlyphClass: 2
Flags: W
AnchorPoint: "Anchor-2" 302 0 basechar 0
AnchorPoint: "Anchor-0" 302 503 basechar 0
LayerCount: 2
Fore
SplineSet
322 523 m 0,0,1
 390 523 390 523 442.5 489 c 128,-1,2
 495 455 495 455 526 395.5 c 128,-1,3
 557 336 557 336 557 258 c 0,4,5
 557 182 557 182 526 121 c 128,-1,6
 495 60 495 60 442 25 c 128,-1,7
 389 -10 389 -10 323 -10 c 0,8,9
 288 -10 288 -10 256.5 1 c 128,-1,10
 225 12 225 12 199 30.5 c 128,-1,11
 173 49 173 49 153 74 c 128,-1,12
 133 99 133 99 121 128 c 1,13,-1
 139 141 l 1,14,-1
 139 28 l 2,15,16
 139 15 139 15 130.5 6.5 c 128,-1,17
 122 -2 122 -2 109 -2 c 256,18,19
 96 -2 96 -2 87.5 6.5 c 128,-1,20
 79 15 79 15 79 28 c 2,21,-1
 79 709 l 2,22,23
 79 722 79 722 87 730.5 c 128,-1,24
 95 739 95 739 109 739 c 0,25,26
 122 739 122 739 130.5 730.5 c 128,-1,27
 139 722 139 722 139 709 c 2,28,-1
 139 374 l 1,29,-1
 125 382 l 1,30,31
 135 413 135 413 154.5 438.5 c 128,-1,32
 174 464 174 464 200 483 c 128,-1,33
 226 502 226 502 257 512.5 c 128,-1,34
 288 523 288 523 322 523 c 0,0,1
317 467 m 0,35,36
 263 467 263 467 222 440 c 128,-1,37
 181 413 181 413 157.5 366 c 128,-1,38
 134 319 134 319 134 258 c 0,39,40
 134 198 134 198 157.5 149.5 c 128,-1,41
 181 101 181 101 222 73.5 c 128,-1,42
 263 46 263 46 317 46 c 0,43,44
 370 46 370 46 410.5 74 c 128,-1,45
 451 102 451 102 475 150.5 c 128,-1,46
 499 199 499 199 499 258 c 0,47,48
 499 319 499 319 475 366 c 128,-1,49
 451 413 451 413 410.5 440 c 128,-1,50
 370 467 370 467 317 467 c 0,35,36
EndSplineSet
EndChar

StartChar: c
Encoding: 99 99 274
Width: 518
GlyphClass: 2
Flags: W
AnchorPoint: "Anchor-2" 262 0 basechar 0
AnchorPoint: "Anchor-0" 302 503 basechar 0
LayerCount: 2
Fore
SplineSet
304 523 m 0,0,1
 352 523 352 523 392 512.5 c 128,-1,2
 432 502 432 502 456.5 484 c 128,-1,3
 481 466 481 466 481 445 c 0,4,5
 481 435 481 435 474 425.5 c 128,-1,6
 467 416 467 416 455 416 c 256,7,8
 443 416 443 416 435.5 422 c 128,-1,9
 428 428 428 428 420.5 436 c 128,-1,10
 413 444 413 444 399 451 c 0,11,12
 386 457 386 457 362 462 c 128,-1,13
 338 467 338 467 307 467 c 0,14,15
 251 467 251 467 206 439 c 128,-1,16
 161 411 161 411 135 363.5 c 128,-1,17
 109 316 109 316 109 257 c 0,18,19
 109 197 109 197 134 149 c 128,-1,20
 159 101 159 101 203 73.5 c 128,-1,21
 247 46 247 46 306 46 c 0,22,23
 346 46 346 46 368 53 c 128,-1,24
 390 60 390 60 406 69 c 0,25,26
 425 80 425 80 433.5 90.5 c 128,-1,27
 442 101 442 101 456 101 c 0,28,29
 469 101 469 101 475.5 93.5 c 128,-1,30
 482 86 482 86 482 74 c 0,31,32
 482 58 482 58 458.5 38.5 c 128,-1,33
 435 19 435 19 394 4.5 c 128,-1,34
 353 -10 353 -10 300 -10 c 0,35,36
 225 -10 225 -10 168.5 25 c 128,-1,37
 112 60 112 60 80.5 120.5 c 128,-1,38
 49 181 49 181 49 257 c 0,39,40
 49 330 49 330 81 390 c 128,-1,41
 113 450 113 450 170.5 486.5 c 128,-1,42
 228 523 228 523 304 523 c 0,0,1
EndSplineSet
EndChar

StartChar: d
Encoding: 100 100 281
Width: 606
GlyphClass: 2
Flags: W
AnchorPoint: "Anchor-4" 474 614 basechar 0
AnchorPoint: "Anchor-2" 306 0 basechar 0
AnchorPoint: "Anchor-1" 586 503 basechar 0
AnchorPoint: "Anchor-0" 306 503 basechar 0
LayerCount: 2
Fore
SplineSet
498 740 m 256,0,1
 511 740 511 740 519.5 731.5 c 128,-1,2
 528 723 528 723 528 710 c 2,3,-1
 528 30 l 2,4,5
 528 18 528 18 519 9 c 128,-1,6
 510 0 510 0 498 0 c 0,7,8
 485 0 485 0 476.5 9 c 128,-1,9
 468 18 468 18 468 30 c 2,10,-1
 468 149 l 1,11,-1
 485 163 l 1,12,13
 485 135 485 135 470 104.5 c 128,-1,14
 455 74 455 74 427.5 48 c 128,-1,15
 400 22 400 22 363.5 6 c 128,-1,16
 327 -10 327 -10 285 -10 c 0,17,18
 218 -10 218 -10 164.5 25 c 128,-1,19
 111 60 111 60 80 120 c 128,-1,20
 49 180 49 180 49 257 c 0,21,22
 49 333 49 333 80 393.5 c 128,-1,23
 111 454 111 454 164 488.5 c 128,-1,24
 217 523 217 523 284 523 c 0,25,26
 325 523 325 523 362 508 c 128,-1,27
 399 493 399 493 427.5 467 c 128,-1,28
 456 441 456 441 472.5 407.5 c 128,-1,29
 489 374 489 374 489 338 c 1,30,-1
 468 353 l 1,31,-1
 468 710 l 2,32,33
 468 722 468 722 476.5 731 c 128,-1,34
 485 740 485 740 498 740 c 256,0,1
290 46 m 0,35,36
 344 46 344 46 384.5 73.5 c 128,-1,37
 425 101 425 101 448.5 148.5 c 128,-1,38
 472 196 472 196 472 257 c 0,39,40
 472 317 472 317 448.5 364.5 c 128,-1,41
 425 412 425 412 384 439.5 c 128,-1,42
 343 467 343 467 290 467 c 0,43,44
 238 467 238 467 196.5 439.5 c 128,-1,45
 155 412 155 412 131.5 364.5 c 128,-1,46
 108 317 108 317 108 257 c 256,47,48
 108 197 108 197 131.5 149 c 128,-1,49
 155 101 155 101 196.5 73.5 c 128,-1,50
 238 46 238 46 290 46 c 0,35,36
EndSplineSet
EndChar

StartChar: eth
Encoding: 240 240 282
Width: 573
Flags: W
LayerCount: 2
Fore
SplineSet
286 -3 m 0,0,1
 221 -3 221 -3 167 33 c 128,-1,2
 113 69 113 69 81 129 c 128,-1,3
 49 189 49 189 49 261 c 0,4,5
 49 315 49 315 67.5 361.5 c 128,-1,6
 86 408 86 408 118.5 443.5 c 128,-1,7
 151 479 151 479 193.5 498.5 c 128,-1,8
 236 518 236 518 282 518 c 0,9,10
 336 518 336 518 375 495 c 128,-1,11
 414 472 414 472 439.5 435.5 c 128,-1,12
 465 399 465 399 478 357 c 1,13,-1
 449 372 l 1,14,15
 442 428 442 428 423.5 478 c 128,-1,16
 405 528 405 528 374.5 569.5 c 128,-1,17
 344 611 344 611 300 639.5 c 128,-1,18
 256 668 256 668 197 680 c 0,19,20
 186 683 186 683 179 690.5 c 128,-1,21
 172 698 172 698 172 709 c 0,22,23
 172 722 172 722 178.5 731 c 128,-1,24
 185 740 185 740 198 740 c 0,25,26
 206 740 206 740 211 738 c 0,27,28
 281 723 281 723 333.5 685.5 c 128,-1,29
 386 648 386 648 422.5 597.5 c 128,-1,30
 459 547 459 547 481.5 491.5 c 128,-1,31
 504 436 504 436 514 382 c 128,-1,32
 524 328 524 328 524 284 c 0,33,34
 524 199 524 199 492 134 c 128,-1,35
 460 69 460 69 406.5 33 c 128,-1,36
 353 -3 353 -3 286 -3 c 0,0,1
286 55 m 0,37,38
 336 55 336 55 376 83.5 c 128,-1,39
 416 112 416 112 440 159 c 128,-1,40
 464 206 464 206 464 261 c 0,41,42
 464 314 464 314 440.5 359 c 128,-1,43
 417 404 417 404 376.5 432 c 128,-1,44
 336 460 336 460 286 460 c 0,45,46
 237 460 237 460 196.5 433.5 c 128,-1,47
 156 407 156 407 132.5 362 c 128,-1,48
 109 317 109 317 109 261 c 0,49,50
 109 206 109 206 133 159 c 128,-1,51
 157 112 157 112 197.5 83.5 c 128,-1,52
 238 55 238 55 286 55 c 0,37,38
222 547 m 2,53,54
 210 544 210 544 200 547.5 c 128,-1,55
 190 551 190 551 187 562 c 0,56,57
 184 574 184 574 189.5 582.5 c 128,-1,58
 195 591 195 591 206 594 c 2,59,-1
 315 631 l 1,60,-1
 357 646 l 1,61,-1
 457 679 l 2,62,63
 468 683 468 683 478 679 c 128,-1,64
 488 675 488 675 491 664 c 0,65,66
 495 652 495 652 489.5 643.5 c 128,-1,67
 484 635 484 635 472 632 c 2,68,-1
 393 605 l 1,69,-1
 358 592 l 1,70,-1
 222 547 l 2,53,54
EndSplineSet
EndChar

StartChar: e
Encoding: 101 101 289
Width: 565
GlyphClass: 2
Flags: W
AnchorPoint: "Anchor-3" 505 10 basechar 0
AnchorPoint: "Anchor-2" 282 0 basechar 0
AnchorPoint: "Anchor-0" 287 503 basechar 0
LayerCount: 2
Fore
SplineSet
310 -10 m 0,0,1
 233 -10 233 -10 174 23 c 128,-1,2
 115 56 115 56 82 115 c 128,-1,3
 49 174 49 174 49 253 c 0,4,5
 49 338 49 338 82.5 398 c 128,-1,6
 116 458 116 458 169.5 490.5 c 128,-1,7
 223 523 223 523 283 523 c 0,8,9
 327 523 327 523 368.5 507.5 c 128,-1,10
 410 492 410 492 442.5 461.5 c 128,-1,11
 475 431 475 431 494.5 387 c 128,-1,12
 514 343 514 343 516 285 c 0,13,14
 515 273 515 273 506 264.5 c 128,-1,15
 497 256 497 256 485 256 c 2,16,-1
 84 256 l 1,17,-1
 72 310 l 1,18,-1
 466 310 l 1,19,-1
 453 298 l 1,20,-1
 453 318 l 1,21,22
 449 365 449 365 423 398 c 128,-1,23
 397 431 397 431 360 448 c 128,-1,24
 323 465 323 465 283 465 c 0,25,26
 253 465 253 465 221.5 453 c 128,-1,27
 190 441 190 441 164.5 415.5 c 128,-1,28
 139 390 139 390 123 350.5 c 128,-1,29
 107 311 107 311 107 257 c 0,30,31
 107 198 107 198 131 150 c 128,-1,32
 155 102 155 102 200.5 74 c 128,-1,33
 246 46 246 46 309 46 c 0,34,35
 344 46 344 46 372 56 c 128,-1,36
 400 66 400 66 421 82.5 c 128,-1,37
 442 99 442 99 456 117 c 0,38,39
 467 126 467 126 478 126 c 0,40,41
 488 126 488 126 495.5 118 c 128,-1,42
 503 110 503 110 503 100 c 0,43,44
 503 88 503 88 493 79 c 0,45,46
 463 43 463 43 415 16.5 c 128,-1,47
 367 -10 367 -10 310 -10 c 0,0,1
EndSplineSet
EndChar

StartChar: eogonek
Encoding: 281 281 310
Width: 565
GlyphClass: 2
Flags: W
AnchorPoint: "Anchor-3" 505 10 basechar 0
AnchorPoint: "Anchor-2" 282 0 basechar 0
AnchorPoint: "Anchor-0" 284 503 basechar 0
LayerCount: 2
Fore
SplineSet
422 -190 m 0,0,1
 397 -190 397 -190 374.5 -178.5 c 128,-1,2
 352 -167 352 -167 337.5 -146 c 128,-1,3
 323 -125 323 -125 323 -95 c 0,4,5
 323 -71 323 -71 331 -52 c 128,-1,6
 339 -33 339 -33 352.5 -18 c 128,-1,7
 366 -3 366 -3 383.5 9 c 128,-1,8
 401 21 401 21 421 31 c 1,9,-1
 403 11 l 1,10,11
 383 2 383 2 359 -4 c 128,-1,12
 335 -10 335 -10 310 -10 c 0,13,14
 233 -10 233 -10 174 23 c 128,-1,15
 115 56 115 56 82 115 c 128,-1,16
 49 174 49 174 49 253 c 0,17,18
 49 338 49 338 82.5 398 c 128,-1,19
 116 458 116 458 169.5 490.5 c 128,-1,20
 223 523 223 523 283 523 c 0,21,22
 327 523 327 523 368.5 507.5 c 128,-1,23
 410 492 410 492 442.5 461.5 c 128,-1,24
 475 431 475 431 494.5 387 c 128,-1,25
 514 343 514 343 516 285 c 0,26,27
 515 273 515 273 506 264.5 c 128,-1,28
 497 256 497 256 485 256 c 2,29,-1
 82 256 l 1,30,-1
 77 310 l 1,31,-1
 467 310 l 1,32,-1
 453 295 l 1,33,-1
 453 318 l 1,34,35
 449 365 449 365 423 398 c 128,-1,36
 397 431 397 431 360 448 c 128,-1,37
 323 465 323 465 283 465 c 0,38,39
 237 465 237 465 197 442 c 128,-1,40
 157 419 157 419 132 372.5 c 128,-1,41
 107 326 107 326 107 257 c 0,42,43
 107 198 107 198 131 150 c 128,-1,44
 155 102 155 102 200.5 74 c 128,-1,45
 246 46 246 46 309 46 c 0,46,47
 344 46 344 46 372 56 c 128,-1,48
 400 66 400 66 421 82.5 c 128,-1,49
 442 99 442 99 456 117 c 0,50,51
 467 126 467 126 478 126 c 256,52,53
 489 126 489 126 496.5 117.5 c 128,-1,54
 504 109 504 109 504 99 c 0,55,56
 504 94 504 94 502 89 c 128,-1,57
 500 84 500 84 494 79 c 0,58,59
 466 47 466 47 439 22 c 128,-1,60
 412 -3 412 -3 394 -27.5 c 128,-1,61
 376 -52 376 -52 376 -85 c 0,62,63
 376 -109 376 -109 391 -124 c 128,-1,64
 406 -139 406 -139 428 -139 c 0,65,66
 449 -139 449 -139 458 -128 c 0,67,68
 464 -120 464 -120 470.5 -116 c 128,-1,69
 477 -112 477 -112 484 -112 c 0,70,71
 494 -112 494 -112 500 -118 c 128,-1,72
 506 -124 506 -124 506 -135 c 256,73,74
 506 -146 506 -146 493 -159 c 128,-1,75
 480 -172 480 -172 461 -181 c 128,-1,76
 442 -190 442 -190 422 -190 c 0,0,1
EndSplineSet
EndChar

StartChar: uni0259
Encoding: 601 601 312
Width: 565
Flags: W
LayerCount: 2
Fore
SplineSet
254 523 m 0,0,1
 332 523 332 523 391 490 c 128,-1,2
 450 457 450 457 483 398 c 128,-1,3
 516 339 516 339 516 260 c 0,4,5
 516 176 516 176 482.5 115 c 128,-1,6
 449 54 449 54 395.5 22 c 128,-1,7
 342 -10 342 -10 282 -10 c 0,8,9
 238 -10 238 -10 196.5 5.5 c 128,-1,10
 155 21 155 21 122.5 51.5 c 128,-1,11
 90 82 90 82 70.5 126 c 128,-1,12
 51 170 51 170 49 227 c 0,13,14
 50 239 50 239 58.5 248 c 128,-1,15
 67 257 67 257 79 257 c 2,16,-1
 481 257 l 1,17,-1
 493 203 l 1,18,-1
 99 203 l 1,19,-1
 112 215 l 1,20,-1
 112 195 l 1,21,22
 117 148 117 148 142.5 115 c 128,-1,23
 168 82 168 82 205.5 65 c 128,-1,24
 243 48 243 48 282 48 c 0,25,26
 312 48 312 48 343 60 c 128,-1,27
 374 72 374 72 400 97.5 c 128,-1,28
 426 123 426 123 442 162.5 c 128,-1,29
 458 202 458 202 458 256 c 0,30,31
 458 315 458 315 434 362.5 c 128,-1,32
 410 410 410 410 364.5 438.5 c 128,-1,33
 319 467 319 467 256 467 c 0,34,35
 222 467 222 467 193.5 456.5 c 128,-1,36
 165 446 165 446 143.5 430 c 128,-1,37
 122 414 122 414 108 396 c 0,38,39
 99 387 99 387 87 387 c 0,40,41
 76 387 76 387 69 395 c 128,-1,42
 62 403 62 403 62 413 c 0,43,44
 62 425 62 425 72 434 c 0,45,46
 101 470 101 470 149.5 496.5 c 128,-1,47
 198 523 198 523 254 523 c 0,0,1
EndSplineSet
EndChar

StartChar: f
Encoding: 102 102 313
Width: 360
GlyphClass: 2
Flags: W
AnchorPoint: "Anchor-2" 177 0 basechar 0
AnchorPoint: "Anchor-0" 177 503 basechar 0
LayerCount: 2
Fore
SplineSet
264 736 m 0,0,1
 279 736 279 736 296.5 733 c 128,-1,2
 314 730 314 730 327 722.5 c 128,-1,3
 340 715 340 715 340 700 c 0,4,5
 340 689 340 689 332 680.5 c 128,-1,6
 324 672 324 672 314 672 c 256,7,8
 304 672 304 672 289 677.5 c 128,-1,9
 274 683 274 683 257 683 c 0,10,11
 236 683 236 683 221 673.5 c 128,-1,12
 206 664 206 664 198 646.5 c 128,-1,13
 190 629 190 629 190 604 c 2,14,-1
 190 30 l 2,15,16
 190 18 190 18 181.5 9 c 128,-1,17
 173 0 173 0 160 0 c 256,18,19
 147 0 147 0 138.5 9 c 128,-1,20
 130 18 130 18 130 30 c 2,21,-1
 130 604 l 2,22,23
 130 668 130 668 167.5 702 c 128,-1,24
 205 736 205 736 264 736 c 0,0,1
302 501 m 2,25,26
 314 501 314 501 322 493 c 128,-1,27
 330 485 330 485 330 473 c 256,28,29
 330 461 330 461 322 453 c 128,-1,30
 314 445 314 445 302 445 c 2,31,-1
 57 445 l 2,32,33
 46 445 46 445 37.5 453.5 c 128,-1,34
 29 462 29 462 29 473 c 0,35,36
 29 486 29 486 37.5 493.5 c 128,-1,37
 46 501 46 501 57 501 c 2,38,-1
 302 501 l 2,25,26
EndSplineSet
EndChar

StartChar: g
Encoding: 103 103 314
Width: 624
GlyphClass: 2
Flags: W
AnchorPoint: "Anchor-2" 315 0 basechar 0
AnchorPoint: "Anchor-0" 315 503 basechar 0
LayerCount: 2
Fore
SplineSet
292 523 m 0,0,1
 337 523 337 523 375 507.5 c 128,-1,2
 413 492 413 492 441.5 467.5 c 128,-1,3
 470 443 470 443 486 415.5 c 128,-1,4
 502 388 502 388 502 363 c 1,5,-1
 485 387 l 1,6,-1
 485 480 l 2,7,8
 485 493 485 493 493.5 502 c 128,-1,9
 502 511 502 511 515 511 c 0,10,11
 529 511 529 511 537 502 c 128,-1,12
 545 493 545 493 545 480 c 2,13,-1
 545 47 l 2,14,15
 545 -33 545 -33 512 -88 c 128,-1,16
 479 -143 479 -143 422.5 -171.5 c 128,-1,17
 366 -200 366 -200 294 -200 c 0,18,19
 259 -200 259 -200 220.5 -191 c 128,-1,20
 182 -182 182 -182 154.5 -168 c 128,-1,21
 127 -154 127 -154 124 -139 c 1,22,23
 116 -130 116 -130 116.5 -121.5 c 128,-1,24
 117 -113 117 -113 125 -107 c 0,25,26
 135 -100 135 -100 146 -105.5 c 128,-1,27
 157 -111 157 -111 179 -120 c 0,28,29
 189 -123 189 -123 206 -129 c 128,-1,30
 223 -135 223 -135 246.5 -139.5 c 128,-1,31
 270 -144 270 -144 296 -144 c 0,32,33
 386 -144 386 -144 435.5 -92.5 c 128,-1,34
 485 -41 485 -41 485 43 c 2,35,-1
 485 139 l 1,36,-1
 496 136 l 1,37,38
 487 100 487 100 466.5 73 c 128,-1,39
 446 46 446 46 418 27.5 c 128,-1,40
 390 9 390 9 357.5 -0.5 c 128,-1,41
 325 -10 325 -10 293 -10 c 0,42,43
 224 -10 224 -10 169 25 c 128,-1,44
 114 60 114 60 81.5 120 c 128,-1,45
 49 180 49 180 49 257 c 0,46,47
 49 333 49 333 81.5 393.5 c 128,-1,48
 114 454 114 454 168.5 488.5 c 128,-1,49
 223 523 223 523 292 523 c 0,0,1
299 467 m 256,50,51
 244 467 244 467 200.5 439.5 c 128,-1,52
 157 412 157 412 132.5 364.5 c 128,-1,53
 108 317 108 317 108 257 c 256,54,55
 108 197 108 197 132.5 149 c 128,-1,56
 157 101 157 101 200.5 73.5 c 128,-1,57
 244 46 244 46 299 46 c 256,58,59
 354 46 354 46 397 73 c 128,-1,60
 440 100 440 100 465 147.5 c 128,-1,61
 490 195 490 195 490 257 c 256,62,63
 490 319 490 319 465 366.5 c 128,-1,64
 440 414 440 414 397 440.5 c 128,-1,65
 354 467 354 467 299 467 c 256,50,51
EndSplineSet
Substitution2: "'ss01' Style Set 1 in Latin lookup 39 subtable" g.ss01
Substitution2: "'aalt' Access All Alternates in Latin lookup 0 subtable" g.ss01
EndChar

StartChar: h
Encoding: 104 104 321
Width: 568
GlyphClass: 2
Flags: W
AnchorPoint: "Anchor-4" 122 590 basechar 0
AnchorPoint: "Anchor-2" 284 0 basechar 0
AnchorPoint: "Anchor-0" 109 710 basechar 0
LayerCount: 2
Fore
SplineSet
312 515 m 0,0,1
 375 515 375 515 414 488 c 128,-1,2
 453 461 453 461 471.5 415 c 128,-1,3
 490 369 490 369 490 313 c 2,4,-1
 490 30 l 2,5,6
 490 18 490 18 481 9 c 128,-1,7
 472 0 472 0 460 0 c 0,8,9
 446 0 446 0 438 9 c 128,-1,10
 430 18 430 18 430 30 c 2,11,-1
 430 313 l 2,12,13
 430 354 430 354 417.5 387 c 128,-1,14
 405 420 405 420 377 439.5 c 128,-1,15
 349 459 349 459 302 459 c 0,16,17
 260 459 260 459 222.5 439.5 c 128,-1,18
 185 420 185 420 162 387 c 128,-1,19
 139 354 139 354 139 313 c 2,20,-1
 139 30 l 2,21,22
 139 18 139 18 130 9 c 128,-1,23
 121 0 121 0 109 0 c 0,24,25
 95 0 95 0 87 9 c 128,-1,26
 79 18 79 18 79 30 c 2,27,-1
 79 710 l 2,28,29
 79 722 79 722 87.5 731 c 128,-1,30
 96 740 96 740 109 740 c 256,31,32
 122 740 122 740 130.5 731 c 128,-1,33
 139 722 139 722 139 710 c 2,34,-1
 139 386 l 1,35,-1
 116 351 l 1,36,37
 118 382 118 382 135.5 411.5 c 128,-1,38
 153 441 153 441 181 464.5 c 128,-1,39
 209 488 209 488 243 501.5 c 128,-1,40
 277 515 277 515 312 515 c 0,0,1
EndSplineSet
EndChar

StartChar: dotlessi
Encoding: 305 305 327
Width: 214
GlyphClass: 2
Flags: W
AnchorPoint: "Anchor-3" 177 10 basechar 0
AnchorPoint: "Anchor-2" 107 0 basechar 0
AnchorPoint: "Anchor-0" 107 503 basechar 0
LayerCount: 2
Fore
SplineSet
137 30 m 2,0,1
 137 18 137 18 128 9 c 128,-1,2
 119 0 119 0 107 0 c 0,3,4
 94 0 94 0 85.5 9 c 128,-1,5
 77 18 77 18 77 30 c 2,6,-1
 77 490 l 2,7,8
 77 502 77 502 85.5 511 c 128,-1,9
 94 520 94 520 107 520 c 256,10,11
 120 520 120 520 128.5 511 c 128,-1,12
 137 502 137 502 137 490 c 2,13,-1
 137 30 l 2,0,1
EndSplineSet
EndChar

StartChar: iogonek
Encoding: 303 303 342
Width: 214
GlyphClass: 2
Flags: W
AnchorPoint: "Anchor-3" 177 10 basechar 0
AnchorPoint: "Anchor-2" 109 0 basechar 0
AnchorPoint: "Anchor-0" 107 503 basechar 0
LayerCount: 2
Fore
SplineSet
81 -190 m 0,0,1
 44 -190 44 -190 14.5 -165 c 128,-1,2
 -15 -140 -15 -140 -15 -95 c 0,3,4
 -15 -67 -15 -67 -5 -47 c 128,-1,5
 5 -27 5 -27 23 -12.5 c 128,-1,6
 41 2 41 2 62.5 11.5 c 128,-1,7
 84 21 84 21 106 28 c 1,8,-1
 77 8 l 1,9,-1
 77 490 l 2,10,11
 77 502 77 502 85.5 511 c 128,-1,12
 94 520 94 520 107 520 c 256,13,14
 120 520 120 520 128.5 511 c 128,-1,15
 137 502 137 502 137 490 c 2,16,-1
 137 37 l 2,17,18
 137 21 137 21 127 10.5 c 128,-1,19
 117 0 117 0 102.5 -8.5 c 128,-1,20
 88 -17 88 -17 73 -26.5 c 128,-1,21
 58 -36 58 -36 48 -49 c 128,-1,22
 38 -62 38 -62 38 -83 c 0,23,24
 38 -110 38 -110 53 -124.5 c 128,-1,25
 68 -139 68 -139 87 -139 c 0,26,27
 96 -139 96 -139 102.5 -137.5 c 128,-1,28
 109 -136 109 -136 113 -131 c 0,29,30
 120 -122 120 -122 127.5 -117 c 128,-1,31
 135 -112 135 -112 142 -112 c 0,32,33
 152 -112 152 -112 158 -118.5 c 128,-1,34
 164 -125 164 -125 164 -135 c 0,35,36
 164 -149 164 -149 152.5 -162 c 128,-1,37
 141 -175 141 -175 122.5 -182.5 c 128,-1,38
 104 -190 104 -190 81 -190 c 0,0,1
107 587 m 0,39,40
 86 587 86 587 75.5 596.5 c 128,-1,41
 65 606 65 606 65 624 c 2,42,-1
 65 635 l 2,43,44
 65 652 65 652 76.5 661.5 c 128,-1,45
 88 671 88 671 108 671 c 0,46,47
 127 671 127 671 137.5 661.5 c 128,-1,48
 148 652 148 652 148 635 c 2,49,-1
 148 624 l 2,50,51
 148 606 148 606 137 596.5 c 128,-1,52
 126 587 126 587 107 587 c 0,39,40
EndSplineSet
EndChar

StartChar: uni0237
Encoding: 567 567 345
Width: 241
GlyphClass: 2
Flags: W
AnchorPoint: "Anchor-2" 126 0 basechar 0
AnchorPoint: "Anchor-0" 122 504 basechar 0
LayerCount: 2
Fore
SplineSet
152 -46 m 2,0,1
 152 -94 152 -94 129.5 -127.5 c 128,-1,2
 107 -161 107 -161 74 -179 c 128,-1,3
 41 -197 41 -197 8 -197 c 0,4,5
 -5 -197 -5 -197 -12.5 -189 c 128,-1,6
 -20 -181 -20 -181 -20 -170 c 2,7,-1
 -20 -166 l 2,8,9
 -20 -154 -20 -154 -12 -147 c 128,-1,10
 -4 -140 -4 -140 6 -138 c 0,11,12
 29 -133 29 -133 48.5 -121 c 128,-1,13
 68 -109 68 -109 80 -88 c 128,-1,14
 92 -67 92 -67 92 -37 c 2,15,-1
 92 479 l 2,16,17
 92 491 92 491 100.5 500 c 128,-1,18
 109 509 109 509 122 509 c 256,19,20
 135 509 135 509 143.5 500 c 128,-1,21
 152 491 152 491 152 479 c 2,22,-1
 152 -46 l 2,0,1
EndSplineSet
EndChar

StartChar: k
Encoding: 107 107 348
Width: 535
GlyphClass: 2
Flags: W
AnchorPoint: "Anchor-2" 268 0 basechar 0
AnchorPoint: "Anchor-0" 268 503 basechar 0
LayerCount: 2
Fore
SplineSet
115 0 m 256,0,1
 102 0 102 0 93.5 9 c 128,-1,2
 85 18 85 18 85 30 c 2,3,-1
 85 710 l 2,4,5
 85 722 85 722 93.5 731 c 128,-1,6
 102 740 102 740 115 740 c 256,7,8
 128 740 128 740 136.5 731 c 128,-1,9
 145 722 145 722 145 710 c 2,10,-1
 145 30 l 2,11,12
 145 18 145 18 136.5 9 c 128,-1,13
 128 0 128 0 115 0 c 256,0,1
455 513 m 0,14,15
 466 513 466 513 475 503.5 c 128,-1,16
 484 494 484 494 484 483 c 0,17,18
 484 470 484 470 473 460 c 2,19,-1
 137 174 l 1,20,-1
 134 245 l 1,21,-1
 434 503 l 2,22,23
 443 513 443 513 455 513 c 0,14,15
463 0 m 0,24,25
 450 0 450 0 441 11 c 2,26,-1
 213 253 l 1,27,-1
 258 294 l 1,28,-1
 484 53 l 2,29,30
 493 43 493 43 493 30 c 0,31,32
 493 16 493 16 482 8 c 128,-1,33
 471 0 471 0 463 0 c 0,24,25
EndSplineSet
EndChar

StartChar: kgreenlandic
Encoding: 312 312 350
Width: 535
GlyphClass: 2
Flags: W
AnchorPoint: "Anchor-2" 300 0 basechar 0
AnchorPoint: "Anchor-0" 300 503 basechar 0
LayerCount: 2
Fore
SplineSet
115 0 m 256,0,1
 102 0 102 0 93.5 9 c 128,-1,2
 85 18 85 18 85 30 c 2,3,-1
 85 478 l 2,4,5
 85 490 85 490 93.5 499 c 128,-1,6
 102 508 102 508 115 508 c 256,7,8
 128 508 128 508 136.5 499 c 128,-1,9
 145 490 145 490 145 478 c 2,10,-1
 145 30 l 2,11,12
 145 18 145 18 136.5 9 c 128,-1,13
 128 0 128 0 115 0 c 256,0,1
455 513 m 0,14,15
 466 513 466 513 475 503.5 c 128,-1,16
 484 494 484 494 484 483 c 0,17,18
 484 470 484 470 473 460 c 2,19,-1
 137 174 l 1,20,-1
 134 245 l 1,21,-1
 434 503 l 2,22,23
 443 513 443 513 455 513 c 0,14,15
463 0 m 0,24,25
 450 0 450 0 441 11 c 2,26,-1
 213 253 l 1,27,-1
 258 294 l 1,28,-1
 484 53 l 2,29,30
 493 43 493 43 493 30 c 0,31,32
 493 15 493 15 481 7.5 c 128,-1,33
 469 0 469 0 463 0 c 0,24,25
EndSplineSet
EndChar

StartChar: l
Encoding: 108 108 351
Width: 230
GlyphClass: 2
Flags: W
AnchorPoint: "Anchor-4" 115 339 basechar 0
AnchorPoint: "Anchor-2" 115 0 basechar 0
AnchorPoint: "Anchor-1" 210 684 basechar 0
AnchorPoint: "Anchor-0" 115 740 basechar 0
LayerCount: 2
Fore
SplineSet
145 30 m 2,0,1
 145 18 145 18 136 9 c 128,-1,2
 127 0 127 0 115 0 c 0,3,4
 102 0 102 0 93.5 9 c 128,-1,5
 85 18 85 18 85 30 c 2,6,-1
 85 710 l 2,7,8
 85 722 85 722 94 731 c 128,-1,9
 103 740 103 740 115 740 c 0,10,11
 128 740 128 740 136.5 731 c 128,-1,12
 145 722 145 722 145 710 c 2,13,-1
 145 30 l 2,0,1
EndSplineSet
EndChar

StartChar: lcaron
Encoding: 318 318 353
Width: 242
Flags: W
LayerCount: 2
Fore
SplineSet
145 30 m 2,0,1
 145 18 145 18 136 9 c 128,-1,2
 127 0 127 0 115 0 c 0,3,4
 102 0 102 0 93.5 9 c 128,-1,5
 85 18 85 18 85 30 c 2,6,-1
 85 710 l 2,7,8
 85 722 85 722 94 731 c 128,-1,9
 103 740 103 740 115 740 c 0,10,11
 128 740 128 740 136.5 731 c 128,-1,12
 145 722 145 722 145 710 c 2,13,-1
 145 30 l 2,0,1
305 675 m 0,14,15
 305 648 305 648 289 622.5 c 128,-1,16
 273 597 273 597 250.5 580.5 c 128,-1,17
 228 564 228 564 205 564 c 0,18,19
 197 564 197 564 190 569 c 128,-1,20
 183 574 183 574 183 588 c 256,21,22
 183 602 183 602 192 603.5 c 128,-1,23
 201 605 201 605 216 613 c 0,24,25
 232 621 232 621 241 633 c 128,-1,26
 250 645 250 645 250 661 c 0,27,28
 250 674 250 674 242.5 681 c 128,-1,29
 235 688 235 688 225 688 c 0,30,31
 218 688 218 688 211 686 c 128,-1,32
 204 684 204 684 199 680 c 1,33,34
 193 685 193 685 189.5 691 c 128,-1,35
 186 697 186 697 186 706 c 0,36,37
 188 723 188 723 205 735.5 c 128,-1,38
 222 748 222 748 243 748 c 0,39,40
 270 748 270 748 287.5 726 c 128,-1,41
 305 704 305 704 305 675 c 0,14,15
EndSplineSet
EndChar

StartChar: lslash
Encoding: 322 322 360
Width: 231
GlyphClass: 2
Flags: W
AnchorPoint: "Anchor-4" 115 339 basechar 0
AnchorPoint: "Anchor-2" 115 0 basechar 0
AnchorPoint: "Anchor-1" 210 684 basechar 0
AnchorPoint: "Anchor-0" 115 740 basechar 0
LayerCount: 2
Fore
SplineSet
16 330 m 0,0,1
 5 330 5 330 -2 338.5 c 128,-1,2
 -9 347 -9 347 -9 357 c 0,3,4
 -9 374 -9 374 9 381 c 2,5,-1
 201 469 l 2,6,7
 205 471 205 471 209.5 472 c 128,-1,8
 214 473 214 473 218 473 c 0,9,10
 229 473 229 473 235.5 465 c 128,-1,11
 242 457 242 457 242 448 c 0,12,13
 242 438 242 438 236.5 431.5 c 128,-1,14
 231 425 231 425 223 421 c 2,15,-1
 30 334 l 2,16,17
 26 332 26 332 22 331 c 128,-1,18
 18 330 18 330 16 330 c 0,0,1
145 30 m 2,19,20
 145 18 145 18 136 9 c 128,-1,21
 127 0 127 0 115 0 c 0,22,23
 102 0 102 0 93.5 9 c 128,-1,24
 85 18 85 18 85 30 c 2,25,-1
 85 710 l 2,26,27
 85 722 85 722 94 731 c 128,-1,28
 103 740 103 740 115 740 c 0,29,30
 128 740 128 740 136.5 731 c 128,-1,31
 145 722 145 722 145 710 c 2,32,-1
 145 30 l 2,19,20
EndSplineSet
EndChar

StartChar: m
Encoding: 109 109 361
Width: 912
GlyphClass: 2
Flags: W
AnchorPoint: "Anchor-2" 457 0 basechar 0
AnchorPoint: "Anchor-0" 457 503 basechar 0
LayerCount: 2
Fore
SplineSet
309 515 m 0,0,1
 371 515 371 515 415 482.5 c 128,-1,2
 459 450 459 450 475 386 c 1,3,-1
 461 382 l 1,4,-1
 467 400 l 2,5,6
 480 430 480 430 510.5 456.5 c 128,-1,7
 541 483 541 483 580 499 c 128,-1,8
 619 515 619 515 659 515 c 0,9,10
 722 515 722 515 760.5 488 c 128,-1,11
 799 461 799 461 816.5 415.5 c 128,-1,12
 834 370 834 370 834 313 c 2,13,-1
 834 30 l 2,14,15
 834 18 834 18 825.5 9 c 128,-1,16
 817 0 817 0 804 0 c 256,17,18
 791 0 791 0 782.5 9 c 128,-1,19
 774 18 774 18 774 30 c 2,20,-1
 774 310 l 2,21,22
 774 351 774 351 761 385 c 128,-1,23
 748 419 748 419 720 439 c 128,-1,24
 692 459 692 459 645 459 c 0,25,26
 604 459 604 459 566.5 439 c 128,-1,27
 529 419 529 419 505.5 385 c 128,-1,28
 482 351 482 351 482 310 c 2,29,-1
 482 30 l 2,30,31
 482 18 482 18 473.5 9 c 128,-1,32
 465 0 465 0 452 0 c 256,33,34
 439 0 439 0 430.5 9 c 128,-1,35
 422 18 422 18 422 30 c 2,36,-1
 422 313 l 2,37,38
 422 354 422 354 410 387 c 128,-1,39
 398 420 398 420 371 439.5 c 128,-1,40
 344 459 344 459 298 459 c 0,41,42
 257 459 257 459 220.5 439.5 c 128,-1,43
 184 420 184 420 161.5 387 c 128,-1,44
 139 354 139 354 139 313 c 2,45,-1
 139 30 l 2,46,47
 139 18 139 18 130 9 c 128,-1,48
 121 0 121 0 109 0 c 0,49,50
 95 0 95 0 87 9 c 128,-1,51
 79 18 79 18 79 30 c 2,52,-1
 79 478 l 2,53,54
 79 490 79 490 87.5 499 c 128,-1,55
 96 508 96 508 109 508 c 256,56,57
 122 508 122 508 130.5 499 c 128,-1,58
 139 490 139 490 139 478 c 2,59,-1
 139 385 l 1,60,-1
 112 348 l 1,61,62
 115 378 115 378 131.5 408 c 128,-1,63
 148 438 148 438 175 462 c 128,-1,64
 202 486 202 486 236.5 500.5 c 128,-1,65
 271 515 271 515 309 515 c 0,0,1
EndSplineSet
EndChar

StartChar: n
Encoding: 110 110 363
Width: 578
GlyphClass: 2
Flags: W
AnchorPoint: "Anchor-2" 289 0 basechar 0
AnchorPoint: "Anchor-0" 301 503 basechar 0
LayerCount: 2
Fore
SplineSet
320 523 m 0,0,1
 386 523 386 523 425.5 496.5 c 128,-1,2
 465 470 465 470 482.5 424.5 c 128,-1,3
 500 379 500 379 500 324 c 2,4,-1
 500 30 l 2,5,6
 500 18 500 18 491 9 c 128,-1,7
 482 0 482 0 470 0 c 0,8,9
 456 0 456 0 448 9 c 128,-1,10
 440 18 440 18 440 30 c 2,11,-1
 440 321 l 2,12,13
 440 361 440 361 427 394 c 128,-1,14
 414 427 414 427 384.5 447 c 128,-1,15
 355 467 355 467 307 467 c 0,16,17
 264 467 264 467 225.5 447 c 128,-1,18
 187 427 187 427 163 394 c 128,-1,19
 139 361 139 361 139 321 c 2,20,-1
 139 30 l 2,21,22
 139 18 139 18 130 9 c 128,-1,23
 121 0 121 0 109 0 c 0,24,25
 95 0 95 0 87 9 c 128,-1,26
 79 18 79 18 79 30 c 2,27,-1
 79 478 l 2,28,29
 79 490 79 490 87.5 499 c 128,-1,30
 96 508 96 508 109 508 c 256,31,32
 122 508 122 508 130.5 499 c 128,-1,33
 139 490 139 490 139 478 c 2,34,-1
 139 394 l 1,35,-1
 116 358 l 1,36,37
 118 390 118 390 136.5 419.5 c 128,-1,38
 155 449 155 449 184 472.5 c 128,-1,39
 213 496 213 496 248.5 509.5 c 128,-1,40
 284 523 284 523 320 523 c 0,0,1
EndSplineSet
EndChar

StartChar: uni0272
Encoding: 626 626 371
Width: 579
Flags: W
LayerCount: 2
Fore
SplineSet
-6 -197 m 0,0,1
 -18 -197 -18 -197 -25.5 -189 c 128,-1,2
 -33 -181 -33 -181 -33 -170 c 0,3,4
 -33 -155 -33 -155 -26 -148 c 128,-1,5
 -19 -141 -19 -141 -7 -138 c 0,6,7
 15 -133 15 -133 34.5 -121 c 128,-1,8
 54 -109 54 -109 66.5 -88 c 128,-1,9
 79 -67 79 -67 79 -37 c 2,10,-1
 79 478 l 2,11,12
 79 490 79 490 87.5 499 c 128,-1,13
 96 508 96 508 109 508 c 256,14,15
 122 508 122 508 130.5 499 c 128,-1,16
 139 490 139 490 139 478 c 2,17,-1
 139 394 l 1,18,-1
 116 358 l 1,19,20
 118 390 118 390 136.5 419.5 c 128,-1,21
 155 449 155 449 184 472.5 c 128,-1,22
 213 496 213 496 248.5 509.5 c 128,-1,23
 284 523 284 523 320 523 c 0,24,25
 386 523 386 523 425.5 496.5 c 128,-1,26
 465 470 465 470 482.5 424.5 c 128,-1,27
 500 379 500 379 500 324 c 2,28,-1
 500 30 l 2,29,30
 500 18 500 18 491 9 c 128,-1,31
 482 0 482 0 470 0 c 0,32,33
 456 0 456 0 448 9 c 128,-1,34
 440 18 440 18 440 30 c 2,35,-1
 440 321 l 2,36,37
 440 361 440 361 427 394 c 128,-1,38
 414 427 414 427 384.5 447 c 128,-1,39
 355 467 355 467 307 467 c 0,40,41
 264 467 264 467 225.5 447 c 128,-1,42
 187 427 187 427 163 394 c 128,-1,43
 139 361 139 361 139 321 c 2,44,-1
 139 -46 l 2,45,46
 139 -87 139 -87 126.5 -114.5 c 128,-1,47
 114 -142 114 -142 95 -159 c 128,-1,48
 76 -176 76 -176 55 -184 c 128,-1,49
 34 -192 34 -192 17.5 -194.5 c 128,-1,50
 1 -197 1 -197 -6 -197 c 0,0,1
EndSplineSet
EndChar

StartChar: eng
Encoding: 331 331 375
Width: 578
GlyphClass: 2
Flags: W
AnchorPoint: "Anchor-2" 286 0 basechar 0
AnchorPoint: "Anchor-0" 289 503 basechar 0
LayerCount: 2
Fore
SplineSet
322 -200 m 0,0,1
 307 -200 307 -200 298 -192.5 c 128,-1,2
 289 -185 289 -185 289 -172 c 256,3,4
 289 -159 289 -159 298 -151 c 128,-1,5
 307 -143 307 -143 320 -142 c 0,6,7
 368 -142 368 -142 394 -129 c 128,-1,8
 420 -116 420 -116 430 -92.5 c 128,-1,9
 440 -69 440 -69 440 -38 c 2,10,-1
 440 321 l 2,11,12
 440 361 440 361 427 394 c 128,-1,13
 414 427 414 427 384.5 447 c 128,-1,14
 355 467 355 467 307 467 c 0,15,16
 264 467 264 467 225.5 447 c 128,-1,17
 187 427 187 427 163 394 c 128,-1,18
 139 361 139 361 139 321 c 2,19,-1
 139 30 l 2,20,21
 139 18 139 18 130 9 c 128,-1,22
 121 0 121 0 109 0 c 0,23,24
 95 0 95 0 87 9 c 128,-1,25
 79 18 79 18 79 30 c 2,26,-1
 79 478 l 2,27,28
 79 490 79 490 87.5 499 c 128,-1,29
 96 508 96 508 109 508 c 256,30,31
 122 508 122 508 130.5 499 c 128,-1,32
 139 490 139 490 139 478 c 2,33,-1
 139 394 l 1,34,-1
 116 358 l 1,35,36
 118 390 118 390 136.5 419.5 c 128,-1,37
 155 449 155 449 184 472.5 c 128,-1,38
 213 496 213 496 248.5 509.5 c 128,-1,39
 284 523 284 523 320 523 c 0,40,41
 386 523 386 523 425.5 496.5 c 128,-1,42
 465 470 465 470 482.5 424.5 c 128,-1,43
 500 379 500 379 500 324 c 2,44,-1
 500 -36 l 2,45,46
 500 -83 500 -83 482 -120.5 c 128,-1,47
 464 -158 464 -158 425 -179 c 128,-1,48
 386 -200 386 -200 322 -200 c 0,0,1
EndSplineSet
EndChar

StartChar: o
Encoding: 111 111 376
Width: 604
GlyphClass: 2
Flags: W
AnchorPoint: "Anchor-4" 302 252 basechar 0
AnchorPoint: "Anchor-3" 540 10 basechar 0
AnchorPoint: "Anchor-2" 302 0 basechar 0
AnchorPoint: "Anchor-1" 319 508 basechar 0
AnchorPoint: "Anchor-0" 302 511 basechar 0
LayerCount: 2
Fore
SplineSet
555 256 m 0,0,1
 555 180 555 180 522 119.5 c 128,-1,2
 489 59 489 59 432 24.5 c 128,-1,3
 375 -10 375 -10 302 -10 c 0,4,5
 231 -10 231 -10 173.5 24.5 c 128,-1,6
 116 59 116 59 82.5 119.5 c 128,-1,7
 49 180 49 180 49 256 c 0,8,9
 49 333 49 333 82.5 393 c 128,-1,10
 116 453 116 453 173.5 488 c 128,-1,11
 231 523 231 523 302 523 c 0,12,13
 375 523 375 523 432 488 c 128,-1,14
 489 453 489 453 522 393 c 128,-1,15
 555 333 555 333 555 256 c 0,0,1
495 256 m 256,16,17
 495 317 495 317 470 364.5 c 128,-1,18
 445 412 445 412 401.5 439.5 c 128,-1,19
 358 467 358 467 302 467 c 0,20,21
 248 467 248 467 204 439.5 c 128,-1,22
 160 412 160 412 134.5 364.5 c 128,-1,23
 109 317 109 317 109 256 c 256,24,25
 109 195 109 195 134.5 148 c 128,-1,26
 160 101 160 101 204 73.5 c 128,-1,27
 248 46 248 46 302 46 c 0,28,29
 358 46 358 46 401.5 73.5 c 128,-1,30
 445 101 445 101 470 148 c 128,-1,31
 495 195 495 195 495 256 c 256,16,17
EndSplineSet
Substitution2: "Single Substitution lookup 33 subtable" ordmasculine
Substitution2: "'aalt' Access All Alternates in Latin lookup 0 subtable" ordmasculine
EndChar

StartChar: uni01EB
Encoding: 491 491 404
Width: 595
Flags: W
LayerCount: 2
Fore
SplineSet
491 256 m 256,0,1
 491 317 491 317 466 364.5 c 128,-1,2
 441 412 441 412 397.5 439.5 c 128,-1,3
 354 467 354 467 298 467 c 0,4,5
 243 467 243 467 199.5 439.5 c 128,-1,6
 156 412 156 412 130.5 364.5 c 128,-1,7
 105 317 105 317 105 256 c 256,8,9
 105 195 105 195 130.5 148 c 128,-1,10
 156 101 156 101 199.5 73.5 c 128,-1,11
 243 46 243 46 298 46 c 0,12,13
 354 46 354 46 397.5 73.5 c 128,-1,14
 441 101 441 101 466 148 c 128,-1,15
 491 195 491 195 491 256 c 256,0,1
348 -190 m 0,16,17
 310 -190 310 -190 280.5 -164.5 c 128,-1,18
 251 -139 251 -139 251 -92 c 0,19,20
 251 -63 251 -63 261 -41 c 128,-1,21
 271 -19 271 -19 287.5 -4 c 128,-1,22
 304 11 304 11 323.5 21.5 c 128,-1,23
 343 32 343 32 362 38 c 1,24,25
 352 22 352 22 334.5 9.5 c 128,-1,26
 317 -3 317 -3 298 -10 c 1,27,28
 227 -10 227 -10 169.5 24.5 c 128,-1,29
 112 59 112 59 78.5 119.5 c 128,-1,30
 45 180 45 180 45 256 c 0,31,32
 45 333 45 333 78.5 393 c 128,-1,33
 112 453 112 453 169.5 488 c 128,-1,34
 227 523 227 523 298 523 c 0,35,36
 370 523 370 523 427 488 c 128,-1,37
 484 453 484 453 517.5 393 c 128,-1,38
 551 333 551 333 551 256 c 0,39,40
 551 195 551 195 528 143.5 c 128,-1,41
 505 92 505 92 465.5 56.5 c 128,-1,42
 426 21 426 21 374 4 c 0,43,44
 345 -7 345 -7 324.5 -30 c 128,-1,45
 304 -53 304 -53 304 -81 c 256,46,47
 304 -109 304 -109 319.5 -124 c 128,-1,48
 335 -139 335 -139 354 -139 c 0,49,50
 372 -139 372 -139 381 -130 c 0,51,52
 388 -121 388 -121 395 -116.5 c 128,-1,53
 402 -112 402 -112 409 -112 c 0,54,55
 419 -112 419 -112 425 -118.5 c 128,-1,56
 431 -125 431 -125 431 -135 c 0,57,58
 431 -149 431 -149 419.5 -162 c 128,-1,59
 408 -175 408 -175 389.5 -182.5 c 128,-1,60
 371 -190 371 -190 348 -190 c 0,16,17
EndSplineSet
EndChar

StartChar: oslash
Encoding: 248 248 405
Width: 604
GlyphClass: 2
Flags: W
AnchorPoint: "Anchor-4" 302 252 basechar 0
AnchorPoint: "Anchor-3" 540 10 basechar 0
AnchorPoint: "Anchor-2" 302 0 basechar 0
AnchorPoint: "Anchor-1" 319 508 basechar 0
AnchorPoint: "Anchor-0" 302 506 basechar 0
LayerCount: 2
Fore
SplineSet
86 -27 m 0,0,1
 75 -27 75 -27 66.5 -19 c 128,-1,2
 58 -11 58 -11 58 0 c 256,3,4
 58 11 58 11 65 19 c 2,5,-1
 502 530 l 2,6,7
 510 541 510 541 523 541 c 0,8,9
 534 541 534 541 542.5 532.5 c 128,-1,10
 551 524 551 524 551 513 c 256,11,12
 551 502 551 502 544 494 c 2,13,-1
 106 -17 l 2,14,15
 98 -27 98 -27 86 -27 c 0,0,1
555 256 m 0,16,17
 555 180 555 180 522 119.5 c 128,-1,18
 489 59 489 59 432 24.5 c 128,-1,19
 375 -10 375 -10 302 -10 c 0,20,21
 231 -10 231 -10 173.5 24.5 c 128,-1,22
 116 59 116 59 82.5 119.5 c 128,-1,23
 49 180 49 180 49 256 c 0,24,25
 49 333 49 333 82.5 393 c 128,-1,26
 116 453 116 453 173.5 488 c 128,-1,27
 231 523 231 523 302 523 c 0,28,29
 375 523 375 523 432 488 c 128,-1,30
 489 453 489 453 522 393 c 128,-1,31
 555 333 555 333 555 256 c 0,16,17
495 256 m 256,32,33
 495 317 495 317 470 364.5 c 128,-1,34
 445 412 445 412 401.5 439.5 c 128,-1,35
 358 467 358 467 302 467 c 0,36,37
 248 467 248 467 204 439.5 c 128,-1,38
 160 412 160 412 134.5 364.5 c 128,-1,39
 109 317 109 317 109 256 c 256,40,41
 109 195 109 195 134.5 148 c 128,-1,42
 160 101 160 101 204 73.5 c 128,-1,43
 248 46 248 46 302 46 c 0,44,45
 358 46 358 46 401.5 73.5 c 128,-1,46
 445 101 445 101 470 148 c 128,-1,47
 495 195 495 195 495 256 c 256,32,33
EndSplineSet
EndChar

StartChar: p
Encoding: 112 112 412
Width: 606
GlyphClass: 2
Flags: W
AnchorPoint: "Anchor-2" 302 0 basechar 0
AnchorPoint: "Anchor-0" 302 503 basechar 0
LayerCount: 2
Fore
SplineSet
322 515 m 0,0,1
 390 515 390 515 442.5 481.5 c 128,-1,2
 495 448 495 448 526 389.5 c 128,-1,3
 557 331 557 331 557 255 c 256,4,5
 557 179 557 179 526 120 c 128,-1,6
 495 61 495 61 442 27 c 128,-1,7
 389 -7 389 -7 323 -7 c 0,8,9
 288 -7 288 -7 256.5 3.5 c 128,-1,10
 225 14 225 14 199 32 c 128,-1,11
 173 50 173 50 153 74.5 c 128,-1,12
 133 99 133 99 121 128 c 1,13,-1
 139 141 l 1,14,-1
 139 -170 l 2,15,16
 139 -182 139 -182 130.5 -191 c 128,-1,17
 122 -200 122 -200 109 -200 c 256,18,19
 96 -200 96 -200 87.5 -191 c 128,-1,20
 79 -182 79 -182 79 -170 c 2,21,-1
 79 482 l 2,22,23
 79 495 79 495 87 504 c 128,-1,24
 95 513 95 513 109 513 c 0,25,26
 122 513 122 513 130.5 504 c 128,-1,27
 139 495 139 495 139 482 c 2,28,-1
 139 374 l 1,29,-1
 125 382 l 1,30,31
 135 413 135 413 154.5 437.5 c 128,-1,32
 174 462 174 462 200 479.5 c 128,-1,33
 226 497 226 497 257 506 c 128,-1,34
 288 515 288 515 322 515 c 0,0,1
317 459 m 0,35,36
 263 459 263 459 222 432.5 c 128,-1,37
 181 406 181 406 157.5 360.5 c 128,-1,38
 134 315 134 315 134 255 c 0,39,40
 134 196 134 196 157.5 149 c 128,-1,41
 181 102 181 102 222 75.5 c 128,-1,42
 263 49 263 49 317 49 c 0,43,44
 370 49 370 49 410.5 75.5 c 128,-1,45
 451 102 451 102 475 149 c 128,-1,46
 499 196 499 196 499 255 c 256,47,48
 499 314 499 314 475 360 c 128,-1,49
 451 406 451 406 410.5 432.5 c 128,-1,50
 370 459 370 459 317 459 c 0,35,36
EndSplineSet
EndChar

StartChar: thorn
Encoding: 254 254 413
Width: 606
GlyphClass: 2
Flags: W
AnchorPoint: "Anchor-2" 282 0 basechar 0
AnchorPoint: "Anchor-0" 282 499 basechar 0
LayerCount: 2
Fore
SplineSet
322 515 m 0,0,1
 390 515 390 515 442.5 481.5 c 128,-1,2
 495 448 495 448 526 389.5 c 128,-1,3
 557 331 557 331 557 255 c 256,4,5
 557 179 557 179 526 120 c 128,-1,6
 495 61 495 61 442 27 c 128,-1,7
 389 -7 389 -7 323 -7 c 0,8,9
 288 -7 288 -7 256.5 3.5 c 128,-1,10
 225 14 225 14 199 32 c 128,-1,11
 173 50 173 50 153 74.5 c 128,-1,12
 133 99 133 99 121 128 c 1,13,-1
 139 141 l 1,14,-1
 139 -170 l 2,15,16
 139 -182 139 -182 130.5 -191 c 128,-1,17
 122 -200 122 -200 109 -200 c 256,18,19
 96 -200 96 -200 87.5 -191 c 128,-1,20
 79 -182 79 -182 79 -170 c 2,21,-1
 79 710 l 2,22,23
 79 722 79 722 87 731 c 128,-1,24
 95 740 95 740 109 740 c 0,25,26
 122 740 122 740 130.5 731 c 128,-1,27
 139 722 139 722 139 710 c 2,28,-1
 139 374 l 1,29,-1
 125 382 l 1,30,31
 135 413 135 413 154.5 437.5 c 128,-1,32
 174 462 174 462 200 479.5 c 128,-1,33
 226 497 226 497 257 506 c 128,-1,34
 288 515 288 515 322 515 c 0,0,1
317 459 m 0,35,36
 263 459 263 459 222 432.5 c 128,-1,37
 181 406 181 406 157.5 360.5 c 128,-1,38
 134 315 134 315 134 255 c 0,39,40
 134 196 134 196 157.5 149 c 128,-1,41
 181 102 181 102 222 75.5 c 128,-1,42
 263 49 263 49 317 49 c 0,43,44
 370 49 370 49 410.5 75.5 c 128,-1,45
 451 102 451 102 475 149 c 128,-1,46
 499 196 499 196 499 255 c 256,47,48
 499 314 499 314 475 360 c 128,-1,49
 451 406 451 406 410.5 432.5 c 128,-1,50
 370 459 370 459 317 459 c 0,35,36
EndSplineSet
EndChar

StartChar: q
Encoding: 113 113 414
Width: 606
GlyphClass: 2
Flags: W
AnchorPoint: "Anchor-2" 306 0 basechar 0
AnchorPoint: "Anchor-0" 306 503 basechar 0
LayerCount: 2
Fore
SplineSet
498 513 m 256,0,1
 511 513 511 513 519.5 504 c 128,-1,2
 528 495 528 495 528 482 c 2,3,-1
 528 -170 l 2,4,5
 528 -182 528 -182 519 -191 c 128,-1,6
 510 -200 510 -200 498 -200 c 0,7,8
 485 -200 485 -200 476.5 -191 c 128,-1,9
 468 -182 468 -182 468 -170 c 2,10,-1
 468 149 l 1,11,-1
 485 163 l 1,12,13
 485 135 485 135 470 104.5 c 128,-1,14
 455 74 455 74 427.5 48 c 128,-1,15
 400 22 400 22 363.5 6 c 128,-1,16
 327 -10 327 -10 285 -10 c 0,17,18
 218 -10 218 -10 164.5 25 c 128,-1,19
 111 60 111 60 80 120 c 128,-1,20
 49 180 49 180 49 257 c 0,21,22
 49 333 49 333 80 393.5 c 128,-1,23
 111 454 111 454 164 488.5 c 128,-1,24
 217 523 217 523 284 523 c 0,25,26
 325 523 325 523 362 508 c 128,-1,27
 399 493 399 493 427.5 467 c 128,-1,28
 456 441 456 441 472.5 407.5 c 128,-1,29
 489 374 489 374 489 338 c 1,30,-1
 468 353 l 1,31,-1
 468 482 l 2,32,33
 468 495 468 495 476.5 504 c 128,-1,34
 485 513 485 513 498 513 c 256,0,1
290 46 m 0,35,36
 344 46 344 46 384.5 73.5 c 128,-1,37
 425 101 425 101 448.5 148.5 c 128,-1,38
 472 196 472 196 472 257 c 0,39,40
 472 317 472 317 448.5 364.5 c 128,-1,41
 425 412 425 412 384 439.5 c 128,-1,42
 343 467 343 467 290 467 c 0,43,44
 238 467 238 467 196.5 439.5 c 128,-1,45
 155 412 155 412 131.5 364.5 c 128,-1,46
 108 317 108 317 108 257 c 256,47,48
 108 197 108 197 131.5 149 c 128,-1,49
 155 101 155 101 196.5 73.5 c 128,-1,50
 238 46 238 46 290 46 c 0,35,36
EndSplineSet
EndChar

StartChar: r
Encoding: 114 114 415
Width: 385
GlyphClass: 2
Flags: W
AnchorPoint: "Anchor-2" 108 0 basechar 0
AnchorPoint: "Anchor-0" 192 503 basechar 0
LayerCount: 2
Fore
SplineSet
109 0 m 0,0,1
 95 0 95 0 87 9 c 128,-1,2
 79 18 79 18 79 30 c 2,3,-1
 79 478 l 2,4,5
 79 490 79 490 87.5 499 c 128,-1,6
 96 508 96 508 109 508 c 256,7,8
 122 508 122 508 130.5 499 c 128,-1,9
 139 490 139 490 139 478 c 2,10,-1
 139 328 l 1,11,-1
 124 325 l 1,12,13
 127 360 127 360 141.5 394.5 c 128,-1,14
 156 429 156 429 181 458 c 128,-1,15
 206 487 206 487 240.5 505 c 128,-1,16
 275 523 275 523 318 523 c 0,17,18
 336 523 336 523 353 515.5 c 128,-1,19
 370 508 370 508 370 491 c 0,20,21
 370 476 370 476 362 468 c 128,-1,22
 354 460 354 460 343 460 c 0,23,24
 334 460 334 460 323.5 465 c 128,-1,25
 313 470 313 470 296 470 c 0,26,27
 268 470 268 470 240 453.5 c 128,-1,28
 212 437 212 437 189 409 c 128,-1,29
 166 381 166 381 152.5 346.5 c 128,-1,30
 139 312 139 312 139 277 c 2,31,-1
 139 30 l 2,32,33
 139 18 139 18 130 9 c 128,-1,34
 121 0 121 0 109 0 c 0,0,1
EndSplineSet
EndChar

StartChar: s
Encoding: 115 115 423
Width: 469
GlyphClass: 2
Flags: W
AnchorPoint: "Anchor-2" 235 0 basechar 0
AnchorPoint: "Anchor-0" 235 503 basechar 0
LayerCount: 2
Fore
SplineSet
50 81 m 0,0,1
 42 93 42 93 42.5 104.5 c 128,-1,2
 43 116 43 116 55 123 c 0,3,4
 63 130 63 130 73.5 129 c 128,-1,5
 84 128 84 128 93 119 c 0,6,7
 120 84 120 84 158.5 62.5 c 128,-1,8
 197 41 197 41 250 41 c 0,9,10
 278 41 278 41 305.5 50.5 c 128,-1,11
 333 60 333 60 351 79.5 c 128,-1,12
 369 99 369 99 369 129 c 0,13,14
 369 160 369 160 351 179 c 128,-1,15
 333 198 333 198 304.5 209 c 128,-1,16
 276 220 276 220 244 228 c 0,17,18
 210 237 210 237 178 248.5 c 128,-1,19
 146 260 146 260 121.5 277.5 c 128,-1,20
 97 295 97 295 82 320 c 128,-1,21
 67 345 67 345 67 381 c 0,22,23
 67 423 67 423 90 455 c 128,-1,24
 113 487 113 487 152.5 505 c 128,-1,25
 192 523 192 523 242 523 c 0,26,27
 267 523 267 523 296 516.5 c 128,-1,28
 325 510 325 510 353 495 c 128,-1,29
 381 480 381 480 403 454 c 0,30,31
 412 445 412 445 412 433.5 c 128,-1,32
 412 422 412 422 402 413 c 0,33,34
 394 407 394 407 383.5 407 c 128,-1,35
 373 407 373 407 366 415 c 0,36,37
 342 442 342 442 309 456 c 128,-1,38
 276 470 276 470 238 470 c 0,39,40
 209 470 209 470 183.5 460.5 c 128,-1,41
 158 451 158 451 141 432 c 128,-1,42
 124 413 124 413 124 382 c 0,43,44
 126 353 126 353 144.5 335 c 128,-1,45
 163 317 163 317 193.5 305 c 128,-1,46
 224 293 224 293 262 283 c 0,47,48
 294 275 294 275 323.5 264 c 128,-1,49
 353 253 353 253 375.5 236.5 c 128,-1,50
 398 220 398 220 411.5 195 c 128,-1,51
 425 170 425 170 425 132 c 0,52,53
 425 88 425 88 400.5 56 c 128,-1,54
 376 24 376 24 335 7 c 128,-1,55
 294 -10 294 -10 244 -10 c 0,56,57
 190 -10 190 -10 139.5 11 c 128,-1,58
 89 32 89 32 50 81 c 0,0,1
EndSplineSet
EndChar

StartChar: germandbls
Encoding: 223 223 434
Width: 606
Flags: W
LayerCount: 2
Fore
SplineSet
133 0 m 256,0,1
 119 0 119 0 111 8 c 128,-1,2
 103 16 103 16 103 30 c 2,3,-1
 104 495 l 2,4,5
 104 535 104 535 115.5 576.5 c 128,-1,6
 127 618 127 618 151.5 652.5 c 128,-1,7
 176 687 176 687 215 708 c 128,-1,8
 254 729 254 729 309 729 c 0,9,10
 368 729 368 729 406 708.5 c 128,-1,11
 444 688 444 688 463 655.5 c 128,-1,12
 482 623 482 623 482 585 c 0,13,14
 482 565 482 565 472 540 c 128,-1,15
 462 515 462 515 441.5 493 c 128,-1,16
 421 471 421 471 390 460 c 1,17,-1
 389 464 l 1,18,19
 437 450 437 450 476 418 c 128,-1,20
 515 386 515 386 538.5 339.5 c 128,-1,21
 562 293 562 293 562 231 c 0,22,23
 562 160 562 160 532.5 106 c 128,-1,24
 503 52 503 52 454 21 c 128,-1,25
 405 -10 405 -10 345 -10 c 0,26,27
 315 -10 315 -10 289 -3.5 c 128,-1,28
 263 3 263 3 247 16 c 0,29,30
 238 23 238 23 236 34 c 128,-1,31
 234 45 234 45 244 55 c 0,32,33
 252 65 252 65 262.5 65.5 c 128,-1,34
 273 66 273 66 284 57 c 0,35,36
 296 50 296 50 312 45 c 128,-1,37
 328 40 328 40 346 40 c 0,38,39
 387 40 387 40 422.5 63 c 128,-1,40
 458 86 458 86 480 127.5 c 128,-1,41
 502 169 502 169 502 223 c 0,42,43
 502 287 502 287 477.5 327.5 c 128,-1,44
 453 368 453 368 415.5 390.5 c 128,-1,45
 378 413 378 413 338 422 c 0,46,47
 325 425 325 425 318 434 c 128,-1,48
 311 443 311 443 311 453 c 0,49,50
 311 462 311 462 316 470 c 128,-1,51
 321 478 321 478 331 481 c 0,52,53
 363 490 363 490 383.5 506.5 c 128,-1,54
 404 523 404 523 413.5 543.5 c 128,-1,55
 423 564 423 564 423 581 c 0,56,57
 423 618 423 618 392.5 644.5 c 128,-1,58
 362 671 362 671 308 671 c 0,59,60
 269 671 269 671 241 655.5 c 128,-1,61
 213 640 213 640 196.5 614.5 c 128,-1,62
 180 589 180 589 172 558.5 c 128,-1,63
 164 528 164 528 164 496 c 2,64,-1
 163 30 l 2,65,66
 163 16 163 16 155 8 c 128,-1,67
 147 0 147 0 133 0 c 256,0,1
58 444 m 2,68,69
 46 444 46 444 37.5 452.5 c 128,-1,70
 29 461 29 461 29 473 c 256,71,72
 29 485 29 485 37.5 493 c 128,-1,73
 46 501 46 501 58 501 c 2,74,-1
 127 501 l 2,75,76
 140 501 140 501 146 492.5 c 128,-1,77
 152 484 152 484 152 473 c 0,78,79
 152 460 152 460 146 452 c 128,-1,80
 140 444 140 444 127 444 c 2,81,-1
 58 444 l 2,68,69
EndSplineSet
EndChar

StartChar: t
Encoding: 116 116 435
Width: 339
GlyphClass: 2
Flags: W
AnchorPoint: "Anchor-4" 168 252 basechar 0
AnchorPoint: "Anchor-2" 196 0 basechar 0
AnchorPoint: "Anchor-1" 316 506 basechar 0
AnchorPoint: "Anchor-0" 150 649 basechar 0
LayerCount: 2
Fore
SplineSet
46 509 m 2,0,-1
 279 509 l 2,1,2
 291 509 291 509 299 500.5 c 128,-1,3
 307 492 307 492 307 480 c 0,4,5
 307 469 307 469 299 461 c 128,-1,6
 291 453 291 453 279 453 c 2,7,-1
 46 453 l 2,8,9
 34 453 34 453 25.5 461.5 c 128,-1,10
 17 470 17 470 17 481 c 0,11,12
 17 493 17 493 25.5 501 c 128,-1,13
 34 509 34 509 46 509 c 2,0,-1
149 650 m 256,14,15
 162 650 162 650 170.5 641 c 128,-1,16
 179 632 179 632 179 620 c 2,17,-1
 179 118 l 2,18,19
 179 90 179 90 186.5 76 c 128,-1,20
 194 62 194 62 206 57.5 c 128,-1,21
 218 53 218 53 230 53 c 0,22,23
 238 53 238 53 244.5 55.5 c 128,-1,24
 251 58 251 58 259 58 c 0,25,26
 268 58 268 58 274.5 51 c 128,-1,27
 281 44 281 44 281 33 c 0,28,29
 281 19 281 19 265 9.5 c 128,-1,30
 249 0 249 0 227 0 c 0,31,32
 218 0 218 0 200 1.5 c 128,-1,33
 182 3 182 3 163 12.5 c 128,-1,34
 144 22 144 22 131.5 46 c 128,-1,35
 119 70 119 70 119 115 c 2,36,-1
 119 620 l 2,37,38
 119 632 119 632 127.5 641 c 128,-1,39
 136 650 136 650 149 650 c 256,14,15
EndSplineSet
EndChar

StartChar: u
Encoding: 117 117 444
Width: 569
GlyphClass: 2
Flags: W
AnchorPoint: "Anchor-3" 512 10 basechar 0
AnchorPoint: "Anchor-2" 285 0 basechar 0
AnchorPoint: "Anchor-1" 382 509 basechar 0
AnchorPoint: "Anchor-0" 285 503 basechar 0
LayerCount: 2
Fore
SplineSet
461 508 m 0,0,1
 474 508 474 508 482.5 499 c 128,-1,2
 491 490 491 490 491 478 c 2,3,-1
 491 196 l 2,4,5
 491 97 491 97 435 45 c 128,-1,6
 379 -7 379 -7 284 -7 c 0,7,8
 190 -7 190 -7 134.5 45 c 128,-1,9
 79 97 79 97 79 196 c 2,10,-1
 79 478 l 2,11,12
 79 490 79 490 87.5 499 c 128,-1,13
 96 508 96 508 109 508 c 256,14,15
 122 508 122 508 130.5 499 c 128,-1,16
 139 490 139 490 139 478 c 2,17,-1
 139 196 l 2,18,19
 139 124 139 124 177.5 86.5 c 128,-1,20
 216 49 216 49 284 49 c 0,21,22
 353 49 353 49 392 86.5 c 128,-1,23
 431 124 431 124 431 196 c 2,24,-1
 431 478 l 2,25,26
 431 490 431 490 439 499 c 128,-1,27
 447 508 447 508 461 508 c 0,0,1
EndSplineSet
EndChar

StartChar: uogonek
Encoding: 371 371 464
Width: 569
Flags: W
LayerCount: 2
Fore
SplineSet
376 -190 m 0,0,1
 335 -190 335 -190 302.5 -162 c 128,-1,2
 270 -134 270 -134 270 -88 c 0,3,4
 270 -58 270 -58 281 -34.5 c 128,-1,5
 292 -11 292 -11 309.5 6 c 128,-1,6
 327 23 327 23 348 34.5 c 128,-1,7
 369 46 369 46 391 53 c 1,8,-1
 339 -2 l 1,9,10
 326 -5 326 -5 312 -6 c 128,-1,11
 298 -7 298 -7 284 -7 c 0,12,13
 190 -7 190 -7 134.5 45 c 128,-1,14
 79 97 79 97 79 196 c 2,15,-1
 79 478 l 2,16,17
 79 490 79 490 87.5 499 c 128,-1,18
 96 508 96 508 109 508 c 256,19,20
 122 508 122 508 130.5 499 c 128,-1,21
 139 490 139 490 139 478 c 2,22,-1
 139 196 l 2,23,24
 139 124 139 124 177.5 86.5 c 128,-1,25
 216 49 216 49 284 49 c 0,26,27
 353 49 353 49 392 86.5 c 128,-1,28
 431 124 431 124 431 196 c 2,29,-1
 431 478 l 2,30,31
 431 490 431 490 439 499 c 128,-1,32
 447 508 447 508 461 508 c 0,33,34
 474 508 474 508 482.5 499 c 128,-1,35
 491 490 491 490 491 478 c 2,36,-1
 491 196 l 2,37,38
 491 138 491 138 471.5 94.5 c 128,-1,39
 452 51 452 51 410 26 c 0,40,41
 389 14 389 14 369 1 c 128,-1,42
 349 -12 349 -12 336.5 -30 c 128,-1,43
 324 -48 324 -48 324 -78 c 0,44,45
 324 -106 324 -106 342 -122.5 c 128,-1,46
 360 -139 360 -139 383 -139 c 0,47,48
 395 -139 395 -139 402 -135.5 c 128,-1,49
 409 -132 409 -132 413 -127 c 0,50,51
 419 -121 419 -121 425 -116.5 c 128,-1,52
 431 -112 431 -112 438 -112 c 0,53,54
 448 -112 448 -112 453.5 -118.5 c 128,-1,55
 459 -125 459 -125 459 -135 c 0,56,57
 459 -149 459 -149 448 -162 c 128,-1,58
 437 -175 437 -175 418.5 -182.5 c 128,-1,59
 400 -190 400 -190 376 -190 c 0,0,1
EndSplineSet
EndChar

StartChar: v
Encoding: 118 118 468
Width: 529
GlyphClass: 2
Flags: W
AnchorPoint: "Anchor-2" 265 0 basechar 0
AnchorPoint: "Anchor-0" 265 503 basechar 0
LayerCount: 2
Fore
SplineSet
67 522 m 0,0,1
 75 522 75 522 83 517 c 128,-1,2
 91 512 91 512 95 502 c 2,3,-1
 270 86 l 1,4,-1
 257 78 l 1,5,-1
 436 502 l 2,6,7
 444 522 444 522 465 521 c 0,8,9
 475 521 475 521 484 514.5 c 128,-1,10
 493 508 493 508 493 496 c 0,11,12
 493 490 493 490 491.5 486.5 c 128,-1,13
 490 483 490 483 489 479 c 2,14,-1
 293 19 l 2,15,16
 285 1 285 1 266 0 c 0,17,18
 257 -1 257 -1 248.5 4.5 c 128,-1,19
 240 10 240 10 236 19 c 2,20,-1
 39 479 l 2,21,22
 38 481 38 481 37 485 c 128,-1,23
 36 489 36 489 36 493 c 0,24,25
 36 504 36 504 44 513 c 128,-1,26
 52 522 52 522 67 522 c 0,0,1
EndSplineSet
EndChar

StartChar: w
Encoding: 119 119 469
Width: 752
GlyphClass: 2
Flags: W
AnchorPoint: "Anchor-2" 376 0 basechar 0
AnchorPoint: "Anchor-0" 376 488 basechar 0
LayerCount: 2
Fore
SplineSet
686 522 m 0,0,1
 697 522 697 522 706.5 514 c 128,-1,2
 716 506 716 506 716 492 c 0,3,4
 716 489 716 489 715 485 c 128,-1,5
 714 481 714 481 713 479 c 2,6,-1
 559 19 l 2,7,8
 555 10 555 10 546.5 4.5 c 128,-1,9
 538 -1 538 -1 529 0 c 0,10,11
 511 1 511 1 502 19 c 2,12,-1
 361 351 l 1,13,-1
 379 347 l 1,14,-1
 254 19 l 2,15,16
 246 1 246 1 227 0 c 0,17,18
 218 -1 218 -1 209 4.5 c 128,-1,19
 200 10 200 10 197 19 c 2,20,-1
 39 479 l 2,21,22
 36 486 36 486 36 492 c 0,23,24
 36 505 36 505 44.5 513.5 c 128,-1,25
 53 522 53 522 67 522 c 0,26,27
 76 522 76 522 83.5 517 c 128,-1,28
 91 512 91 512 94 502 c 2,29,-1
 236 76 l 1,30,-1
 217 77 l 1,31,-1
 346 402 l 2,32,33
 354 421 354 421 374 421 c 0,34,35
 384 421 384 421 391 416 c 128,-1,36
 398 411 398 411 402 402 c 2,37,-1
 539 76 l 1,38,-1
 517 75 l 1,39,-1
 658 502 l 2,40,41
 664 522 664 522 686 522 c 0,0,1
EndSplineSet
EndChar

StartChar: x
Encoding: 120 120 474
Width: 484
GlyphClass: 2
Flags: W
AnchorPoint: "Anchor-2" 243 0 basechar 0
AnchorPoint: "Anchor-0" 243 503 basechar 0
LayerCount: 2
Fore
SplineSet
65 516 m 0,0,1
 80 516 80 516 89 503 c 2,2,-1
 443 45 l 2,3,4
 450 37 450 37 450 27 c 0,5,6
 450 15 450 15 441 6 c 128,-1,7
 432 -3 432 -3 420 -3 c 0,8,9
 406 -3 406 -3 395 10 c 2,10,-1
 40 468 l 2,11,12
 34 475 34 475 34 486 c 0,13,14
 34 499 34 499 43.5 507.5 c 128,-1,15
 53 516 53 516 65 516 c 0,0,1
65 -3 m 0,16,17
 55 -3 55 -3 45.5 4 c 128,-1,18
 36 11 36 11 36 24 c 0,19,20
 36 35 36 35 43 43 c 2,21,-1
 212 260 l 1,22,-1
 245 212 l 1,23,-1
 89 9 l 2,24,25
 80 -3 80 -3 65 -3 c 0,16,17
420 516 m 0,26,27
 433 516 433 516 440.5 508.5 c 128,-1,28
 448 501 448 501 448 490 c 0,29,30
 448 485 448 485 446.5 480 c 128,-1,31
 445 475 445 475 441 471 c 2,32,-1
 272 249 l 1,33,-1
 241 297 l 1,34,-1
 395 503 l 2,35,36
 406 516 406 516 420 516 c 0,26,27
EndSplineSet
EndChar

StartChar: y
Encoding: 121 121 475
Width: 568
GlyphClass: 2
Flags: W
AnchorPoint: "Anchor-2" 356 0 basechar 0
AnchorPoint: "Anchor-0" 284 503 basechar 0
LayerCount: 2
Fore
SplineSet
460 520 m 256,0,1
 473 520 473 520 481.5 511 c 128,-1,2
 490 502 490 502 490 490 c 2,3,-1
 490 49 l 2,4,5
 490 -32 490 -32 458 -87.5 c 128,-1,6
 426 -143 426 -143 372 -171.5 c 128,-1,7
 318 -200 318 -200 249 -200 c 0,8,9
 206 -200 206 -200 169.5 -190.5 c 128,-1,10
 133 -181 133 -181 110 -166 c 0,11,12
 98 -159 98 -159 92 -149 c 128,-1,13
 86 -139 86 -139 91 -128 c 0,14,15
 96 -114 96 -114 106.5 -109.5 c 128,-1,16
 117 -105 117 -105 128 -110 c 0,17,18
 145 -119 145 -119 177 -132 c 128,-1,19
 209 -145 209 -145 250 -145 c 0,20,21
 305 -145 305 -145 345.5 -122 c 128,-1,22
 386 -99 386 -99 408 -55.5 c 128,-1,23
 430 -12 430 -12 430 48 c 2,24,-1
 430 120 l 1,25,-1
 437 96 l 1,26,27
 422 65 422 65 394.5 41 c 128,-1,28
 367 17 367 17 331.5 3.5 c 128,-1,29
 296 -10 296 -10 256 -10 c 0,30,31
 196 -10 196 -10 156.5 14.5 c 128,-1,32
 117 39 117 39 98 82 c 128,-1,33
 79 125 79 125 79 183 c 2,34,-1
 79 490 l 2,35,36
 79 502 79 502 87 511 c 128,-1,37
 95 520 95 520 109 520 c 0,38,39
 122 520 122 520 130.5 511 c 128,-1,40
 139 502 139 502 139 490 c 2,41,-1
 139 192 l 2,42,43
 139 122 139 122 169.5 84 c 128,-1,44
 200 46 200 46 269 46 c 0,45,46
 312 46 312 46 348 66.5 c 128,-1,47
 384 87 384 87 407 120.5 c 128,-1,48
 430 154 430 154 430 192 c 2,49,-1
 430 490 l 2,50,51
 430 502 430 502 438.5 511 c 128,-1,52
 447 520 447 520 460 520 c 256,0,1
EndSplineSet
EndChar

StartChar: z
Encoding: 122 122 485
Width: 479
GlyphClass: 2
Flags: W
AnchorPoint: "Anchor-2" 236 0 basechar 0
AnchorPoint: "Anchor-0" 257 503 basechar 0
LayerCount: 2
Fore
SplineSet
399 56 m 2,0,1
 411 56 411 56 419.5 47.5 c 128,-1,2
 428 39 428 39 428 28 c 0,3,4
 428 16 428 16 419.5 8 c 128,-1,5
 411 0 411 0 399 0 c 2,6,-1
 74 0 l 2,7,8
 61 0 61 0 53 10 c 128,-1,9
 45 20 45 20 45 29 c 0,10,11
 45 35 45 35 47 40.5 c 128,-1,12
 49 46 49 46 54 52 c 2,13,-1
 357 471 l 1,14,-1
 361 462 l 1,15,-1
 99 462 l 2,16,17
 87 462 87 462 78.5 470.5 c 128,-1,18
 70 479 70 479 70 490 c 0,19,20
 70 502 70 502 78.5 510 c 128,-1,21
 87 518 87 518 99 518 c 2,22,-1
 406 518 l 2,23,24
 417 518 417 518 425.5 509 c 128,-1,25
 434 500 434 500 434 488 c 0,26,27
 434 482 434 482 432 477 c 128,-1,28
 430 472 430 472 426 466 c 2,29,-1
 125 51 l 1,30,-1
 113 56 l 1,31,-1
 399 56 l 2,0,1
EndSplineSet
EndChar

StartChar: a.ss01
Encoding: 65540 -1 490
Width: 538
GlyphClass: 2
Flags: W
AnchorPoint: "Anchor-3" 514 0 basechar 0
AnchorPoint: "Anchor-2" 269 0 basechar 0
AnchorPoint: "Anchor-0" 267 515 basechar 0
LayerCount: 2
Fore
SplineSet
248 44 m 0,0,1
 310 44 310 44 348 73.5 c 128,-1,2
 386 103 386 103 386 153 c 0,3,4
 386 205 386 205 347.5 233 c 128,-1,5
 309 261 309 261 247 261 c 0,6,7
 188 261 188 261 148.5 233 c 128,-1,8
 109 205 109 205 109 153 c 0,9,10
 109 102 109 102 148.5 73 c 128,-1,11
 188 44 188 44 248 44 c 0,0,1
221 -10 m 0,12,13
 168 -10 168 -10 129.5 12 c 128,-1,14
 91 34 91 34 70 71 c 128,-1,15
 49 108 49 108 49 150 c 0,16,17
 49 203 49 203 78 239 c 128,-1,18
 107 275 107 275 151.5 294.5 c 128,-1,19
 196 314 196 314 242 314 c 0,20,21
 282 314 282 314 316 300 c 128,-1,22
 350 286 350 286 374.5 263 c 128,-1,23
 399 240 399 240 409 211 c 1,24,-1
 380 223 l 1,25,-1
 380 356 l 2,26,27
 380 413 380 413 342 440 c 128,-1,28
 304 467 304 467 250 467 c 0,29,30
 208 467 208 467 166.5 447.5 c 128,-1,31
 125 428 125 428 101 396 c 0,32,33
 91 384 91 384 77 384 c 0,34,35
 67 384 67 384 59 392.5 c 128,-1,36
 51 401 51 401 51 411 c 0,37,38
 51 416 51 416 52.5 421 c 128,-1,39
 54 426 54 426 58 432 c 0,40,41
 77 458 77 458 106 478.5 c 128,-1,42
 135 499 135 499 173 511 c 128,-1,43
 211 523 211 523 253 523 c 0,44,45
 306 523 306 523 348.5 507 c 128,-1,46
 391 491 391 491 415.5 456 c 128,-1,47
 440 421 440 421 440 360 c 2,48,-1
 440 96 l 2,49,50
 440 75 440 75 449.5 64.5 c 128,-1,51
 459 54 459 54 469 54 c 0,52,53
 481 54 481 54 489.5 60.5 c 128,-1,54
 498 67 498 67 511 67 c 0,55,56
 519 67 519 67 525 61 c 128,-1,57
 531 55 531 55 531 44 c 0,58,59
 531 26 531 26 505.5 13 c 128,-1,60
 480 0 480 0 452 0 c 256,61,62
 424 0 424 0 406 20 c 128,-1,63
 388 40 388 40 380 66 c 1,64,-1
 402 87 l 1,65,66
 386 57 386 57 359.5 34.5 c 128,-1,67
 333 12 333 12 298 1 c 128,-1,68
 263 -10 263 -10 221 -10 c 0,12,13
EndSplineSet
EndChar

StartChar: aogonek.ss01
Encoding: 65562 -1 512
Width: 523
GlyphClass: 2
Flags: W
AnchorPoint: "Anchor-3" 513 0 basechar 0
AnchorPoint: "Anchor-2" 268 0 basechar 0
AnchorPoint: "Anchor-0" 238 515 basechar 0
LayerCount: 2
Fore
SplineSet
254 44 m 0,0,1
 313 44 313 44 348.5 73.5 c 128,-1,2
 384 103 384 103 384 153 c 0,3,4
 384 205 384 205 350 233 c 128,-1,5
 316 261 316 261 258 261 c 0,6,7
 196 261 196 261 159.5 233 c 128,-1,8
 123 205 123 205 123 153 c 0,9,10
 123 103 123 103 158 73.5 c 128,-1,11
 193 44 193 44 254 44 c 0,0,1
434 -200 m 0,12,13
 397 -200 397 -200 367.5 -175 c 128,-1,14
 338 -150 338 -150 338 -105 c 0,15,16
 338 -77 338 -77 348 -56.5 c 128,-1,17
 358 -36 358 -36 374 -21.5 c 128,-1,18
 390 -7 390 -7 409.5 3 c 128,-1,19
 429 13 429 13 448 19 c 1,20,-1
 452 0 l 1,21,22
 414 0 414 0 396.5 20 c 128,-1,23
 379 40 379 40 379 75 c 1,24,-1
 400 88 l 1,25,26
 390 56 390 56 364.5 34 c 128,-1,27
 339 12 339 12 305.5 1 c 128,-1,28
 272 -10 272 -10 235 -10 c 0,29,30
 180 -10 180 -10 140 11 c 128,-1,31
 100 32 100 32 79 68.5 c 128,-1,32
 58 105 58 105 58 151 c 0,33,34
 58 203 58 203 86 239.5 c 128,-1,35
 114 276 114 276 159 295 c 128,-1,36
 204 314 204 314 253 314 c 0,37,38
 291 314 291 314 323 301 c 128,-1,39
 355 288 355 288 378 265.5 c 128,-1,40
 401 243 401 243 410 214 c 1,41,-1
 379 223 l 1,42,-1
 379 356 l 2,43,44
 379 402 379 402 360.5 425.5 c 128,-1,45
 342 449 342 449 313 458 c 128,-1,46
 284 467 284 467 250 467 c 0,47,48
 208 467 208 467 169.5 447.5 c 128,-1,49
 131 428 131 428 107 396 c 0,50,51
 97 384 97 384 83 384 c 0,52,53
 73 384 73 384 65 392.5 c 128,-1,54
 57 401 57 401 57 411 c 0,55,56
 57 416 57 416 58.5 421 c 128,-1,57
 60 426 60 426 64 432 c 0,58,59
 83 458 83 458 110.5 478.5 c 128,-1,60
 138 499 138 499 174.5 511 c 128,-1,61
 211 523 211 523 253 523 c 0,62,63
 304 523 304 523 346 508.5 c 128,-1,64
 388 494 388 494 413.5 459.5 c 128,-1,65
 439 425 439 425 439 360 c 2,66,-1
 439 85 l 2,67,68
 439 65 439 65 448.5 59 c 128,-1,69
 458 53 458 53 469 53 c 0,70,71
 476 53 476 53 481.5 55.5 c 128,-1,72
 487 58 487 58 496 58 c 0,73,74
 504 58 504 58 509.5 52 c 128,-1,75
 515 46 515 46 515 35 c 0,76,77
 515 21 515 21 503 14 c 128,-1,78
 491 7 491 7 474 0 c 0,79,80
 454 -9 454 -9 435 -22.5 c 128,-1,81
 416 -36 416 -36 403.5 -54.5 c 128,-1,82
 391 -73 391 -73 391 -93 c 0,83,84
 391 -120 391 -120 406 -134.5 c 128,-1,85
 421 -149 421 -149 440 -149 c 0,86,87
 461 -149 461 -149 469 -138 c 0,88,89
 475 -130 475 -130 481.5 -126 c 128,-1,90
 488 -122 488 -122 495 -122 c 0,91,92
 505 -122 505 -122 511 -128.5 c 128,-1,93
 517 -135 517 -135 517 -145 c 0,94,95
 517 -159 517 -159 505.5 -172 c 128,-1,96
 494 -185 494 -185 475.5 -192.5 c 128,-1,97
 457 -200 457 -200 434 -200 c 0,12,13
EndSplineSet
EndChar

StartChar: g.ss01
Encoding: 65566 -1 516
Width: 536
GlyphClass: 2
Flags: W
AnchorPoint: "Anchor-2" 229 0 basechar 0
AnchorPoint: "Anchor-0" 238 499 basechar 0
LayerCount: 2
Fore
SplineSet
449 330 m 0,0,1
 449 273 449 273 421 230 c 128,-1,2
 393 187 393 187 346 162.5 c 128,-1,3
 299 138 299 138 240 138 c 0,4,5
 180 138 180 138 133 162.5 c 128,-1,6
 86 187 86 187 58 230 c 128,-1,7
 30 273 30 273 30 330 c 0,8,9
 30 386 30 386 58 429.5 c 128,-1,10
 86 473 86 473 133 498 c 128,-1,11
 180 523 180 523 240 523 c 0,12,13
 299 523 299 523 346 498 c 128,-1,14
 393 473 393 473 421 429.5 c 128,-1,15
 449 386 449 386 449 330 c 0,0,1
391 327 m 0,16,17
 391 392 391 392 348 430 c 128,-1,18
 305 468 305 468 240 468 c 0,19,20
 174 468 174 468 132 430 c 128,-1,21
 90 392 90 392 90 327 c 0,22,23
 90 263 90 263 132 225 c 128,-1,24
 174 187 174 187 240 187 c 0,25,26
 305 187 305 187 348 225 c 128,-1,27
 391 263 391 263 391 327 c 0,16,17
221 115 m 0,28,29
 206 115 206 115 194 119.5 c 128,-1,30
 182 124 182 124 178 136 c 2,31,-1
 167 172 l 1,32,-1
 241 167 l 1,33,34
 369 167 369 167 438 118 c 128,-1,35
 507 69 507 69 507 -9 c 0,36,37
 507 -67 507 -67 470.5 -110.5 c 128,-1,38
 434 -154 434 -154 371 -177.5 c 128,-1,39
 308 -201 308 -201 230 -201 c 0,40,41
 165 -201 165 -201 121.5 -185 c 128,-1,42
 78 -169 78 -169 56 -148 c 128,-1,43
 34 -127 34 -127 34 -113 c 0,44,45
 34 -100 34 -100 42 -91 c 128,-1,46
 50 -82 50 -82 62 -82 c 256,47,48
 74 -82 74 -82 84.5 -91.5 c 128,-1,49
 95 -101 95 -101 105 -110 c 0,50,51
 118 -122 118 -122 154.5 -133.5 c 128,-1,52
 191 -145 191 -145 233 -145 c 0,53,54
 295 -145 295 -145 343.5 -130 c 128,-1,55
 392 -115 392 -115 419.5 -85 c 128,-1,56
 447 -55 447 -55 447 -11 c 0,57,58
 447 21 447 21 424.5 50 c 128,-1,59
 402 79 402 79 352.5 97 c 128,-1,60
 303 115 303 115 221 115 c 0,28,29
408 383 m 1,61,-1
 388 423 l 1,62,-1
 453 502 l 2,63,64
 461 512 461 512 468 516 c 128,-1,65
 475 520 475 520 485 520 c 0,66,67
 497 520 497 520 507 511 c 128,-1,68
 517 502 517 502 516 488 c 0,69,70
 516 480 516 480 512 473.5 c 128,-1,71
 508 467 508 467 500 459 c 2,72,-1
 408 383 l 1,61,-1
EndSplineSet
EndChar

StartChar: ordfeminine
Encoding: 170 170 530
Width: 350
Flags: W
LayerCount: 2
Fore
SplineSet
147 391 m 0,0,1
 105 391 105 391 77 414 c 128,-1,2
 49 437 49 437 35 474.5 c 128,-1,3
 21 512 21 512 21 558 c 0,4,5
 21 602 21 602 38.5 637 c 128,-1,6
 56 672 56 672 86.5 693 c 128,-1,7
 117 714 117 714 156 714 c 0,8,9
 204 714 204 714 236 681.5 c 128,-1,10
 268 649 268 649 268 586 c 1,11,-1
 253 632 l 1,12,-1
 253 677 l 2,13,14
 253 686 253 686 260.5 694 c 128,-1,15
 268 702 268 702 280 702 c 0,16,17
 293 702 293 702 300.5 694.5 c 128,-1,18
 308 687 308 687 308 677 c 2,19,-1
 308 426 l 2,20,21
 308 415 308 415 299.5 408 c 128,-1,22
 291 401 291 401 280 401 c 0,23,24
 268 401 268 401 260.5 408.5 c 128,-1,25
 253 416 253 416 253 426 c 2,26,-1
 253 474 l 1,27,-1
 268 506 l 1,28,29
 268 481 268 481 252.5 454.5 c 128,-1,30
 237 428 237 428 209.5 409.5 c 128,-1,31
 182 391 182 391 147 391 c 0,0,1
161 439 m 0,32,33
 203 439 203 439 230 470 c 128,-1,34
 257 501 257 501 257 555 c 0,35,36
 257 608 257 608 232 637 c 128,-1,37
 207 666 207 666 166 666 c 0,38,39
 130 666 130 666 103 634.5 c 128,-1,40
 76 603 76 603 76 558 c 0,41,42
 76 509 76 509 97 474 c 128,-1,43
 118 439 118 439 161 439 c 0,32,33
EndSplineSet
EndChar

StartChar: ordmasculine
Encoding: 186 186 531
Width: 349
Flags: W
LayerCount: 2
Fore
SplineSet
326 549 m 0,0,1
 326 504 326 504 306 468.5 c 128,-1,2
 286 433 286 433 251.5 412.5 c 128,-1,3
 217 392 217 392 173 392 c 0,4,5
 130 392 130 392 96 412.5 c 128,-1,6
 62 433 62 433 42.5 468.5 c 128,-1,7
 23 504 23 504 23 549 c 0,8,9
 23 595 23 595 42.5 631 c 128,-1,10
 62 667 62 667 96 688.5 c 128,-1,11
 130 710 130 710 173 710 c 0,12,13
 217 710 217 710 251.5 688.5 c 128,-1,14
 286 667 286 667 306 631 c 128,-1,15
 326 595 326 595 326 549 c 0,0,1
274 549 m 0,16,17
 274 597 274 597 246.5 628.5 c 128,-1,18
 219 660 219 660 173 660 c 0,19,20
 128 660 128 660 101.5 628.5 c 128,-1,21
 75 597 75 597 75 549 c 0,22,23
 75 504 75 504 101.5 472.5 c 128,-1,24
 128 441 128 441 173 441 c 0,25,26
 219 441 219 441 246.5 472.5 c 128,-1,27
 274 504 274 504 274 549 c 0,16,17
EndSplineSet
EndChar

StartChar: pi
Encoding: 960 960 532
Width: 612
Flags: W
LayerCount: 2
Fore
SplineSet
146 0 m 256,0,1
 134 0 134 0 126.5 8 c 128,-1,2
 119 16 119 16 119 27 c 2,3,-1
 119 456 l 2,4,5
 119 461 119 461 114 461 c 2,6,-1
 66 461 l 2,7,8
 55 461 55 461 47 468.5 c 128,-1,9
 39 476 39 476 39 488 c 256,10,11
 39 500 39 500 47 507.5 c 128,-1,12
 55 515 55 515 66 515 c 2,13,-1
 542 515 l 2,14,15
 554 515 554 515 562 507.5 c 128,-1,16
 570 500 570 500 570 488 c 256,17,18
 570 476 570 476 562 468.5 c 128,-1,19
 554 461 554 461 542 461 c 2,20,-1
 493 461 l 2,21,22
 488 461 488 461 488 456 c 2,23,-1
 488 27 l 2,24,25
 488 16 488 16 480.5 8 c 128,-1,26
 473 0 473 0 461 0 c 256,27,28
 449 0 449 0 441.5 8 c 128,-1,29
 434 16 434 16 434 27 c 2,30,-1
 434 456 l 2,31,32
 434 461 434 461 429 461 c 2,33,-1
 179 461 l 2,34,35
 174 461 174 461 174 456 c 2,36,-1
 174 27 l 2,37,38
 174 16 174 16 166 8 c 128,-1,39
 158 0 158 0 146 0 c 256,0,1
EndSplineSet
EndChar

StartChar: zero
Encoding: 48 48 533
Width: 595
GlyphClass: 2
Flags: W
AnchorPoint: "Anchor-4" 290 351 basechar 0
LayerCount: 2
Fore
SplineSet
297 -10 m 0,0,1
 217 -10 217 -10 163 38 c 128,-1,2
 109 86 109 86 82 167.5 c 128,-1,3
 55 249 55 249 55 350 c 0,4,5
 55 452 55 452 82 533.5 c 128,-1,6
 109 615 109 615 163 662.5 c 128,-1,7
 217 710 217 710 297 710 c 0,8,9
 379 710 379 710 432.5 662.5 c 128,-1,10
 486 615 486 615 513 533.5 c 128,-1,11
 540 452 540 452 540 350 c 0,12,13
 540 249 540 249 513 167.5 c 128,-1,14
 486 86 486 86 432.5 38 c 128,-1,15
 379 -10 379 -10 297 -10 c 0,0,1
297 52 m 0,16,17
 356 52 356 52 395.5 89 c 128,-1,18
 435 126 435 126 455.5 193.5 c 128,-1,19
 476 261 476 261 476 350 c 0,20,21
 476 440 476 440 455.5 507.5 c 128,-1,22
 435 575 435 575 395.5 612 c 128,-1,23
 356 649 356 649 297 649 c 0,24,25
 239 649 239 649 199.5 612 c 128,-1,26
 160 575 160 575 139.5 507.5 c 128,-1,27
 119 440 119 440 119 350 c 0,28,29
 119 261 119 261 139.5 193.5 c 128,-1,30
 160 126 160 126 199.5 89 c 128,-1,31
 239 52 239 52 297 52 c 0,16,17
EndSplineSet
Substitution2: "'zero' Slashed Zero in Latin lookup 38 subtable" zero.zero
Substitution2: "'frac' Diagonal Fractions in Latin lookup 28 subtable" zero.numr
Substitution2: "'dnom' Denominators in Latin lookup 26 subtable" zero.dnom
Substitution2: "'numr' Numerators in Latin lookup 25 subtable" zero.numr
Substitution2: "'sups' Superscript in Latin lookup 24 subtable" uni2070
Substitution2: "'sinf' Scientific Inferiors in Latin lookup 23 subtable" uni2080
Substitution2: "'subs' Subscript in Latin lookup 22 subtable" uni2080
AlternateSubs2: "'aalt' Access All Alternates in Latin lookup 1 subtable" zero.zero zero.dnom uni2080 zero.numr uni2070
EndChar

StartChar: one
Encoding: 49 49 534
Width: 370
Flags: W
LayerCount: 2
Fore
SplineSet
226 0 m 256,0,1
 212 0 212 0 203 9 c 128,-1,2
 194 18 194 18 194 30 c 2,3,-1
 194 632 l 1,4,-1
 205 622 l 1,5,-1
 72 533 l 2,6,7
 64 527 64 527 55 527 c 0,8,9
 43 527 43 527 33.5 537 c 128,-1,10
 24 547 24 547 24 559 c 0,11,12
 24 575 24 575 40 584 c 2,13,-1
 207 695 l 2,14,15
 213 699 213 699 219.5 700 c 128,-1,16
 226 701 226 701 231 700 c 0,17,18
 244 699 244 699 251 690.5 c 128,-1,19
 258 682 258 682 258 670 c 2,20,-1
 258 30 l 2,21,22
 258 18 258 18 249 9 c 128,-1,23
 240 0 240 0 226 0 c 256,0,1
EndSplineSet
Substitution2: "'frac' Diagonal Fractions in Latin lookup 28 subtable" one.numr
Substitution2: "'dnom' Denominators in Latin lookup 26 subtable" one.dnom
Substitution2: "'numr' Numerators in Latin lookup 25 subtable" one.numr
Substitution2: "'sups' Superscript in Latin lookup 24 subtable" uni00B9
Substitution2: "'sinf' Scientific Inferiors in Latin lookup 23 subtable" uni2081
Substitution2: "'subs' Subscript in Latin lookup 22 subtable" uni2081
AlternateSubs2: "'aalt' Access All Alternates in Latin lookup 1 subtable" one.dnom uni2081 one.numr uni00B9
EndChar

StartChar: two
Encoding: 50 50 535
Width: 554
Flags: W
LayerCount: 2
Fore
SplineSet
474 58 m 2,0,1
 486 58 486 58 494.5 49.5 c 128,-1,2
 503 41 503 41 503 29 c 0,3,4
 503 16 503 16 494.5 8 c 128,-1,5
 486 0 486 0 474 0 c 2,6,-1
 99 0 l 2,7,8
 86 0 86 0 76.5 7.5 c 128,-1,9
 67 15 67 15 67 30 c 0,10,11
 67 41 67 41 75 51 c 2,12,-1
 306 306 l 2,13,14
 361 366 361 366 388.5 416.5 c 128,-1,15
 416 467 416 467 416 507 c 0,16,17
 416 573 416 573 376 613 c 128,-1,18
 336 653 336 653 268 653 c 0,19,20
 237 653 237 653 206.5 640 c 128,-1,21
 176 627 176 627 152.5 606 c 128,-1,22
 129 585 129 585 116 558 c 0,23,24
 110 548 110 548 103.5 544 c 128,-1,25
 97 540 97 540 89 540 c 0,26,27
 77 540 77 540 68 547.5 c 128,-1,28
 59 555 59 555 59 566 c 0,29,30
 59 573 59 573 62.5 580 c 128,-1,31
 66 587 66 587 73 596 c 0,32,33
 91 627 91 627 123 653 c 128,-1,34
 155 679 155 679 194.5 694.5 c 128,-1,35
 234 710 234 710 272 710 c 0,36,37
 336 710 336 710 382.5 685.5 c 128,-1,38
 429 661 429 661 454.5 616.5 c 128,-1,39
 480 572 480 572 480 511 c 0,40,41
 480 459 480 459 447.5 397.5 c 128,-1,42
 415 336 415 336 351 265 c 2,43,-1
 156 46 l 1,44,-1
 146 58 l 1,45,-1
 474 58 l 2,0,1
EndSplineSet
Substitution2: "'frac' Diagonal Fractions in Latin lookup 28 subtable" two.numr
Substitution2: "'dnom' Denominators in Latin lookup 26 subtable" two.dnom
Substitution2: "'numr' Numerators in Latin lookup 25 subtable" two.numr
Substitution2: "'sups' Superscript in Latin lookup 24 subtable" uni00B2
Substitution2: "'sinf' Scientific Inferiors in Latin lookup 23 subtable" uni2082
Substitution2: "'subs' Subscript in Latin lookup 22 subtable" uni2082
AlternateSubs2: "'aalt' Access All Alternates in Latin lookup 1 subtable" two.dnom uni2082 two.numr uni00B2
EndChar

StartChar: three
Encoding: 51 51 536
Width: 524
Flags: W
LayerCount: 2
Fore
SplineSet
89 103 m 0,0,1
 94 103 94 103 99.5 101 c 128,-1,2
 105 99 105 99 113 92 c 0,3,4
 134 70 134 70 163 58.5 c 128,-1,5
 192 47 192 47 229 47 c 0,6,7
 278 47 278 47 318.5 69 c 128,-1,8
 359 91 359 91 383 130.5 c 128,-1,9
 407 170 407 170 407 221 c 0,10,11
 407 279 407 279 381.5 314.5 c 128,-1,12
 356 350 356 350 316.5 367.5 c 128,-1,13
 277 385 277 385 236 385 c 0,14,15
 225 385 225 385 214.5 383.5 c 128,-1,16
 204 382 204 382 195 380 c 128,-1,17
 186 378 186 378 181 378 c 0,18,19
 168 378 168 378 161 386.5 c 128,-1,20
 154 395 154 395 154 408 c 0,21,22
 154 415 154 415 157 420.5 c 128,-1,23
 160 426 160 426 165 433 c 2,24,-1
 368 654 l 1,25,-1
 380 638 l 1,26,-1
 77 638 l 2,27,28
 65 638 65 638 56.5 646.5 c 128,-1,29
 48 655 48 655 48 667 c 256,30,31
 48 679 48 679 56.5 687 c 128,-1,32
 65 695 65 695 77 695 c 2,33,-1
 413 695 l 2,34,35
 430 695 430 695 437 684.5 c 128,-1,36
 444 674 444 674 444 664 c 0,37,38
 444 658 444 658 441 652.5 c 128,-1,39
 438 647 438 647 433 641 c 2,40,-1
 230 420 l 1,41,-1
 208 433 l 1,42,43
 211 436 211 436 228.5 439.5 c 128,-1,44
 246 443 246 443 256 443 c 0,45,46
 311 443 311 443 359.5 417 c 128,-1,47
 408 391 408 391 438.5 342.5 c 128,-1,48
 469 294 469 294 469 223 c 0,49,50
 469 153 469 153 436 100.5 c 128,-1,51
 403 48 403 48 347 19 c 128,-1,52
 291 -10 291 -10 223 -10 c 0,53,54
 182 -10 182 -10 142 4 c 128,-1,55
 102 18 102 18 72 46 c 0,56,57
 65 52 65 52 62 58 c 128,-1,58
 59 64 59 64 59 70 c 0,59,60
 59 82 59 82 67.5 92.5 c 128,-1,61
 76 103 76 103 89 103 c 0,0,1
EndSplineSet
Substitution2: "'frac' Diagonal Fractions in Latin lookup 28 subtable" three.numr
Substitution2: "'dnom' Denominators in Latin lookup 26 subtable" three.dnom
Substitution2: "'numr' Numerators in Latin lookup 25 subtable" three.numr
Substitution2: "'sups' Superscript in Latin lookup 24 subtable" uni00B3
Substitution2: "'sinf' Scientific Inferiors in Latin lookup 23 subtable" uni2083
Substitution2: "'subs' Subscript in Latin lookup 22 subtable" uni2083
AlternateSubs2: "'aalt' Access All Alternates in Latin lookup 1 subtable" three.dnom uni2083 three.numr uni00B3
EndChar

StartChar: four
Encoding: 52 52 537
Width: 527
Flags: W
LayerCount: 2
Fore
SplineSet
367 0 m 256,0,1
 354 0 354 0 346 9 c 128,-1,2
 338 18 338 18 338 30 c 2,3,-1
 338 617 l 1,4,-1
 351 609 l 1,5,-1
 88 261 l 1,6,-1
 85 272 l 1,7,-1
 469 272 l 2,8,9
 481 272 481 272 489.5 264 c 128,-1,10
 498 256 498 256 498 244 c 256,11,12
 498 232 498 232 489.5 224 c 128,-1,13
 481 216 481 216 469 216 c 2,14,-1
 44 216 l 2,15,16
 32 216 32 216 23 225.5 c 128,-1,17
 14 235 14 235 14 247 c 0,18,19
 14 258 14 258 21 267 c 2,20,-1
 343 688 l 2,21,22
 348 695 348 695 355.5 697.5 c 128,-1,23
 363 700 363 700 368 700 c 0,24,25
 381 700 381 700 389.5 691 c 128,-1,26
 398 682 398 682 398 670 c 2,27,-1
 398 30 l 2,28,29
 398 18 398 18 389 9 c 128,-1,30
 380 0 380 0 367 0 c 256,0,1
EndSplineSet
Substitution2: "'frac' Diagonal Fractions in Latin lookup 28 subtable" four.numr
Substitution2: "'dnom' Denominators in Latin lookup 26 subtable" four.dnom
Substitution2: "'numr' Numerators in Latin lookup 25 subtable" four.numr
Substitution2: "'sups' Superscript in Latin lookup 24 subtable" uni2074
Substitution2: "'sinf' Scientific Inferiors in Latin lookup 23 subtable" uni2084
Substitution2: "'subs' Subscript in Latin lookup 22 subtable" uni2084
AlternateSubs2: "'aalt' Access All Alternates in Latin lookup 1 subtable" four.dnom uni2084 four.numr uni2074
EndChar

StartChar: five
Encoding: 53 53 538
Width: 545
Flags: W
LayerCount: 2
Fore
SplineSet
234 -2 m 0,0,1
 193 -2 193 -2 151.5 11.5 c 128,-1,2
 110 25 110 25 78 52 c 0,3,4
 72 57 72 57 68.5 64 c 128,-1,5
 65 71 65 71 65 78 c 0,6,7
 65 88 65 88 73 97.5 c 128,-1,8
 81 107 81 107 94 107 c 0,9,10
 105 107 105 107 116 98 c 0,11,12
 142 78 142 78 172.5 67 c 128,-1,13
 203 56 203 56 234 56 c 0,14,15
 293 56 293 56 337 78.5 c 128,-1,16
 381 101 381 101 405 142.5 c 128,-1,17
 429 184 429 184 429 239 c 0,18,19
 429 290 429 290 407 327.5 c 128,-1,20
 385 365 385 365 344.5 386.5 c 128,-1,21
 304 408 304 408 249 408 c 0,22,23
 213 408 213 408 183.5 397 c 128,-1,24
 154 386 154 386 132.5 374.5 c 128,-1,25
 111 363 111 363 98 363 c 0,26,27
 86 363 86 363 78.5 369 c 128,-1,28
 71 375 71 375 68.5 384 c 128,-1,29
 66 393 66 393 68 403 c 2,30,-1
 111 670 l 2,31,32
 112 679 112 679 120.5 686.5 c 128,-1,33
 129 694 129 694 142 694 c 2,34,-1
 443 694 l 2,35,36
 455 694 455 694 463.5 685.5 c 128,-1,37
 472 677 472 677 472 665 c 0,38,39
 472 652 472 652 463.5 643.5 c 128,-1,40
 455 635 455 635 443 635 c 2,41,-1
 156 635 l 1,42,-1
 165 644 l 1,43,-1
 124 407 l 1,44,-1
 106 420 l 1,45,46
 119 430 119 430 143.5 440 c 128,-1,47
 168 450 168 450 198.5 457.5 c 128,-1,48
 229 465 229 465 263 465 c 0,49,50
 328 465 328 465 379 436.5 c 128,-1,51
 430 408 430 408 459.5 357.5 c 128,-1,52
 489 307 489 307 489 241 c 0,53,54
 489 168 489 168 457.5 113.5 c 128,-1,55
 426 59 426 59 369 28.5 c 128,-1,56
 312 -2 312 -2 234 -2 c 0,0,1
EndSplineSet
Substitution2: "'frac' Diagonal Fractions in Latin lookup 28 subtable" five.numr
Substitution2: "'dnom' Denominators in Latin lookup 26 subtable" five.dnom
Substitution2: "'numr' Numerators in Latin lookup 25 subtable" five.numr
Substitution2: "'sups' Superscript in Latin lookup 24 subtable" uni2075
Substitution2: "'sinf' Scientific Inferiors in Latin lookup 23 subtable" uni2085
Substitution2: "'subs' Subscript in Latin lookup 22 subtable" uni2085
AlternateSubs2: "'aalt' Access All Alternates in Latin lookup 1 subtable" five.dnom uni2085 five.numr uni2075
EndChar

StartChar: six
Encoding: 54 54 539
Width: 538
Flags: W
LayerCount: 2
Fore
SplineSet
287 -10 m 0,0,1
 229 -10 229 -10 185.5 11 c 128,-1,2
 142 32 142 32 113.5 67.5 c 128,-1,3
 85 103 85 103 71.5 148 c 128,-1,4
 58 193 58 193 58 240 c 0,5,6
 58 288 58 288 70 343.5 c 128,-1,7
 82 399 82 399 107 456 c 128,-1,8
 132 513 132 513 168.5 564 c 128,-1,9
 205 615 205 615 253.5 655.5 c 128,-1,10
 302 696 302 696 363 719 c 0,11,12
 370 721 370 721 375 721 c 0,13,14
 388 721 388 721 397.5 714 c 128,-1,15
 407 707 407 707 407 690 c 0,16,17
 407 680 407 680 400.5 672.5 c 128,-1,18
 394 665 394 665 383 661 c 0,19,20
 341 643 341 643 300 610 c 128,-1,21
 259 577 259 577 224 534 c 128,-1,22
 189 491 189 491 164.5 441.5 c 128,-1,23
 140 392 140 392 130 341 c 1,24,-1
 108 328 l 1,25,26
 126 361 126 361 154.5 386.5 c 128,-1,27
 183 412 183 412 220 427.5 c 128,-1,28
 257 443 257 443 300 443 c 0,29,30
 345 443 345 443 383 424 c 128,-1,31
 421 405 421 405 448.5 372.5 c 128,-1,32
 476 340 476 340 491.5 299 c 128,-1,33
 507 258 507 258 507 214 c 0,34,35
 507 155 507 155 478.5 104 c 128,-1,36
 450 53 450 53 400.5 21.5 c 128,-1,37
 351 -10 351 -10 287 -10 c 0,0,1
286 48 m 0,38,39
 332 48 332 48 368 69 c 128,-1,40
 404 90 404 90 424.5 127.5 c 128,-1,41
 445 165 445 165 445 214 c 0,42,43
 445 259 445 259 427.5 297.5 c 128,-1,44
 410 336 410 336 375.5 360.5 c 128,-1,45
 341 385 341 385 290 385 c 0,46,47
 237 385 237 385 198.5 361 c 128,-1,48
 160 337 160 337 139.5 297.5 c 128,-1,49
 119 258 119 258 119 211 c 0,50,51
 119 169 119 169 139 131.5 c 128,-1,52
 159 94 159 94 196.5 71 c 128,-1,53
 234 48 234 48 286 48 c 0,38,39
EndSplineSet
Substitution2: "'frac' Diagonal Fractions in Latin lookup 28 subtable" six.numr
Substitution2: "'dnom' Denominators in Latin lookup 26 subtable" six.dnom
Substitution2: "'numr' Numerators in Latin lookup 25 subtable" six.numr
Substitution2: "'sups' Superscript in Latin lookup 24 subtable" uni2076
Substitution2: "'sinf' Scientific Inferiors in Latin lookup 23 subtable" uni2086
Substitution2: "'subs' Subscript in Latin lookup 22 subtable" uni2086
AlternateSubs2: "'aalt' Access All Alternates in Latin lookup 1 subtable" six.dnom uni2086 six.numr uni2076
EndChar

StartChar: seven
Encoding: 55 55 540
Width: 513
Flags: W
LayerCount: 2
Fore
SplineSet
178 -3 m 0,0,1
 166 -3 166 -3 156 5 c 128,-1,2
 146 13 146 13 146 25 c 0,3,4
 146 32 146 32 149 40 c 2,5,-1
 415 651 l 1,6,-1
 426 637 l 1,7,-1
 88 637 l 2,8,9
 76 637 76 637 67.5 645.5 c 128,-1,10
 59 654 59 654 59 666 c 0,11,12
 59 679 59 679 67.5 687 c 128,-1,13
 76 695 76 695 88 695 c 2,14,-1
 455 695 l 2,15,16
 470 695 470 695 477 687 c 128,-1,17
 484 679 484 679 484 667 c 0,18,19
 484 659 484 659 481 652 c 2,20,-1
 206 17 l 2,21,22
 203 8 203 8 195 2.5 c 128,-1,23
 187 -3 187 -3 178 -3 c 0,0,1
EndSplineSet
Substitution2: "'frac' Diagonal Fractions in Latin lookup 28 subtable" seven.numr
Substitution2: "'dnom' Denominators in Latin lookup 26 subtable" seven.dnom
Substitution2: "'numr' Numerators in Latin lookup 25 subtable" seven.numr
Substitution2: "'sups' Superscript in Latin lookup 24 subtable" uni2077
Substitution2: "'sinf' Scientific Inferiors in Latin lookup 23 subtable" uni2087
Substitution2: "'subs' Subscript in Latin lookup 22 subtable" uni2087
AlternateSubs2: "'aalt' Access All Alternates in Latin lookup 1 subtable" seven.dnom uni2087 seven.numr uni2077
EndChar

StartChar: eight
Encoding: 56 56 541
Width: 540
Flags: W
LayerCount: 2
Fore
SplineSet
364 352 m 1,0,-1
 361 361 l 1,1,2
 395 348 395 348 423 322.5 c 128,-1,3
 451 297 451 297 468 262.5 c 128,-1,4
 485 228 485 228 485 187 c 0,5,6
 485 133 485 133 456.5 89 c 128,-1,7
 428 45 428 45 379 19 c 128,-1,8
 330 -7 330 -7 270 -7 c 0,9,10
 209 -7 209 -7 160.5 19 c 128,-1,11
 112 45 112 45 83.5 89 c 128,-1,12
 55 133 55 133 55 187 c 0,13,14
 55 231 55 231 72.5 265.5 c 128,-1,15
 90 300 90 300 118.5 324 c 128,-1,16
 147 348 147 348 178 361 c 1,17,-1
 175 351 l 1,18,19
 148 364 148 364 124.5 386.5 c 128,-1,20
 101 409 101 409 86 440.5 c 128,-1,21
 71 472 71 472 71 510 c 0,22,23
 71 564 71 564 97.5 607 c 128,-1,24
 124 650 124 650 169.5 675 c 128,-1,25
 215 700 215 700 270 700 c 256,26,27
 325 700 325 700 369.5 675 c 128,-1,28
 414 650 414 650 440.5 607 c 128,-1,29
 467 564 467 564 467 510 c 0,30,31
 467 471 467 471 452 440 c 128,-1,32
 437 409 437 409 413 386.5 c 128,-1,33
 389 364 389 364 364 352 c 1,0,-1
133 510 m 0,34,35
 133 470 133 470 152 440 c 128,-1,36
 171 410 171 410 202 393 c 128,-1,37
 233 376 233 376 270 376 c 0,38,39
 306 376 306 376 337 393 c 128,-1,40
 368 410 368 410 386.5 440 c 128,-1,41
 405 470 405 470 405 510 c 0,42,43
 405 569 405 569 367 606 c 128,-1,44
 329 643 329 643 270 643 c 0,45,46
 209 643 209 643 171 606 c 128,-1,47
 133 569 133 569 133 510 c 0,34,35
270 50 m 0,48,49
 338 50 338 50 380.5 89 c 128,-1,50
 423 128 423 128 423 187 c 0,51,52
 423 227 423 227 402 259 c 128,-1,53
 381 291 381 291 346 309 c 128,-1,54
 311 327 311 327 270 327 c 256,55,56
 229 327 229 327 194 309 c 128,-1,57
 159 291 159 291 138 259 c 128,-1,58
 117 227 117 227 117 187 c 0,59,60
 117 128 117 128 159 89 c 128,-1,61
 201 50 201 50 270 50 c 0,48,49
EndSplineSet
Substitution2: "'frac' Diagonal Fractions in Latin lookup 28 subtable" eight.numr
Substitution2: "'dnom' Denominators in Latin lookup 26 subtable" eight.dnom
Substitution2: "'numr' Numerators in Latin lookup 25 subtable" eight.numr
Substitution2: "'sups' Superscript in Latin lookup 24 subtable" uni2078
Substitution2: "'sinf' Scientific Inferiors in Latin lookup 23 subtable" uni2088
Substitution2: "'subs' Subscript in Latin lookup 22 subtable" uni2088
AlternateSubs2: "'aalt' Access All Alternates in Latin lookup 1 subtable" eight.dnom uni2088 eight.numr uni2078
EndChar

StartChar: nine
Encoding: 57 57 542
Width: 558
Flags: W
LayerCount: 2
Fore
SplineSet
277 711 m 0,0,1
 336 711 336 711 379.5 690 c 128,-1,2
 423 669 423 669 451 633.5 c 128,-1,3
 479 598 479 598 493 553 c 128,-1,4
 507 508 507 508 507 461 c 0,5,6
 507 413 507 413 494.5 358.5 c 128,-1,7
 482 304 482 304 457.5 248.5 c 128,-1,8
 433 193 433 193 396.5 143 c 128,-1,9
 360 93 360 93 311 53 c 128,-1,10
 262 13 262 13 202 -9 c 0,11,12
 194 -11 194 -11 189 -11 c 0,13,14
 177 -11 177 -11 167.5 -2.5 c 128,-1,15
 158 6 158 6 158 20 c 0,16,17
 158 30 158 30 164 37.5 c 128,-1,18
 170 45 170 45 182 49 c 0,19,20
 239 73 239 73 292 120.5 c 128,-1,21
 345 168 345 168 383.5 230.5 c 128,-1,22
 422 293 422 293 435 360 c 1,23,-1
 456 373 l 1,24,25
 439 341 439 341 410 315 c 128,-1,26
 381 289 381 289 344.5 274.5 c 128,-1,27
 308 260 308 260 265 260 c 0,28,29
 201 260 201 260 154.5 291.5 c 128,-1,30
 108 323 108 323 83 375 c 128,-1,31
 58 427 58 427 58 487 c 0,32,33
 58 546 58 546 86.5 597 c 128,-1,34
 115 648 115 648 164.5 679.5 c 128,-1,35
 214 711 214 711 277 711 c 0,0,1
279 653 m 0,36,37
 232 653 232 653 196 632 c 128,-1,38
 160 611 160 611 139.5 573.5 c 128,-1,39
 119 536 119 536 119 487 c 0,40,41
 119 443 119 443 136.5 404 c 128,-1,42
 154 365 154 365 189 341.5 c 128,-1,43
 224 318 224 318 274 318 c 0,44,45
 328 318 328 318 366 341.5 c 128,-1,46
 404 365 404 365 425 404 c 128,-1,47
 446 443 446 443 446 490 c 0,48,49
 446 533 446 533 426 570 c 128,-1,50
 406 607 406 607 369 630 c 128,-1,51
 332 653 332 653 279 653 c 0,36,37
EndSplineSet
Substitution2: "'frac' Diagonal Fractions in Latin lookup 28 subtable" nine.numr
Substitution2: "'dnom' Denominators in Latin lookup 26 subtable" nine.dnom
Substitution2: "'numr' Numerators in Latin lookup 25 subtable" nine.numr
Substitution2: "'sups' Superscript in Latin lookup 24 subtable" uni2079
Substitution2: "'sinf' Scientific Inferiors in Latin lookup 23 subtable" uni2089
Substitution2: "'subs' Subscript in Latin lookup 22 subtable" uni2089
AlternateSubs2: "'aalt' Access All Alternates in Latin lookup 1 subtable" nine.dnom uni2089 nine.numr uni2079
EndChar

StartChar: zero.dnom
Encoding: 65579 -1 544
Width: 328
Flags: W
LayerCount: 2
Fore
SplineSet
164 -10 m 256,0,1
 121 -10 121 -10 91 12.5 c 128,-1,2
 61 35 61 35 45.5 73.5 c 128,-1,3
 30 112 30 112 30 159 c 256,4,5
 30 206 30 206 45.5 244 c 128,-1,6
 61 282 61 282 91 304.5 c 128,-1,7
 121 327 121 327 164 327 c 0,8,9
 208 327 208 327 237.5 304.5 c 128,-1,10
 267 282 267 282 282.5 244 c 128,-1,11
 298 206 298 206 298 159 c 256,12,13
 298 112 298 112 282.5 73.5 c 128,-1,14
 267 35 267 35 237 12.5 c 128,-1,15
 207 -10 207 -10 164 -10 c 256,0,1
164 39 m 256,16,17
 203 39 203 39 223.5 72.5 c 128,-1,18
 244 106 244 106 244 159 c 0,19,20
 244 210 244 210 223.5 244 c 128,-1,21
 203 278 203 278 164 278 c 256,22,23
 125 278 125 278 104.5 244 c 128,-1,24
 84 210 84 210 84 159 c 0,25,26
 84 106 84 106 104.5 72.5 c 128,-1,27
 125 39 125 39 164 39 c 256,16,17
EndSplineSet
EndChar

StartChar: one.dnom
Encoding: 65580 -1 545
Width: 222
Flags: W
LayerCount: 2
Fore
SplineSet
139 -4 m 0,0,1
 127 -4 127 -4 120 3.5 c 128,-1,2
 113 11 113 11 113 22 c 2,3,-1
 113 257 l 1,4,-1
 119 250 l 1,5,-1
 70 219 l 2,6,7
 66 217 66 217 62 215.5 c 128,-1,8
 58 214 58 214 53 214 c 0,9,10
 43 214 43 214 36.5 222 c 128,-1,11
 30 230 30 230 30 239 c 0,12,13
 30 253 30 253 43 262 c 2,14,-1
 120 308 l 2,15,16
 130 313 130 313 140 312 c 0,17,18
 151 311 151 311 157.5 303.5 c 128,-1,19
 164 296 164 296 164 284 c 2,20,-1
 164 22 l 2,21,22
 164 11 164 11 157 3.5 c 128,-1,23
 150 -4 150 -4 139 -4 c 0,0,1
EndSplineSet
EndChar

StartChar: two.dnom
Encoding: 65581 -1 546
Width: 317
Flags: W
LayerCount: 2
Fore
SplineSet
77 0 m 2,0,1
 65 0 65 0 57.5 6.5 c 128,-1,2
 50 13 50 13 50 26 c 0,3,4
 50 33 50 33 53 38.5 c 128,-1,5
 56 44 56 44 62 50 c 2,6,-1
 144 139 l 2,7,8
 165 165 165 165 185.5 189 c 128,-1,9
 206 213 206 213 206 239 c 0,10,11
 206 256 206 256 194 267.5 c 128,-1,12
 182 279 182 279 157 279 c 0,13,14
 139 279 139 279 123 268.5 c 128,-1,15
 107 258 107 258 99 238 c 0,16,17
 97 231 97 231 91 227 c 128,-1,18
 85 223 85 223 77 223 c 0,19,20
 67 223 67 223 60 229 c 128,-1,21
 53 235 53 235 53 243 c 0,22,23
 53 257 53 257 66 277.5 c 128,-1,24
 79 298 79 298 103.5 313 c 128,-1,25
 128 328 128 328 164 328 c 0,26,27
 198 328 198 328 219.5 315 c 128,-1,28
 241 302 241 302 251.5 282.5 c 128,-1,29
 262 263 262 263 262 241 c 0,30,31
 262 213 262 213 250 192 c 128,-1,32
 238 171 238 171 221 152.5 c 128,-1,33
 204 134 204 134 188 115 c 2,34,-1
 120 39 l 1,35,-1
 114 47 l 1,36,-1
 242 47 l 2,37,38
 252 47 252 47 259.5 40.5 c 128,-1,39
 267 34 267 34 267 24 c 256,40,41
 267 14 267 14 259.5 7 c 128,-1,42
 252 0 252 0 242 0 c 2,43,-1
 77 0 l 2,0,1
EndSplineSet
EndChar

StartChar: three.dnom
Encoding: 65582 -1 547
Width: 313
Flags: W
LayerCount: 2
Fore
SplineSet
149 -10 m 0,0,1
 125 -10 125 -10 101 -2.5 c 128,-1,2
 77 5 77 5 61 17 c 0,3,4
 49 25 49 25 49 39 c 0,5,6
 49 50 49 50 55.5 57.5 c 128,-1,7
 62 65 62 65 73 65 c 0,8,9
 78 65 78 65 82.5 62 c 128,-1,10
 87 59 87 59 94 54 c 0,11,12
 100 50 100 50 115 44.5 c 128,-1,13
 130 39 130 39 147 39 c 0,14,15
 175 39 175 39 196 55.5 c 128,-1,16
 217 72 217 72 217 98 c 0,17,18
 217 123 217 123 200 135.5 c 128,-1,19
 183 148 183 148 157 148 c 0,20,21
 146 148 146 148 133.5 145 c 128,-1,22
 121 142 121 142 108 139 c 0,23,24
 97 137 97 137 89.5 144.5 c 128,-1,25
 82 152 82 152 82 161 c 0,26,27
 82 166 82 166 83.5 170.5 c 128,-1,28
 85 175 85 175 89 179 c 2,29,-1
 195 279 l 1,30,-1
 203 269 l 1,31,-1
 84 269 l 2,32,33
 73 269 73 269 66 276.5 c 128,-1,34
 59 284 59 284 59 294 c 256,35,36
 59 304 59 304 66 311 c 128,-1,37
 73 318 73 318 84 318 c 2,38,-1
 230 318 l 2,39,40
 241 318 241 318 248.5 311 c 128,-1,41
 256 304 256 304 256 294 c 0,42,43
 259 282 259 282 249 272 c 2,44,-1
 152 182 l 1,45,-1
 132 181 l 2,46,47
 133 184 133 184 147 188 c 128,-1,48
 161 192 161 192 169 192 c 0,49,50
 197 192 197 192 219.5 182.5 c 128,-1,51
 242 173 242 173 255.5 152.5 c 128,-1,52
 269 132 269 132 269 99 c 256,53,54
 269 66 269 66 252 41.5 c 128,-1,55
 235 17 235 17 208 3.5 c 128,-1,56
 181 -10 181 -10 149 -10 c 0,0,1
EndSplineSet
EndChar

StartChar: four.dnom
Encoding: 65583 -1 548
Width: 314
Flags: W
LayerCount: 2
Fore
SplineSet
203 -5 m 0,0,1
 193 -5 193 -5 185.5 2.5 c 128,-1,2
 178 10 178 10 178 21 c 2,3,-1
 178 259 l 1,4,-1
 192 249 l 1,5,-1
 82 110 l 1,6,-1
 83 122 l 1,7,-1
 262 122 l 2,8,9
 286 121 286 121 286 99 c 0,10,11
 286 75 286 75 262 75 c 2,12,-1
 56 75 l 2,13,14
 46 75 46 75 37 83 c 128,-1,15
 28 91 28 91 28 103 c 0,16,17
 28 108 28 108 29.5 112.5 c 128,-1,18
 31 117 31 117 35 122 c 2,19,-1
 177 304 l 2,20,21
 181 310 181 310 188 312.5 c 128,-1,22
 195 315 195 315 201 315 c 0,23,24
 213 315 213 315 221 307 c 128,-1,25
 229 299 229 299 229 287 c 2,26,-1
 229 21 l 2,27,28
 229 10 229 10 221.5 2.5 c 128,-1,29
 214 -5 214 -5 203 -5 c 0,0,1
EndSplineSet
EndChar

StartChar: five.dnom
Encoding: 65584 -1 549
Width: 324
Flags: W
LayerCount: 2
Fore
SplineSet
150 -10 m 0,0,1
 127 -10 127 -10 103 0.5 c 128,-1,2
 79 11 79 11 61 27 c 0,3,4
 50 38 50 38 50 51 c 0,5,6
 50 60 50 60 55.5 67.5 c 128,-1,7
 61 75 61 75 73 75 c 0,8,9
 78 75 78 75 82.5 73.5 c 128,-1,10
 87 72 87 72 91 68 c 0,11,12
 104 55 104 55 120 47 c 128,-1,13
 136 39 136 39 153 39 c 0,14,15
 183 39 183 39 201.5 56 c 128,-1,16
 220 73 220 73 220 100 c 0,17,18
 220 125 220 125 204 142.5 c 128,-1,19
 188 160 188 160 160 160 c 0,20,21
 141 160 141 160 128.5 152.5 c 128,-1,22
 116 145 116 145 107.5 137 c 128,-1,23
 99 129 99 129 90 129 c 0,24,25
 75 129 75 129 68.5 138 c 128,-1,26
 62 147 62 147 64 158 c 2,27,-1
 88 290 l 2,28,29
 90 297 90 297 95.5 303 c 128,-1,30
 101 309 101 309 113 309 c 2,31,-1
 241 309 l 2,32,33
 252 309 252 309 259.5 301.5 c 128,-1,34
 267 294 267 294 267 284 c 0,35,36
 267 273 267 273 259.5 266 c 128,-1,37
 252 259 252 259 241 259 c 2,38,-1
 118 259 l 1,39,-1
 132 271 l 1,40,-1
 114 161 l 1,41,-1
 92 170 l 1,42,43
 106 188 106 188 124.5 197.5 c 128,-1,44
 143 207 143 207 175 207 c 0,45,46
 204 207 204 207 226 194.5 c 128,-1,47
 248 182 248 182 260.5 159.5 c 128,-1,48
 273 137 273 137 273 105 c 0,49,50
 273 69 273 69 257.5 43 c 128,-1,51
 242 17 242 17 214.5 3.5 c 128,-1,52
 187 -10 187 -10 150 -10 c 0,0,1
EndSplineSet
EndChar

StartChar: six.dnom
Encoding: 65585 -1 550
Width: 278
Flags: W
LayerCount: 2
Fore
SplineSet
140 -10 m 0,0,1
 103 -10 103 -10 78.5 7 c 128,-1,2
 54 24 54 24 42 51.5 c 128,-1,3
 30 79 30 79 30 109 c 0,4,5
 30 147 30 147 46.5 185.5 c 128,-1,6
 63 224 63 224 88.5 255.5 c 128,-1,7
 114 287 114 287 143 305.5 c 128,-1,8
 172 324 172 324 198 324 c 0,9,10
 217 324 217 324 227.5 317.5 c 128,-1,11
 238 311 238 311 238 297 c 0,12,13
 238 287 238 287 232 280 c 128,-1,14
 226 273 226 273 210 273 c 0,15,16
 170 264 170 264 137.5 231.5 c 128,-1,17
 105 199 105 199 96 154 c 1,18,-1
 52 109 l 1,19,20
 65 149 65 149 92 172 c 128,-1,21
 119 195 119 195 150 195 c 0,22,23
 199 195 199 195 223.5 164 c 128,-1,24
 248 133 248 133 248 94 c 0,25,26
 248 65 248 65 233.5 41.5 c 128,-1,27
 219 18 219 18 194.5 4 c 128,-1,28
 170 -10 170 -10 140 -10 c 0,0,1
139 37 m 0,29,30
 161 37 161 37 177.5 52 c 128,-1,31
 194 67 194 67 194 90 c 256,32,33
 194 113 194 113 181 130.5 c 128,-1,34
 168 148 168 148 143 148 c 0,35,36
 114 148 114 148 98.5 131 c 128,-1,37
 83 114 83 114 83 92 c 0,38,39
 83 69 83 69 97.5 53 c 128,-1,40
 112 37 112 37 139 37 c 0,29,30
EndSplineSet
EndChar

StartChar: seven.dnom
Encoding: 65586 -1 551
Width: 291
Flags: W
LayerCount: 2
Fore
SplineSet
112 -8 m 0,0,1
 103 -8 103 -8 95 -1.5 c 128,-1,2
 87 5 87 5 87 16 c 0,3,4
 87 19 87 19 88 22.5 c 128,-1,5
 89 26 89 26 91 30 c 2,6,-1
 205 277 l 1,7,-1
 215 262 l 1,8,-1
 67 262 l 2,9,10
 56 262 56 262 48.5 268.5 c 128,-1,11
 41 275 41 275 41 286 c 256,12,13
 41 297 41 297 48.5 303.5 c 128,-1,14
 56 310 56 310 67 310 c 2,15,-1
 230 310 l 2,16,17
 244 310 244 310 251.5 301 c 128,-1,18
 259 292 259 292 259 281 c 0,19,20
 259 277 259 277 258 274 c 128,-1,21
 257 271 257 271 256 268 c 2,22,-1
 139 12 l 2,23,24
 136 4 136 4 129 -2 c 128,-1,25
 122 -8 122 -8 112 -8 c 0,0,1
EndSplineSet
EndChar

StartChar: eight.dnom
Encoding: 65587 -1 552
Width: 302
Flags: W
LayerCount: 2
Fore
SplineSet
151 -10 m 0,0,1
 118 -10 118 -10 92 3 c 128,-1,2
 66 16 66 16 50.5 37 c 128,-1,3
 35 58 35 58 35 84 c 0,4,5
 35 106 35 106 45 122 c 128,-1,6
 55 138 55 138 70.5 149.5 c 128,-1,7
 86 161 86 161 101 167 c 1,8,-1
 100 162 l 1,9,10
 79 170 79 170 61.5 190 c 128,-1,11
 44 210 44 210 44 237 c 0,12,13
 44 262 44 262 58 282 c 128,-1,14
 72 302 72 302 96.5 313.5 c 128,-1,15
 121 325 121 325 151 325 c 256,16,17
 181 325 181 325 205 313.5 c 128,-1,18
 229 302 229 302 243 282 c 128,-1,19
 257 262 257 262 257 237 c 0,20,21
 257 209 257 209 239 190.5 c 128,-1,22
 221 172 221 172 201 163 c 1,23,-1
 200 168 l 1,24,25
 227 157 227 157 246.5 135 c 128,-1,26
 266 113 266 113 266 84 c 0,27,28
 266 58 266 58 251 37 c 128,-1,29
 236 16 236 16 209.5 3 c 128,-1,30
 183 -10 183 -10 151 -10 c 0,0,1
151 185 m 0,31,32
 171 185 171 185 188 197.5 c 128,-1,33
 205 210 205 210 205 232 c 0,34,35
 205 253 205 253 189.5 266 c 128,-1,36
 174 279 174 279 151 279 c 0,37,38
 127 279 127 279 111.5 266 c 128,-1,39
 96 253 96 253 96 232 c 0,40,41
 96 210 96 210 112.5 197.5 c 128,-1,42
 129 185 129 185 151 185 c 0,31,32
151 35 m 0,43,44
 177 35 177 35 194.5 51 c 128,-1,45
 212 67 212 67 212 91 c 0,46,47
 212 114 212 114 193 127 c 128,-1,48
 174 140 174 140 151 140 c 0,49,50
 127 140 127 140 108.5 127 c 128,-1,51
 90 114 90 114 90 91 c 0,52,53
 90 67 90 67 107 51 c 128,-1,54
 124 35 124 35 151 35 c 0,43,44
EndSplineSet
EndChar

StartChar: nine.dnom
Encoding: 65588 -1 553
Width: 300
Flags: W
LayerCount: 2
Fore
SplineSet
94 -11 m 0,0,1
 76 -11 76 -11 65.5 -4.5 c 128,-1,2
 55 2 55 2 55 16 c 0,3,4
 55 27 55 27 60.5 33.5 c 128,-1,5
 66 40 66 40 83 41 c 0,6,7
 123 49 123 49 155.5 81.5 c 128,-1,8
 188 114 188 114 197 159 c 1,9,-1
 241 205 l 1,10,11
 227 165 227 165 200.5 142 c 128,-1,12
 174 119 174 119 143 119 c 0,13,14
 95 119 95 119 70 149.5 c 128,-1,15
 45 180 45 180 45 219 c 0,16,17
 45 249 45 249 59.5 272.5 c 128,-1,18
 74 296 74 296 98.5 310 c 128,-1,19
 123 324 123 324 153 324 c 0,20,21
 190 324 190 324 214.5 306.5 c 128,-1,22
 239 289 239 289 251 262 c 128,-1,23
 263 235 263 235 263 205 c 0,24,25
 263 166 263 166 246.5 128 c 128,-1,26
 230 90 230 90 204.5 58 c 128,-1,27
 179 26 179 26 149.5 7.5 c 128,-1,28
 120 -11 120 -11 94 -11 c 0,0,1
150 166 m 0,29,30
 178 166 178 166 194 183 c 128,-1,31
 210 200 210 200 210 221 c 0,32,33
 210 245 210 245 195.5 261 c 128,-1,34
 181 277 181 277 154 277 c 0,35,36
 133 277 133 277 116 261.5 c 128,-1,37
 99 246 99 246 99 223 c 0,38,39
 99 201 99 201 112.5 183.5 c 128,-1,40
 126 166 126 166 150 166 c 0,29,30
EndSplineSet
EndChar

StartChar: fraction
Encoding: 8260 8260 584
Width: 530
Flags: W
LayerCount: 2
Fore
SplineSet
52 -3 m 0,0,1
 41 -3 41 -3 32.5 4.5 c 128,-1,2
 24 12 24 12 24 24 c 0,3,4
 24 32 24 32 29 40 c 2,5,-1
 457 690 l 2,6,7
 466 703 466 703 479 703 c 0,8,9
 490 703 490 703 498.5 696 c 128,-1,10
 507 689 507 689 507 676 c 0,11,12
 507 669 507 669 502 660 c 2,13,-1
 74 10 l 2,14,15
 65 -3 65 -3 52 -3 c 0,0,1
EndSplineSet
EndChar

StartChar: period
Encoding: 46 46 600
Width: 181
Flags: W
LayerCount: 2
Fore
SplineSet
87 0 m 2,0,1
 70 0 70 0 61 11 c 128,-1,2
 52 22 52 22 52 39 c 2,3,-1
 52 60 l 2,4,5
 52 78 52 78 61 88 c 128,-1,6
 70 98 70 98 87 98 c 2,7,-1
 94 98 l 2,8,9
 111 98 111 98 120 88 c 128,-1,10
 129 78 129 78 129 60 c 2,11,-1
 129 39 l 2,12,13
 129 22 129 22 120 11 c 128,-1,14
 111 0 111 0 94 0 c 2,15,-1
 87 0 l 2,0,1
EndSplineSet
EndChar

StartChar: comma
Encoding: 44 44 601
Width: 194
Flags: W
LayerCount: 2
Fore
SplineSet
159 -8 m 0,0,1
 159 -35 159 -35 143 -60.5 c 128,-1,2
 127 -86 127 -86 104 -102.5 c 128,-1,3
 81 -119 81 -119 59 -119 c 0,4,5
 51 -119 51 -119 43.5 -114 c 128,-1,6
 36 -109 36 -109 36 -95 c 256,7,8
 36 -81 36 -81 45.5 -79.5 c 128,-1,9
 55 -78 55 -78 69 -70 c 0,10,11
 86 -62 86 -62 95 -50 c 128,-1,12
 104 -38 104 -38 104 -22 c 0,13,14
 104 -9 104 -9 96.5 -2 c 128,-1,15
 89 5 89 5 79 5 c 0,16,17
 72 5 72 5 65 3 c 128,-1,18
 58 1 58 1 52 -3 c 1,19,20
 47 2 47 2 43 8 c 128,-1,21
 39 14 39 14 40 23 c 0,22,23
 42 40 42 40 58.5 52.5 c 128,-1,24
 75 65 75 65 97 65 c 0,25,26
 124 65 124 65 141.5 43 c 128,-1,27
 159 21 159 21 159 -8 c 0,0,1
EndSplineSet
EndChar

StartChar: colon
Encoding: 58 58 602
Width: 187
Flags: W
LayerCount: 2
Fore
SplineSet
90 417 m 2,0,1
 73 417 73 417 64 427.5 c 128,-1,2
 55 438 55 438 55 455 c 2,3,-1
 55 476 l 2,4,5
 55 494 55 494 64 504.5 c 128,-1,6
 73 515 73 515 90 515 c 2,7,-1
 97 515 l 2,8,9
 114 515 114 515 123 504.5 c 128,-1,10
 132 494 132 494 132 476 c 2,11,-1
 132 455 l 2,12,13
 132 438 132 438 123 427.5 c 128,-1,14
 114 417 114 417 97 417 c 2,15,-1
 90 417 l 2,0,1
90 0 m 2,16,17
 73 0 73 0 64 10.5 c 128,-1,18
 55 21 55 21 55 38 c 2,19,-1
 55 60 l 2,20,21
 55 78 55 78 64 88 c 128,-1,22
 73 98 73 98 90 98 c 2,23,-1
 97 98 l 2,24,25
 114 98 114 98 123 88 c 128,-1,26
 132 78 132 78 132 60 c 2,27,-1
 132 38 l 2,28,29
 132 21 132 21 123 10.5 c 128,-1,30
 114 0 114 0 97 0 c 2,31,-1
 90 0 l 2,16,17
EndSplineSet
EndChar

StartChar: semicolon
Encoding: 59 59 603
Width: 199
Flags: W
LayerCount: 2
Fore
SplineSet
110 417 m 2,0,1
 93 417 93 417 82 427.5 c 128,-1,2
 71 438 71 438 71 455 c 2,3,-1
 71 476 l 2,4,5
 71 494 71 494 82 504.5 c 128,-1,6
 93 515 93 515 110 515 c 2,7,-1
 116 515 l 2,8,9
 134 515 134 515 144 504.5 c 128,-1,10
 154 494 154 494 154 476 c 2,11,-1
 154 455 l 2,12,13
 154 438 154 438 144 427.5 c 128,-1,14
 134 417 134 417 116 417 c 2,15,-1
 110 417 l 2,0,1
167 -8 m 0,16,17
 167 -35 167 -35 151 -60.5 c 128,-1,18
 135 -86 135 -86 112 -102.5 c 128,-1,19
 89 -119 89 -119 67 -119 c 0,20,21
 59 -119 59 -119 51.5 -114 c 128,-1,22
 44 -109 44 -109 44 -95 c 256,23,24
 44 -81 44 -81 53.5 -79.5 c 128,-1,25
 63 -78 63 -78 77 -70 c 0,26,27
 94 -62 94 -62 103 -50 c 128,-1,28
 112 -38 112 -38 112 -22 c 0,29,30
 112 -9 112 -9 104.5 -2 c 128,-1,31
 97 5 97 5 87 5 c 0,32,33
 80 5 80 5 73 3 c 128,-1,34
 66 1 66 1 60 -3 c 1,35,36
 55 2 55 2 51 8 c 128,-1,37
 47 14 47 14 48 23 c 0,38,39
 50 40 50 40 66.5 52.5 c 128,-1,40
 83 65 83 65 105 65 c 0,41,42
 132 65 132 65 149.5 43 c 128,-1,43
 167 21 167 21 167 -8 c 0,16,17
EndSplineSet
EndChar

StartChar: exclam
Encoding: 33 33 605
Width: 185
Flags: W
LayerCount: 2
Fore
SplineSet
93 196 m 256,0,1
 74 196 74 196 72 217 c 2,2,-1
 61 659 l 2,3,4
 61 677 61 677 68 688.5 c 128,-1,5
 75 700 75 700 93 700 c 0,6,7
 110 700 110 700 117.5 688.5 c 128,-1,8
 125 677 125 677 124 659 c 2,9,-1
 113 217 l 2,10,11
 112 196 112 196 93 196 c 256,0,1
90 0 m 2,12,13
 73 0 73 0 63.5 10.5 c 128,-1,14
 54 21 54 21 54 38 c 2,15,-1
 54 60 l 2,16,17
 54 78 54 78 63.5 88 c 128,-1,18
 73 98 73 98 90 98 c 2,19,-1
 96 98 l 2,20,21
 114 98 114 98 122.5 88 c 128,-1,22
 131 78 131 78 131 60 c 2,23,-1
 131 38 l 2,24,25
 131 21 131 21 122.5 10.5 c 128,-1,26
 114 0 114 0 96 0 c 2,27,-1
 90 0 l 2,12,13
EndSplineSet
EndChar

StartChar: exclamdown
Encoding: 161 161 606
Width: 185
Flags: W
LayerCount: 2
Fore
SplineSet
93 316 m 256,0,1
 112 316 112 316 113 294 c 2,2,-1
 124 -147 l 2,3,4
 125 -165 125 -165 117.5 -177 c 128,-1,5
 110 -189 110 -189 93 -189 c 256,6,7
 76 -189 76 -189 68.5 -177 c 128,-1,8
 61 -165 61 -165 62 -147 c 2,9,-1
 72 294 l 2,10,11
 74 316 74 316 93 316 c 256,0,1
96 511 m 2,12,13
 114 511 114 511 122.5 501 c 128,-1,14
 131 491 131 491 131 473 c 2,15,-1
 131 451 l 2,16,17
 131 434 131 434 122.5 423.5 c 128,-1,18
 114 413 114 413 96 413 c 2,19,-1
 90 413 l 2,20,21
 73 413 73 413 63.5 423.5 c 128,-1,22
 54 434 54 434 54 451 c 2,23,-1
 54 473 l 2,24,25
 54 491 54 491 63.5 501 c 128,-1,26
 73 511 73 511 90 511 c 2,27,-1
 96 511 l 2,12,13
EndSplineSet
EndChar

StartChar: question
Encoding: 63 63 607
Width: 485
Flags: W
LayerCount: 2
Fore
SplineSet
201 336 m 2,0,1
 201 349 201 349 210 358 c 128,-1,2
 219 367 219 367 231 367 c 0,3,4
 277 370 277 370 313 390 c 128,-1,5
 349 410 349 410 370 444 c 128,-1,6
 391 478 391 478 391 523 c 0,7,8
 391 570 391 570 371.5 604.5 c 128,-1,9
 352 639 352 639 319 658.5 c 128,-1,10
 286 678 286 678 244 678 c 0,11,12
 203 678 203 678 167 659 c 128,-1,13
 131 640 131 640 107 609 c 0,14,15
 99 601 99 601 88.5 597.5 c 128,-1,16
 78 594 78 594 66 602 c 256,17,18
 54 610 54 610 52 622.5 c 128,-1,19
 50 635 50 635 59 646 c 0,20,21
 91 686 91 686 140 711 c 128,-1,22
 189 736 189 736 244 736 c 0,23,24
 302 736 302 736 349.5 710 c 128,-1,25
 397 684 397 684 425 636 c 128,-1,26
 453 588 453 588 453 523 c 0,27,28
 453 483 453 483 437 446 c 128,-1,29
 421 409 421 409 393 380 c 128,-1,30
 365 351 365 351 328 334 c 128,-1,31
 291 317 291 317 248 315 c 0,32,33
 245 315 245 315 250 316 c 128,-1,34
 255 317 255 317 260 322 c 1,35,-1
 260 217 l 2,36,37
 260 204 260 204 251.5 195.5 c 128,-1,38
 243 187 243 187 230 187 c 256,39,40
 217 187 217 187 208.5 195.5 c 128,-1,41
 200 204 200 204 201 217 c 2,42,-1
 201 336 l 2,0,1
231 0 m 2,43,44
 214 0 214 0 204.5 10.5 c 128,-1,45
 195 21 195 21 195 38 c 2,46,-1
 195 60 l 2,47,48
 195 78 195 78 204.5 88 c 128,-1,49
 214 98 214 98 231 98 c 2,50,-1
 237 98 l 2,51,52
 255 98 255 98 263.5 88 c 128,-1,53
 272 78 272 78 272 60 c 2,54,-1
 272 38 l 2,55,56
 272 21 272 21 263.5 10.5 c 128,-1,57
 255 0 255 0 237 0 c 2,58,-1
 231 0 l 2,43,44
EndSplineSet
EndChar

StartChar: questiondown
Encoding: 191 191 608
Width: 476
Flags: W
LayerCount: 2
Fore
SplineSet
297 213 m 2,0,1
 297 200 297 200 288 191.5 c 128,-1,2
 279 183 279 183 267 183 c 0,3,4
 221 180 221 180 185 160 c 128,-1,5
 149 140 149 140 128 105.5 c 128,-1,6
 107 71 107 71 107 26 c 256,7,8
 107 -19 107 -19 126.5 -54.5 c 128,-1,9
 146 -90 146 -90 179 -109.5 c 128,-1,10
 212 -129 212 -129 253 -129 c 0,11,12
 296 -129 296 -129 331.5 -110 c 128,-1,13
 367 -91 367 -91 391 -60 c 0,14,15
 399 -51 399 -51 410 -48 c 128,-1,16
 421 -45 421 -45 431 -52 c 0,17,18
 444 -60 444 -60 445.5 -72.5 c 128,-1,19
 447 -85 447 -85 438 -96 c 0,20,21
 407 -137 407 -137 358 -162 c 128,-1,22
 309 -187 309 -187 253 -187 c 256,23,24
 197 -187 197 -187 149 -161 c 128,-1,25
 101 -135 101 -135 73 -87 c 128,-1,26
 45 -39 45 -39 45 26 c 0,27,28
 45 67 45 67 60.5 103.5 c 128,-1,29
 76 140 76 140 104.5 169 c 128,-1,30
 133 198 133 198 170 215 c 128,-1,31
 207 232 207 232 250 234 c 0,32,33
 253 234 253 234 248 233.5 c 128,-1,34
 243 233 243 233 238 227 c 1,35,-1
 238 332 l 2,36,37
 238 345 238 345 246.5 354 c 128,-1,38
 255 363 255 363 267 363 c 0,39,40
 281 363 281 363 289 354 c 128,-1,41
 297 345 297 345 297 332 c 2,42,-1
 297 213 l 2,0,1
267 549 m 2,43,44
 285 549 285 549 293.5 539 c 128,-1,45
 302 529 302 529 302 511 c 2,46,-1
 302 489 l 2,47,48
 302 472 302 472 293.5 461.5 c 128,-1,49
 285 451 285 451 267 451 c 2,50,-1
 261 451 l 2,51,52
 244 451 244 451 235 461.5 c 128,-1,53
 226 472 226 472 226 489 c 2,54,-1
 226 511 l 2,55,56
 226 529 226 529 235 539 c 128,-1,57
 244 549 244 549 261 549 c 2,58,-1
 267 549 l 2,43,44
EndSplineSet
EndChar

StartChar: periodcentered
Encoding: 183 183 609
Width: 195
Flags: W
LayerCount: 2
Fore
SplineSet
94 251 m 2,0,1
 77 251 77 251 66.5 261.5 c 128,-1,2
 56 272 56 272 56 289 c 2,3,-1
 56 311 l 2,4,5
 56 328 56 328 66.5 338.5 c 128,-1,6
 77 349 77 349 94 349 c 2,7,-1
 101 349 l 2,8,9
 118 349 118 349 128.5 338.5 c 128,-1,10
 139 328 139 328 139 311 c 2,11,-1
 139 289 l 2,12,13
 139 272 139 272 128.5 261.5 c 128,-1,14
 118 251 118 251 101 251 c 2,15,-1
 94 251 l 2,0,1
EndSplineSet
Substitution2: "'case' Case-Sensitive Forms in Latin lookup 35 subtable" periodcentered.case
Substitution2: "Single Substitution lookup 19 subtable" periodcentered.loclCAT.case
Substitution2: "Single Substitution lookup 18 subtable" periodcentered.loclCAT
AlternateSubs2: "'aalt' Access All Alternates in Latin lookup 1 subtable" periodcentered.case periodcentered.loclCAT periodcentered.loclCAT.case
EndChar

StartChar: bullet
Encoding: 8226 8226 610
Width: 342
Flags: W
LayerCount: 2
Fore
SplineSet
171 224 m 256,0,1
 136 224 136 224 107 241.5 c 128,-1,2
 78 259 78 259 60.5 288 c 128,-1,3
 43 317 43 317 43 352 c 0,4,5
 43 388 43 388 60.5 417 c 128,-1,6
 78 446 78 446 107 463 c 128,-1,7
 136 480 136 480 171 480 c 256,8,9
 206 480 206 480 235 463 c 128,-1,10
 264 446 264 446 282 417 c 128,-1,11
 300 388 300 388 300 352 c 0,12,13
 300 317 300 317 282 288 c 128,-1,14
 264 259 264 259 235 241.5 c 128,-1,15
 206 224 206 224 171 224 c 256,0,1
EndSplineSet
Substitution2: "'case' Case-Sensitive Forms in Latin lookup 35 subtable" bullet.case
Substitution2: "'aalt' Access All Alternates in Latin lookup 0 subtable" bullet.case
EndChar

StartChar: asterisk
Encoding: 42 42 611
Width: 309
Flags: W
LayerCount: 2
Fore
SplineSet
154 400 m 0,0,1
 145 400 145 400 138.5 407.5 c 128,-1,2
 132 415 132 415 133 425 c 2,3,-1
 140 518 l 2,4,5
 141 521 141 521 139 522.5 c 128,-1,6
 137 524 137 524 135 522 c 2,7,-1
 57 468 l 2,8,9
 49 462 49 462 39 464 c 128,-1,10
 29 466 29 466 24 475 c 0,11,12
 18 485 18 485 21.5 494 c 128,-1,13
 25 503 25 503 35 508 c 2,14,-1
 121 548 l 2,15,16
 124 549 124 549 124 551 c 128,-1,17
 124 553 124 553 121 554 c 2,18,-1
 35 595 l 2,19,20
 25 600 25 600 22 609.5 c 128,-1,21
 19 619 19 619 24 628 c 0,22,23
 30 638 30 638 39.5 639 c 128,-1,24
 49 640 49 640 57 635 c 2,25,-1
 135 581 l 2,26,27
 137 579 137 579 139 580 c 128,-1,28
 141 581 141 581 140 584 c 2,29,-1
 133 677 l 2,30,31
 132 687 132 687 139 694.5 c 128,-1,32
 146 702 146 702 156 702 c 256,33,34
 166 702 166 702 172 694.5 c 128,-1,35
 178 687 178 687 177 677 c 2,36,-1
 170 584 l 2,37,38
 169 581 169 581 171 580 c 128,-1,39
 173 579 173 579 176 581 c 2,40,-1
 253 634 l 2,41,42
 262 640 262 640 272 638 c 128,-1,43
 282 636 282 636 287 627 c 0,44,45
 293 618 293 618 289 609 c 128,-1,46
 285 600 285 600 275 595 c 2,47,-1
 190 554 l 2,48,49
 187 553 187 553 187 551 c 128,-1,50
 187 549 187 549 190 548 c 2,51,-1
 275 508 l 2,52,53
 286 503 286 503 289 494 c 128,-1,54
 292 485 292 485 287 475 c 0,55,56
 282 466 282 466 272 464 c 128,-1,57
 262 462 262 462 253 468 c 2,58,-1
 176 522 l 2,59,60
 173 524 173 524 171 522.5 c 128,-1,61
 169 521 169 521 170 518 c 2,62,-1
 177 425 l 2,63,64
 178 415 178 415 171.5 407.5 c 128,-1,65
 165 400 165 400 154 400 c 0,0,1
EndSplineSet
EndChar

StartChar: numbersign
Encoding: 35 35 612
Width: 654
Flags: W
LayerCount: 2
Fore
SplineSet
143 0 m 0,0,1
 128 0 128 0 119.5 12 c 128,-1,2
 111 24 111 24 113 41 c 2,3,-1
 222 674 l 2,4,5
 225 686 225 686 233 693 c 128,-1,6
 241 700 241 700 252 700 c 0,7,8
 268 700 268 700 276.5 688.5 c 128,-1,9
 285 677 285 677 282 660 c 2,10,-1
 173 26 l 2,11,12
 172 14 172 14 163.5 7 c 128,-1,13
 155 0 155 0 143 0 c 0,0,1
96 462 m 2,14,15
 82 462 82 462 72.5 471.5 c 128,-1,16
 63 481 63 481 63 495 c 0,17,18
 63 508 63 508 72.5 516 c 128,-1,19
 82 524 82 524 96 524 c 2,20,-1
 598 524 l 2,21,22
 612 524 612 524 621 514.5 c 128,-1,23
 630 505 630 505 630 491 c 0,24,25
 630 478 630 478 621 470 c 128,-1,26
 612 462 612 462 598 462 c 2,27,-1
 96 462 l 2,14,15
402 0 m 0,28,29
 386 0 386 0 377.5 12 c 128,-1,30
 369 24 369 24 372 41 c 2,31,-1
 481 674 l 2,32,33
 483 686 483 686 491 693 c 128,-1,34
 499 700 499 700 511 700 c 0,35,36
 527 700 527 700 535.5 688.5 c 128,-1,37
 544 677 544 677 541 660 c 2,38,-1
 432 26 l 2,39,40
 430 14 430 14 422 7 c 128,-1,41
 414 0 414 0 402 0 c 0,28,29
56 181 m 2,42,43
 43 181 43 181 33.5 190.5 c 128,-1,44
 24 200 24 200 24 213 c 256,45,46
 24 226 24 226 33.5 234 c 128,-1,47
 43 242 43 242 56 242 c 2,48,-1
 559 242 l 2,49,50
 573 242 573 242 582 233 c 128,-1,51
 591 224 591 224 591 210 c 0,52,53
 591 197 591 197 582 189 c 128,-1,54
 573 181 573 181 559 181 c 2,55,-1
 56 181 l 2,42,43
EndSplineSet
EndChar

StartChar: slash
Encoding: 47 47 613
Width: 522
Flags: W
LayerCount: 2
Fore
SplineSet
36 -129 m 0,0,1
 24 -129 24 -129 16 -121 c 128,-1,2
 8 -113 8 -113 8 -101 c 0,3,4
 8 -94 8 -94 12 -86 c 2,5,-1
 447 775 l 2,6,7
 454 789 454 789 461.5 794 c 128,-1,8
 469 799 469 799 480 799 c 0,9,10
 489 799 489 799 497.5 792 c 128,-1,11
 506 785 506 785 506 772 c 0,12,13
 506 763 506 763 502 754 c 2,14,-1
 67 -108 l 2,15,16
 60 -119 60 -119 53 -124 c 128,-1,17
 46 -129 46 -129 36 -129 c 0,0,1
EndSplineSet
Substitution2: "'case' Case-Sensitive Forms in Latin lookup 35 subtable" slash.case
Substitution2: "'frac' Diagonal Fractions in Latin lookup 27 subtable" fraction
AlternateSubs2: "'aalt' Access All Alternates in Latin lookup 1 subtable" fraction slash.case
EndChar

StartChar: backslash
Encoding: 92 92 614
Width: 523
Flags: W
LayerCount: 2
Fore
SplineSet
487 -133 m 0,0,1
 474 -133 474 -133 467.5 -126.5 c 128,-1,2
 461 -120 461 -120 456 -111 c 2,3,-1
 15 762 l 2,4,5
 13 767 13 767 12 770.5 c 128,-1,6
 11 774 11 774 11 778 c 0,7,8
 11 789 11 789 19 796 c 128,-1,9
 27 803 27 803 38 803 c 0,10,11
 54 803 54 803 60 796.5 c 128,-1,12
 66 790 66 790 70 781 c 2,13,-1
 512 -93 l 2,14,15
 515 -100 515 -100 515 -108 c 0,16,17
 515 -119 515 -119 506 -126 c 128,-1,18
 497 -133 497 -133 487 -133 c 0,0,1
EndSplineSet
Substitution2: "'case' Case-Sensitive Forms in Latin lookup 35 subtable" backslash.case
Substitution2: "'aalt' Access All Alternates in Latin lookup 0 subtable" backslash.case
EndChar

StartChar: hyphen
Encoding: 45 45 621
Width: 390
Flags: W
LayerCount: 2
Fore
SplineSet
87 283 m 2,0,1
 75 283 75 283 66.5 292 c 128,-1,2
 58 301 58 301 58 314 c 0,3,4
 58 326 58 326 66.5 334.5 c 128,-1,5
 75 343 75 343 87 343 c 2,6,-1
 303 343 l 2,7,8
 315 343 315 343 324 334 c 128,-1,9
 333 325 333 325 333 312 c 0,10,11
 333 300 333 300 324 291.5 c 128,-1,12
 315 283 315 283 303 283 c 2,13,-1
 87 283 l 2,0,1
EndSplineSet
Substitution2: "'case' Case-Sensitive Forms in Latin lookup 35 subtable" hyphen.case
Substitution2: "'aalt' Access All Alternates in Latin lookup 0 subtable" hyphen.case
EndChar

StartChar: endash
Encoding: 8211 8211 623
Width: 510
Flags: W
LayerCount: 2
Fore
SplineSet
89 233 m 2,0,1
 75 233 75 233 66.5 241 c 128,-1,2
 58 249 58 249 58 262 c 0,3,4
 58 276 58 276 66.5 283.5 c 128,-1,5
 75 291 75 291 89 291 c 2,6,-1
 422 291 l 2,7,8
 435 291 435 291 444 283.5 c 128,-1,9
 453 276 453 276 453 262 c 0,10,11
 453 249 453 249 444 241 c 128,-1,12
 435 233 435 233 422 233 c 2,13,-1
 89 233 l 2,0,1
EndSplineSet
Substitution2: "'case' Case-Sensitive Forms in Latin lookup 35 subtable" endash.case
Substitution2: "'aalt' Access All Alternates in Latin lookup 0 subtable" endash.case
EndChar

StartChar: emdash
Encoding: 8212 8212 624
Width: 838
Flags: W
LayerCount: 2
Fore
SplineSet
89 233 m 2,0,1
 75 233 75 233 66.5 242 c 128,-1,2
 58 251 58 251 58 264 c 256,3,4
 58 277 58 277 66.5 285.5 c 128,-1,5
 75 294 75 294 89 294 c 2,6,-1
 750 294 l 2,7,8
 763 294 763 294 772 285.5 c 128,-1,9
 781 277 781 277 781 264 c 256,10,11
 781 251 781 251 772 242 c 128,-1,12
 763 233 763 233 750 233 c 2,13,-1
 89 233 l 2,0,1
EndSplineSet
Substitution2: "'case' Case-Sensitive Forms in Latin lookup 35 subtable" emdash.case
Substitution2: "'aalt' Access All Alternates in Latin lookup 0 subtable" emdash.case
EndChar

StartChar: underscore
Encoding: 95 95 628
Width: 667
Flags: W
LayerCount: 2
Fore
SplineSet
86 -160 m 2,0,1
 73 -160 73 -160 65.5 -152 c 128,-1,2
 58 -144 58 -144 58 -133 c 0,3,4
 58 -121 58 -121 65.5 -113.5 c 128,-1,5
 73 -106 73 -106 86 -106 c 2,6,-1
 581 -106 l 2,7,8
 593 -106 593 -106 601 -113.5 c 128,-1,9
 609 -121 609 -121 609 -133 c 0,10,11
 609 -144 609 -144 601 -152 c 128,-1,12
 593 -160 593 -160 581 -160 c 2,13,-1
 86 -160 l 2,0,1
EndSplineSet
EndChar

StartChar: parenleft
Encoding: 40 40 632
Width: 374
Flags: W
LayerCount: 2
Fore
SplineSet
321 -192 m 0,0,1
 314 -192 314 -192 306 -187 c 0,2,3
 222 -145 222 -145 166 -75.5 c 128,-1,4
 110 -6 110 -6 81.5 80 c 128,-1,5
 53 166 53 166 53 257 c 256,6,7
 53 348 53 348 82.5 431.5 c 128,-1,8
 112 515 112 515 169 584.5 c 128,-1,9
 226 654 226 654 307 702 c 0,10,11
 314 706 314 706 321 706 c 0,12,13
 333 706 333 706 340 697.5 c 128,-1,14
 347 689 347 689 347 679 c 0,15,16
 347 665 347 665 335 656 c 0,17,18
 264 615 264 615 214.5 551.5 c 128,-1,19
 165 488 165 488 139 412 c 128,-1,20
 113 336 113 336 113 257 c 256,21,22
 113 178 113 178 138 101 c 128,-1,23
 163 24 163 24 212.5 -39.5 c 128,-1,24
 262 -103 262 -103 335 -142 c 0,25,26
 347 -149 347 -149 347 -165 c 0,27,28
 347 -175 347 -175 340 -183.5 c 128,-1,29
 333 -192 333 -192 321 -192 c 0,0,1
EndSplineSet
Substitution2: "'case' Case-Sensitive Forms in Latin lookup 35 subtable" parenleft.case
Substitution2: "'aalt' Access All Alternates in Latin lookup 0 subtable" parenleft.case
EndChar

StartChar: parenright
Encoding: 41 41 633
Width: 374
Flags: W
LayerCount: 2
Fore
SplineSet
52 -191 m 0,0,1
 41 -191 41 -191 33.5 -182.5 c 128,-1,2
 26 -174 26 -174 26 -164 c 0,3,4
 26 -149 26 -149 39 -141 c 0,5,6
 110 -100 110 -100 159.5 -36.5 c 128,-1,7
 209 27 209 27 235 103 c 128,-1,8
 261 179 261 179 261 258 c 256,9,10
 261 337 261 337 236 414 c 128,-1,11
 211 491 211 491 161.5 555 c 128,-1,12
 112 619 112 619 39 658 c 0,13,14
 27 665 27 665 27 680 c 0,15,16
 27 691 27 691 33.5 699 c 128,-1,17
 40 707 40 707 52 707 c 0,18,19
 60 707 60 707 67 703 c 0,20,21
 152 660 152 660 208 590.5 c 128,-1,22
 264 521 264 521 292.5 435.5 c 128,-1,23
 321 350 321 350 321 258 c 0,24,25
 321 168 321 168 291.5 83.5 c 128,-1,26
 262 -1 262 -1 205 -70 c 128,-1,27
 148 -139 148 -139 67 -187 c 0,28,29
 61 -191 61 -191 52 -191 c 0,0,1
EndSplineSet
Substitution2: "'case' Case-Sensitive Forms in Latin lookup 35 subtable" parenright.case
Substitution2: "'aalt' Access All Alternates in Latin lookup 0 subtable" parenright.case
EndChar

StartChar: braceleft
Encoding: 123 123 634
Width: 427
Flags: W
LayerCount: 2
Fore
SplineSet
363 -200 m 0,0,1
 361 -200 361 -200 359 -200 c 128,-1,2
 357 -200 357 -200 354 -199 c 0,3,4
 276 -182 276 -182 235 -155 c 128,-1,5
 194 -128 194 -128 179.5 -90 c 128,-1,6
 165 -52 165 -52 165 -2 c 2,7,-1
 166 82 l 2,8,9
 166 121 166 121 155 154 c 128,-1,10
 144 187 144 187 119.5 207 c 128,-1,11
 95 227 95 227 53 228 c 2,12,-1
 48 228 l 2,13,14
 37 228 37 228 29 235.5 c 128,-1,15
 21 243 21 243 21 254 c 256,16,17
 21 265 21 265 29 272 c 128,-1,18
 37 279 37 279 48 279 c 2,19,-1
 54 279 l 2,20,21
 97 280 97 280 121.5 300 c 128,-1,22
 146 320 146 320 156 353 c 128,-1,23
 166 386 166 386 166 424 c 2,24,-1
 165 509 l 2,25,26
 165 557 165 557 178.5 589.5 c 128,-1,27
 192 622 192 622 216.5 643.5 c 128,-1,28
 241 665 241 665 275.5 679.5 c 128,-1,29
 310 694 310 694 353 705 c 0,30,31
 372 710 372 710 379 701.5 c 128,-1,32
 386 693 386 693 386 684 c 0,33,34
 386 676 386 676 380.5 669.5 c 128,-1,35
 375 663 375 663 366 660 c 0,36,37
 305 642 305 642 274.5 622 c 128,-1,38
 244 602 244 602 233.5 573.5 c 128,-1,39
 223 545 223 545 223 500 c 2,40,-1
 224 418 l 2,41,42
 224 356 224 356 199.5 310.5 c 128,-1,43
 175 265 175 265 129 253 c 1,44,-1
 128 255 l 1,45,46
 175 242 175 242 199.5 197 c 128,-1,47
 224 152 224 152 224 89 c 2,48,-1
 223 6 l 2,49,50
 223 -37 223 -37 233.5 -66.5 c 128,-1,51
 244 -96 244 -96 274.5 -115.5 c 128,-1,52
 305 -135 305 -135 366 -154 c 0,53,54
 388 -161 388 -161 385 -181 c 0,55,56
 385 -189 385 -189 378.5 -194.5 c 128,-1,57
 372 -200 372 -200 363 -200 c 0,0,1
EndSplineSet
Substitution2: "'case' Case-Sensitive Forms in Latin lookup 35 subtable" braceleft.case
Substitution2: "'aalt' Access All Alternates in Latin lookup 0 subtable" braceleft.case
EndChar

StartChar: braceright
Encoding: 125 125 635
Width: 427
Flags: W
LayerCount: 2
Fore
SplineSet
65 -200 m 0,0,1
 52 -200 52 -200 46.5 -192 c 128,-1,2
 41 -184 41 -184 41 -177 c 0,3,4
 41 -169 41 -169 47 -162.5 c 128,-1,5
 53 -156 53 -156 62 -153 c 0,6,7
 122 -135 122 -135 152.5 -115 c 128,-1,8
 183 -95 183 -95 193.5 -66 c 128,-1,9
 204 -37 204 -37 204 7 c 2,10,-1
 204 89 l 2,11,12
 204 152 204 152 229 197.5 c 128,-1,13
 254 243 254 243 298 254 c 1,14,-1
 300 253 l 1,15,16
 253 266 253 266 228.5 311 c 128,-1,17
 204 356 204 356 204 419 c 2,18,-1
 204 501 l 2,19,20
 204 546 204 546 194 574.5 c 128,-1,21
 184 603 184 603 153.5 623.5 c 128,-1,22
 123 644 123 644 62 661 c 0,23,24
 40 668 40 668 42 689 c 0,25,26
 44 697 44 697 50 702.5 c 128,-1,27
 56 708 56 708 64 708 c 0,28,29
 67 708 67 708 69.5 707.5 c 128,-1,30
 72 707 72 707 73 707 c 0,31,32
 152 690 152 690 193 663 c 128,-1,33
 234 636 234 636 248 597.5 c 128,-1,34
 262 559 262 559 262 510 c 2,35,-1
 262 425 l 2,36,37
 262 386 262 386 272.5 353 c 128,-1,38
 283 320 283 320 308 300 c 128,-1,39
 333 280 333 280 374 280 c 2,40,-1
 380 280 l 2,41,42
 390 280 390 280 398 272 c 128,-1,43
 406 264 406 264 406 253 c 0,44,45
 406 243 406 243 398 235.5 c 128,-1,46
 390 228 390 228 380 228 c 2,47,-1
 374 228 l 2,48,49
 331 228 331 228 306.5 207.5 c 128,-1,50
 282 187 282 187 272 154.5 c 128,-1,51
 262 122 262 122 262 83 c 2,52,-1
 262 -2 l 2,53,54
 262 -38 262 -38 253 -65.5 c 128,-1,55
 244 -93 244 -93 223 -114 c 128,-1,56
 202 -135 202 -135 165 -155 c 128,-1,57
 128 -175 128 -175 73 -199 c 0,58,59
 72 -200 72 -200 70 -200 c 128,-1,60
 68 -200 68 -200 65 -200 c 0,0,1
EndSplineSet
Substitution2: "'case' Case-Sensitive Forms in Latin lookup 35 subtable" braceright.case
Substitution2: "'aalt' Access All Alternates in Latin lookup 0 subtable" braceright.case
EndChar

StartChar: bracketleft
Encoding: 91 91 636
Width: 397
Flags: W
LayerCount: 2
Fore
SplineSet
107 -190 m 2,0,1
 96 -190 96 -190 88 -182 c 128,-1,2
 80 -174 80 -174 80 -163 c 2,3,-1
 80 673 l 2,4,5
 80 684 80 684 88 692 c 128,-1,6
 96 700 96 700 107 700 c 2,7,-1
 335 700 l 2,8,9
 346 700 346 700 354 692.5 c 128,-1,10
 362 685 362 685 362 674 c 256,11,12
 362 663 362 663 354 655.5 c 128,-1,13
 346 648 346 648 335 648 c 2,14,-1
 130 648 l 1,15,-1
 139 655 l 1,16,-1
 139 -149 l 1,17,-1
 131 -136 l 1,18,-1
 335 -136 l 2,19,20
 346 -136 346 -136 354 -144.5 c 128,-1,21
 362 -153 362 -153 362 -164 c 0,22,23
 362 -174 362 -174 354 -182 c 128,-1,24
 346 -190 346 -190 335 -190 c 2,25,-1
 107 -190 l 2,0,1
EndSplineSet
Substitution2: "'case' Case-Sensitive Forms in Latin lookup 35 subtable" bracketleft.case
Substitution2: "'aalt' Access All Alternates in Latin lookup 0 subtable" bracketleft.case
EndChar

StartChar: bracketright
Encoding: 93 93 637
Width: 397
Flags: W
LayerCount: 2
Fore
SplineSet
290 700 m 2,0,1
 301 700 301 700 309 692 c 128,-1,2
 317 684 317 684 317 673 c 2,3,-1
 317 -163 l 2,4,5
 317 -174 317 -174 309 -182 c 128,-1,6
 301 -190 301 -190 290 -190 c 2,7,-1
 62 -190 l 2,8,9
 51 -190 51 -190 43 -182.5 c 128,-1,10
 35 -175 35 -175 35 -164 c 256,11,12
 35 -153 35 -153 43 -145.5 c 128,-1,13
 51 -138 51 -138 62 -138 c 2,14,-1
 267 -138 l 1,15,-1
 258 -145 l 1,16,-1
 258 659 l 1,17,-1
 265 646 l 1,18,-1
 62 646 l 2,19,20
 51 646 51 646 43 654.5 c 128,-1,21
 35 663 35 663 35 674 c 256,22,23
 35 685 35 685 43 692.5 c 128,-1,24
 51 700 51 700 62 700 c 2,25,-1
 290 700 l 2,0,1
EndSplineSet
Substitution2: "'case' Case-Sensitive Forms in Latin lookup 35 subtable" bracketright.case
Substitution2: "'aalt' Access All Alternates in Latin lookup 0 subtable" bracketright.case
EndChar

StartChar: quoteleft
Encoding: 8216 8216 648
Width: 214
Flags: W
LayerCount: 2
Fore
SplineSet
37 596 m 256,0,1
 37 624 37 624 53 649 c 128,-1,2
 69 674 69 674 92 690.5 c 128,-1,3
 115 707 115 707 137 707 c 0,4,5
 145 707 145 707 152 702.5 c 128,-1,6
 159 698 159 698 159 684 c 256,7,8
 159 670 159 670 150.5 668 c 128,-1,9
 142 666 142 666 126 659 c 0,10,11
 110 650 110 650 101 638 c 128,-1,12
 92 626 92 626 92 611 c 0,13,14
 92 598 92 598 99.5 590.5 c 128,-1,15
 107 583 107 583 117 583 c 0,16,17
 124 583 124 583 131.5 585.5 c 128,-1,18
 139 588 139 588 143 592 c 1,19,20
 150 587 150 587 153 580.5 c 128,-1,21
 156 574 156 574 156 565 c 0,22,23
 155 549 155 549 137.5 536.5 c 128,-1,24
 120 524 120 524 99 524 c 0,25,26
 72 524 72 524 54.5 546 c 128,-1,27
 37 568 37 568 37 596 c 256,0,1
EndSplineSet
EndChar

StartChar: quoteright
Encoding: 8217 8217 649
Width: 194
Flags: W
LayerCount: 2
Fore
SplineSet
149 635 m 0,0,1
 149 608 149 608 133 582.5 c 128,-1,2
 117 557 117 557 94.5 540.5 c 128,-1,3
 72 524 72 524 49 524 c 0,4,5
 41 524 41 524 34 529 c 128,-1,6
 27 534 27 534 27 547 c 0,7,8
 27 561 27 561 36 563 c 128,-1,9
 45 565 45 565 60 572 c 0,10,11
 76 581 76 581 85 593 c 128,-1,12
 94 605 94 605 94 621 c 0,13,14
 94 634 94 634 86.5 641 c 128,-1,15
 79 648 79 648 69 648 c 0,16,17
 62 648 62 648 55 645.5 c 128,-1,18
 48 643 48 643 43 639 c 1,19,20
 37 644 37 644 33.5 650.5 c 128,-1,21
 30 657 30 657 30 666 c 0,22,23
 32 683 32 683 49 695 c 128,-1,24
 66 707 66 707 87 707 c 0,25,26
 114 707 114 707 131.5 685.5 c 128,-1,27
 149 664 149 664 149 635 c 0,0,1
EndSplineSet
EndChar

StartChar: guilsinglleft
Encoding: 8249 8249 652
Width: 274
Flags: W
LayerCount: 2
Fore
SplineSet
199 50 m 0,0,1
 186 50 186 50 176 62 c 2,2,-1
 46 238 l 2,3,4
 39 247 39 247 39 258 c 256,5,6
 39 269 39 269 46 277 c 2,7,-1
 177 452 l 2,8,9
 186 465 186 465 200 465 c 0,10,11
 211 465 211 465 220 457.5 c 128,-1,12
 229 450 229 450 229 438 c 0,13,14
 229 427 229 427 220 417 c 2,15,-1
 99 251 l 1,16,-1
 97 267 l 1,17,-1
 221 99 l 2,18,19
 225 95 225 95 227 90 c 128,-1,20
 229 85 229 85 229 80 c 0,21,22
 229 65 229 65 218.5 57.5 c 128,-1,23
 208 50 208 50 199 50 c 0,0,1
EndSplineSet
Substitution2: "'case' Case-Sensitive Forms in Latin lookup 35 subtable" guilsinglleft.case
Substitution2: "'aalt' Access All Alternates in Latin lookup 0 subtable" guilsinglleft.case
EndChar

StartChar: guilsinglright
Encoding: 8250 8250 653
Width: 274
Flags: W
LayerCount: 2
Fore
SplineSet
69 465 m 0,0,1
 83 465 83 465 92 453 c 2,2,-1
 222 277 l 2,3,4
 229 269 229 269 229 257 c 0,5,6
 229 247 229 247 222 238 c 2,7,-1
 91 63 l 2,8,9
 82 50 82 50 68 50 c 0,10,11
 57 50 57 50 48.5 57.5 c 128,-1,12
 40 65 40 65 40 77 c 0,13,14
 40 88 40 88 48 98 c 2,15,-1
 169 264 l 1,16,-1
 172 248 l 1,17,-1
 47 415 l 2,18,19
 44 420 44 420 41.5 425 c 128,-1,20
 39 430 39 430 39 435 c 0,21,22
 39 450 39 450 49.5 457.5 c 128,-1,23
 60 465 60 465 69 465 c 0,0,1
EndSplineSet
Substitution2: "'case' Case-Sensitive Forms in Latin lookup 35 subtable" guilsinglright.case
Substitution2: "'aalt' Access All Alternates in Latin lookup 0 subtable" guilsinglright.case
EndChar

StartChar: quotedbl
Encoding: 34 34 654
Width: 383
Flags: W
LayerCount: 2
Fore
SplineSet
70 674 m 2,0,1
 73 700 73 700 99 700 c 2,2,-1
 131 700 l 2,3,4
 144 700 144 700 148 692 c 128,-1,5
 152 684 152 684 148 672 c 2,6,-1
 85 456 l 2,7,8
 79 435 79 435 57 435 c 0,9,10
 41 435 41 435 44 461 c 2,11,-1
 70 674 l 2,0,1
260 674 m 2,12,13
 263 700 263 700 289 700 c 2,14,-1
 321 700 l 2,15,16
 334 699 334 699 338 691.5 c 128,-1,17
 342 684 342 684 338 672 c 2,18,-1
 275 456 l 2,19,20
 269 435 269 435 247 435 c 0,21,22
 231 435 231 435 234 461 c 2,23,-1
 260 674 l 2,12,13
EndSplineSet
EndChar

StartChar: quotesingle
Encoding: 39 39 655
Width: 193
Flags: W
LayerCount: 2
Fore
SplineSet
70 674 m 2,0,1
 73 700 73 700 99 700 c 2,2,-1
 132 700 l 2,3,4
 145 699 145 699 148.5 691.5 c 128,-1,5
 152 684 152 684 149 672 c 2,6,-1
 85 456 l 2,7,8
 79 435 79 435 57 435 c 0,9,10
 41 435 41 435 44 461 c 2,11,-1
 70 674 l 2,0,1
EndSplineSet
EndChar

StartChar: florin
Encoding: 402 402 660
Width: 572
Flags: W
LayerCount: 2
Fore
SplineSet
73 -73 m 0,0,1
 51 -73 51 -73 33 -66.5 c 128,-1,2
 15 -60 15 -60 15 -40 c 0,3,4
 15 -28 15 -28 22 -21.5 c 128,-1,5
 29 -15 29 -15 42 -15 c 0,6,7
 50 -15 50 -15 59 -18.5 c 128,-1,8
 68 -22 68 -22 76 -22 c 0,9,10
 120 -22 120 -22 145 5.5 c 128,-1,11
 170 33 170 33 176 74 c 2,12,-1
 254 519 l 2,13,14
 266 588 266 588 305 629.5 c 128,-1,15
 344 671 344 671 418 671 c 0,16,17
 432 671 432 671 442.5 670 c 128,-1,18
 453 669 453 669 462 667 c 0,19,20
 475 665 475 665 481.5 657 c 128,-1,21
 488 649 488 649 487 637 c 0,22,23
 486 627 486 627 478 620.5 c 128,-1,24
 470 614 470 614 457 615 c 0,25,26
 451 616 451 616 444 616.5 c 128,-1,27
 437 617 437 617 429 617 c 0,28,29
 379 617 379 617 352 591 c 128,-1,30
 325 565 325 565 317 520 c 2,31,-1
 241 78 l 2,32,33
 228 7 228 7 188 -33 c 128,-1,34
 148 -73 148 -73 73 -73 c 0,0,1
153 371 m 2,35,36
 141 371 141 371 132.5 379 c 128,-1,37
 124 387 124 387 124 398 c 0,38,39
 124 410 124 410 132.5 418 c 128,-1,40
 141 426 141 426 153 426 c 2,41,-1
 406 423 l 2,42,43
 419 423 419 423 427 415 c 128,-1,44
 435 407 435 407 435 395 c 0,45,46
 435 384 435 384 427 376 c 128,-1,47
 419 368 419 368 406 368 c 2,48,-1
 153 371 l 2,35,36
EndSplineSet
EndChar

StartChar: at
Encoding: 64 64 661
Width: 972
Flags: W
LayerCount: 2
Fore
SplineSet
689 55 m 0,0,1
 659 55 659 55 636 67 c 128,-1,2
 613 79 613 79 601.5 101.5 c 128,-1,3
 590 124 590 124 594 153 c 2,4,-1
 603 222 l 1,5,-1
 617 220 l 1,6,7
 596 166 596 166 562.5 129 c 128,-1,8
 529 92 529 92 488.5 73.5 c 128,-1,9
 448 55 448 55 408 55 c 0,10,11
 365 55 365 55 332 77.5 c 128,-1,12
 299 100 299 100 280 137 c 128,-1,13
 261 174 261 174 261 220 c 0,14,15
 261 267 261 267 279 317.5 c 128,-1,16
 297 368 297 368 329.5 412 c 128,-1,17
 362 456 362 456 406 483 c 128,-1,18
 450 510 450 510 502 510 c 0,19,20
 562 510 562 510 598.5 472.5 c 128,-1,21
 635 435 635 435 643 381 c 1,22,-1
 624 331 l 1,23,-1
 646 475 l 2,24,25
 648 486 648 486 655 494 c 128,-1,26
 662 502 662 502 677 502 c 0,27,28
 694 502 694 502 700 493 c 128,-1,29
 706 484 706 484 703 466 c 2,30,-1
 656 166 l 2,31,32
 651 132 651 132 666 117 c 128,-1,33
 681 102 681 102 700 102 c 0,34,35
 736 102 736 102 767.5 127.5 c 128,-1,36
 799 153 799 153 823.5 195.5 c 128,-1,37
 848 238 848 238 861.5 290.5 c 128,-1,38
 875 343 875 343 875 396 c 0,39,40
 875 475 875 475 838.5 535 c 128,-1,41
 802 595 802 595 734.5 628.5 c 128,-1,42
 667 662 667 662 576 662 c 0,43,44
 473 662 473 662 385 631.5 c 128,-1,45
 297 601 297 601 231 541.5 c 128,-1,46
 165 482 165 482 127.5 398 c 128,-1,47
 90 314 90 314 90 206 c 0,48,49
 90 147 90 147 108.5 90 c 128,-1,50
 127 33 127 33 165.5 -13.5 c 128,-1,51
 204 -60 204 -60 266 -87 c 128,-1,52
 328 -114 328 -114 414 -114 c 0,53,54
 469 -114 469 -114 507.5 -105.5 c 128,-1,55
 546 -97 546 -97 577 -83.5 c 128,-1,56
 608 -70 608 -70 639 -55 c 0,57,58
 647 -51 647 -51 655.5 -52.5 c 128,-1,59
 664 -54 664 -54 669 -66 c 0,60,61
 677 -86 677 -86 653 -98 c 0,62,63
 610 -119 610 -119 554 -140.5 c 128,-1,64
 498 -162 498 -162 414 -162 c 0,65,66
 313 -162 313 -162 242 -130.5 c 128,-1,67
 171 -99 171 -99 126.5 -46 c 128,-1,68
 82 7 82 7 61 72.5 c 128,-1,69
 40 138 40 138 40 206 c 0,70,71
 40 323 40 323 81.5 416 c 128,-1,72
 123 509 123 509 196.5 575 c 128,-1,73
 270 641 270 641 367 675.5 c 128,-1,74
 464 710 464 710 576 710 c 0,75,76
 690 710 690 710 768 667.5 c 128,-1,77
 846 625 846 625 885.5 553.5 c 128,-1,78
 925 482 925 482 925 396 c 0,79,80
 925 335 925 335 907.5 274.5 c 128,-1,81
 890 214 890 214 858.5 164.5 c 128,-1,82
 827 115 827 115 783.5 85 c 128,-1,83
 740 55 740 55 689 55 c 0,0,1
417 106 m 0,84,85
 452 106 452 106 487 124.5 c 128,-1,86
 522 143 522 143 551 174.5 c 128,-1,87
 580 206 580 206 598.5 244.5 c 128,-1,88
 617 283 617 283 618 323 c 0,89,90
 623 364 623 364 610 394.5 c 128,-1,91
 597 425 597 425 569.5 442 c 128,-1,92
 542 459 542 459 504 459 c 0,93,94
 461 459 461 459 427 436.5 c 128,-1,95
 393 414 393 414 369 377.5 c 128,-1,96
 345 341 345 341 333 299.5 c 128,-1,97
 321 258 321 258 321 222 c 0,98,99
 321 167 321 167 349.5 136.5 c 128,-1,100
 378 106 378 106 417 106 c 0,84,85
EndSplineSet
Substitution2: "'case' Case-Sensitive Forms in Latin lookup 35 subtable" at.case
Substitution2: "'aalt' Access All Alternates in Latin lookup 0 subtable" at.case
EndChar

StartChar: ampersand
Encoding: 38 38 662
Width: 679
Flags: W
LayerCount: 2
Fore
SplineSet
272 -10 m 0,0,1
 201 -10 201 -10 146 23 c 128,-1,2
 91 56 91 56 60.5 108 c 128,-1,3
 30 160 30 160 30 218 c 0,4,5
 30 262 30 262 47.5 303 c 128,-1,6
 65 344 65 344 100.5 376.5 c 128,-1,7
 136 409 136 409 191 428 c 1,8,-1
 234 385 l 1,9,10
 156 367 156 367 124 323 c 128,-1,11
 92 279 92 279 92 226 c 0,12,13
 92 181 92 181 113 140.5 c 128,-1,14
 134 100 134 100 176 74 c 128,-1,15
 218 48 218 48 279 48 c 0,16,17
 344 48 344 48 390.5 69.5 c 128,-1,18
 437 91 437 91 469 126.5 c 128,-1,19
 501 162 501 162 520 206.5 c 128,-1,20
 539 251 539 251 548 297 c 0,21,22
 550 307 550 307 556.5 312.5 c 128,-1,23
 563 318 563 318 575 318 c 0,24,25
 589 318 589 318 597 308 c 128,-1,26
 605 298 605 298 603 283 c 0,27,28
 594 229 594 229 570 177 c 128,-1,29
 546 125 546 125 505 82.5 c 128,-1,30
 464 40 464 40 406 15 c 128,-1,31
 348 -10 348 -10 272 -10 c 0,0,1
627 3 m 0,32,33
 622 3 622 3 617.5 4.5 c 128,-1,34
 613 6 613 6 609 8 c 0,35,36
 548 56 548 56 491.5 100.5 c 128,-1,37
 435 145 435 145 379.5 197 c 128,-1,38
 324 249 324 249 263 317 c 0,39,40
 228 357 228 357 200 395.5 c 128,-1,41
 172 434 172 434 155 471.5 c 128,-1,42
 138 509 138 509 138 546 c 0,43,44
 138 592 138 592 161 629.5 c 128,-1,45
 184 667 184 667 226 688.5 c 128,-1,46
 268 710 268 710 326 710 c 0,47,48
 398 710 398 710 445 683 c 128,-1,49
 492 656 492 656 511 619 c 0,50,51
 512 618 512 618 514 612.5 c 128,-1,52
 516 607 516 607 516 600 c 0,53,54
 516 591 516 591 508.5 583 c 128,-1,55
 501 575 501 575 488 575 c 0,56,57
 480 575 480 575 474.5 578 c 128,-1,58
 469 581 469 581 466 586 c 0,59,60
 446 616 446 616 413.5 635.5 c 128,-1,61
 381 655 381 655 326 655 c 0,62,63
 265 655 265 655 233 624.5 c 128,-1,64
 201 594 201 594 201 546 c 0,65,66
 201 515 201 515 218 480.5 c 128,-1,67
 235 446 235 446 261.5 411 c 128,-1,68
 288 376 288 376 317 343 c 0,69,70
 357 298 357 298 401.5 255.5 c 128,-1,71
 446 213 446 213 489.5 176 c 128,-1,72
 533 139 533 139 572 109 c 128,-1,73
 611 79 611 79 641 56 c 0,74,75
 648 51 648 51 651 45 c 128,-1,76
 654 39 654 39 654 31 c 256,77,78
 654 23 654 23 647 13 c 128,-1,79
 640 3 640 3 627 3 c 0,32,33
EndSplineSet
EndChar

StartChar: paragraph
Encoding: 182 182 663
Width: 623
Flags: W
LayerCount: 2
Fore
SplineSet
502 0 m 256,0,1
 491 0 491 0 483.5 7.5 c 128,-1,2
 476 15 476 15 476 29 c 2,3,-1
 476 667 l 1,4,-1
 493 651 l 1,5,-1
 368 651 l 1,6,-1
 383 664 l 1,7,-1
 383 59 l 2,8,9
 383 24 383 24 368.5 -3 c 128,-1,10
 354 -30 354 -30 327 -45 c 128,-1,11
 300 -60 300 -60 265 -60 c 0,12,13
 235 -60 235 -60 211 -49.5 c 128,-1,14
 187 -39 187 -39 184 -25 c 0,15,16
 180 -17 180 -17 182.5 -7.5 c 128,-1,17
 185 2 185 2 195 7 c 0,18,19
 202 11 202 11 209.5 9.5 c 128,-1,20
 217 8 217 8 225 4 c 0,21,22
 233 -1 233 -1 242 -5 c 128,-1,23
 251 -9 251 -9 264 -9 c 0,24,25
 293 -9 293 -9 312 12 c 128,-1,26
 331 33 331 33 331 65 c 2,27,-1
 331 299 l 1,28,-1
 350 269 l 1,29,-1
 297 269 l 2,30,31
 207 271 207 271 151.5 293 c 128,-1,32
 96 315 96 315 71 362.5 c 128,-1,33
 46 410 46 410 46 487 c 0,34,35
 46 569 46 569 74 615 c 128,-1,36
 102 661 102 661 162.5 680.5 c 128,-1,37
 223 700 223 700 324 700 c 2,38,-1
 503 700 l 2,39,40
 513 700 513 700 520.5 692.5 c 128,-1,41
 528 685 528 685 528 675 c 2,42,-1
 528 29 l 2,43,44
 528 15 528 15 520.5 7.5 c 128,-1,45
 513 0 513 0 502 0 c 256,0,1
EndSplineSet
EndChar

StartChar: section
Encoding: 167 167 664
Width: 533
Flags: W
LayerCount: 2
Fore
SplineSet
488 279 m 0,0,1
 486 222 486 222 443.5 184.5 c 128,-1,2
 401 147 401 147 321 140 c 1,3,-1
 341 168 l 1,4,5
 397 138 397 138 424 108 c 128,-1,6
 451 78 451 78 451 29 c 0,7,8
 451 -7 451 -7 438 -37.5 c 128,-1,9
 425 -68 425 -68 400.5 -91 c 128,-1,10
 376 -114 376 -114 341 -126.5 c 128,-1,11
 306 -139 306 -139 261 -139 c 0,12,13
 217 -139 217 -139 177 -126.5 c 128,-1,14
 137 -114 137 -114 106 -96 c 128,-1,15
 75 -78 75 -78 58 -61 c 0,16,17
 52 -54 52 -54 48 -46.5 c 128,-1,18
 44 -39 44 -39 44 -29 c 0,19,20
 45 -19 45 -19 53 -10.5 c 128,-1,21
 61 -2 61 -2 73 -2 c 0,22,23
 77 -2 77 -2 83.5 -4 c 128,-1,24
 90 -6 90 -6 96 -12 c 0,25,26
 110 -27 110 -27 132.5 -43 c 128,-1,27
 155 -59 155 -59 186.5 -70 c 128,-1,28
 218 -81 218 -81 260 -81 c 0,29,30
 276 -81 276 -81 298 -78 c 128,-1,31
 320 -75 320 -75 341.5 -64.5 c 128,-1,32
 363 -54 363 -54 376.5 -33 c 128,-1,33
 390 -12 390 -12 390 22 c 0,34,35
 390 50 390 50 369.5 71 c 128,-1,36
 349 92 349 92 312.5 108 c 128,-1,37
 276 124 276 124 227 138 c 0,38,39
 149 160 149 160 104.5 197 c 128,-1,40
 60 234 60 234 60 298 c 0,41,42
 60 319 60 319 67.5 342 c 128,-1,43
 75 365 75 365 92 386 c 128,-1,44
 109 407 109 407 138 421.5 c 128,-1,45
 167 436 167 436 208 441 c 1,46,-1
 203 417 l 1,47,48
 151 438 151 438 127 473 c 128,-1,49
 103 508 103 508 103 549 c 0,50,51
 103 594 103 594 121.5 624.5 c 128,-1,52
 140 655 140 655 169 673.5 c 128,-1,53
 198 692 198 692 230.5 700 c 128,-1,54
 263 708 263 708 290 707 c 0,55,56
 343 706 343 706 380.5 687.5 c 128,-1,57
 418 669 418 669 444 643 c 0,58,59
 452 636 452 636 452 624 c 0,60,61
 452 613 452 613 445 603.5 c 128,-1,62
 438 594 438 594 422 594 c 0,63,64
 414 594 414 594 409 599 c 0,65,66
 386 619 386 619 356 633.5 c 128,-1,67
 326 648 326 648 286 648 c 0,68,69
 257 648 257 648 229 638.5 c 128,-1,70
 201 629 201 629 182.5 608.5 c 128,-1,71
 164 588 164 588 164 555 c 0,72,73
 164 525 164 525 181 504.5 c 128,-1,74
 198 484 198 484 223 471 c 128,-1,75
 248 458 248 458 273 450 c 128,-1,76
 298 442 298 442 314 438 c 0,77,78
 398 416 398 416 443.5 380 c 128,-1,79
 489 344 489 344 488 279 c 0,0,1
241 199 m 1,80,-1
 313 183 l 1,81,82
 349 183 349 183 374.5 196.5 c 128,-1,83
 400 210 400 210 413.5 230.5 c 128,-1,84
 427 251 427 251 427 275 c 0,85,86
 427 312 427 312 399.5 333.5 c 128,-1,87
 372 355 372 355 315 373 c 1,88,-1
 230 392 l 2,89,90
 203 394 203 394 178 382 c 128,-1,91
 153 370 153 370 138 349.5 c 128,-1,92
 123 329 123 329 123 303 c 0,93,94
 123 270 123 270 149.5 245 c 128,-1,95
 176 220 176 220 241 199 c 1,80,-1
EndSplineSet
EndChar

StartChar: copyright
Encoding: 169 169 665
Width: 795
Flags: W
LayerCount: 2
Fore
SplineSet
398 -2 m 0,0,1
 325 -2 325 -2 261 24.5 c 128,-1,2
 197 51 197 51 148.5 98 c 128,-1,3
 100 145 100 145 72.5 210 c 128,-1,4
 45 275 45 275 45 350 c 0,5,6
 45 427 45 427 72.5 491 c 128,-1,7
 100 555 100 555 148.5 602.5 c 128,-1,8
 197 650 197 650 261 676.5 c 128,-1,9
 325 703 325 703 398 703 c 0,10,11
 470 703 470 703 534 676.5 c 128,-1,12
 598 650 598 650 646.5 602.5 c 128,-1,13
 695 555 695 555 722.5 491 c 128,-1,14
 750 427 750 427 750 350 c 0,15,16
 750 275 750 275 722.5 210 c 128,-1,17
 695 145 695 145 646.5 98 c 128,-1,18
 598 51 598 51 534 24.5 c 128,-1,19
 470 -2 470 -2 398 -2 c 0,0,1
398 45 m 0,20,21
 460 45 460 45 515 67.5 c 128,-1,22
 570 90 570 90 612.5 131 c 128,-1,23
 655 172 655 172 678.5 228 c 128,-1,24
 702 284 702 284 702 350 c 256,25,26
 702 416 702 416 678.5 471.5 c 128,-1,27
 655 527 655 527 612.5 568.5 c 128,-1,28
 570 610 570 610 515 633 c 128,-1,29
 460 656 460 656 398 656 c 0,30,31
 335 656 335 656 280 633 c 128,-1,32
 225 610 225 610 183 568.5 c 128,-1,33
 141 527 141 527 117.5 471.5 c 128,-1,34
 94 416 94 416 94 350 c 256,35,36
 94 284 94 284 117.5 228 c 128,-1,37
 141 172 141 172 183 131 c 128,-1,38
 225 90 225 90 280 67.5 c 128,-1,39
 335 45 335 45 398 45 c 0,20,21
416 153 m 0,40,41
 356 153 356 153 310.5 178.5 c 128,-1,42
 265 204 265 204 239 249 c 128,-1,43
 213 294 213 294 213 350 c 0,44,45
 213 404 213 404 238 449 c 128,-1,46
 263 494 263 494 309 520.5 c 128,-1,47
 355 547 355 547 416 547 c 0,48,49
 480 547 480 547 530 514 c 0,50,51
 540 509 540 509 542 497 c 128,-1,52
 544 485 544 485 537 476 c 0,53,54
 531 467 531 467 521 466.5 c 128,-1,55
 511 466 511 466 503 470 c 0,56,57
 484 482 484 482 462 489 c 128,-1,58
 440 496 440 496 416 496 c 0,59,60
 370 496 370 496 336 476.5 c 128,-1,61
 302 457 302 457 284 424.5 c 128,-1,62
 266 392 266 392 266 350 c 0,63,64
 266 307 266 307 284 274 c 128,-1,65
 302 241 302 241 336 222.5 c 128,-1,66
 370 204 370 204 416 204 c 0,67,68
 440 204 440 204 461.5 211 c 128,-1,69
 483 218 483 218 503 229 c 0,70,71
 511 234 511 234 521 232.5 c 128,-1,72
 531 231 531 231 537 223 c 0,73,74
 544 214 544 214 542 202.5 c 128,-1,75
 540 191 540 191 531 185 c 0,76,77
 506 170 506 170 476.5 161.5 c 128,-1,78
 447 153 447 153 416 153 c 0,40,41
EndSplineSet
EndChar

